<svg width="17" height="77" viewBox="0 0 17 77" fill="none" xmlns="http://www.w3.org/2000/svg">
<path d="M3.57143 1C2.14286 1 1 1.81159 1 2.82609C1 3.84058 2.14286 4.65217 3.57143 4.65217C5 4.65217 6.14286 3.84058 6.14286 2.82609C6.14286 1.81159 5 1 3.57143 1Z" fill="white"/>
<path d="M2.71429 71L12.7143 76.7735V65.2265L2.71429 71ZM2 2.82609C2 2.72453 2.05425 2.54305 2.329 2.34794C2.60341 2.15307 3.03769 2 3.57143 2V0C2.6766 0 1.82517 0.252728 1.171 0.717281C0.517177 1.18159 0 1.91316 0 2.82609H2ZM3.57143 2C4.10517 2 4.53945 2.15307 4.81386 2.34794C5.08861 2.54305 5.14286 2.72453 5.14286 2.82609H7.14286C7.14286 1.91316 6.62568 1.18159 5.97186 0.717281C5.31769 0.252728 4.46626 0 3.57143 0V2ZM5.14286 2.82609C5.14286 2.92765 5.08861 3.10913 4.81386 3.30424C4.53945 3.49911 4.10517 3.65217 3.57143 3.65217V5.65217C4.46626 5.65217 5.31769 5.39945 5.97186 4.93489C6.62568 4.47058 7.14286 3.73902 7.14286 2.82609H5.14286ZM3.57143 3.65217C3.03769 3.65217 2.60341 3.49911 2.329 3.30424C2.05425 3.10913 2 2.92765 2 2.82609H0C0 3.73902 0.517177 4.47058 1.171 4.93489C1.82517 5.39945 2.6766 5.65217 3.57143 5.65217V3.65217ZM6.14286 3.82609H13V1.82609H6.14286V3.82609ZM13 70H11.7143V72H13V70ZM15 5.82609V36.913H17V5.82609H15ZM15 36.913V68H17V36.913H15ZM13 72C15.2091 72 17 70.2091 17 68H15C15 69.1046 14.1046 70 13 70V72ZM13 3.82609C14.1046 3.82609 15 4.72152 15 5.82609H17C17 3.61695 15.2091 1.82609 13 1.82609V3.82609Z" fill="url(#paint0_linear)"/>
<defs>
<linearGradient id="paint0_linear" x1="8.5" y1="1" x2="8.5" y2="71" gradientUnits="userSpaceOnUse">
<stop stop-color="#2A6E3F"/>
<stop offset="1" stop-color="#6CA8AF"/>
</linearGradient>
</defs>
</svg>
