<svg width="17" height="77" viewBox="0 0 17 77" fill="none" xmlns="http://www.w3.org/2000/svg">
<path d="M13.4286 1C14.8571 1 16 1.81159 16 2.82609C16 3.84058 14.8571 4.65217 13.4286 4.65217C12 4.65217 10.8571 3.84058 10.8571 2.82609C10.8571 1.81159 12 1 13.4286 1Z" fill="white"/>
<path d="M14.2857 71L4.28571 76.7735V65.2265L14.2857 71ZM15 2.82609C15 2.72453 14.9457 2.54305 14.671 2.34794C14.3966 2.15307 13.9623 2 13.4286 2V0C14.3234 0 15.1748 0.252728 15.829 0.717281C16.4828 1.18159 17 1.91316 17 2.82609H15ZM13.4286 2C12.8948 2 12.4605 2.15307 12.1861 2.34794C11.9114 2.54305 11.8571 2.72453 11.8571 2.82609H9.85714C9.85714 1.91316 10.3743 1.18159 11.0281 0.717281C11.6823 0.252728 12.5337 0 13.4286 0V2ZM11.8571 2.82609C11.8571 2.92765 11.9114 3.10913 12.1861 3.30424C12.4605 3.49911 12.8948 3.65217 13.4286 3.65217V5.65217C12.5337 5.65217 11.6823 5.39945 11.0281 4.93489C10.3743 4.47058 9.85714 3.73902 9.85714 2.82609H11.8571ZM13.4286 3.65217C13.9623 3.65217 14.3966 3.49911 14.671 3.30424C14.9457 3.10913 15 2.92765 15 2.82609H17C17 3.73902 16.4828 4.47058 15.829 4.93489C15.1748 5.39945 14.3234 5.65217 13.4286 5.65217V3.65217ZM10.8571 3.82609H4V1.82609H10.8571V3.82609ZM4 70H5.28571V72H4V70ZM2 5.82609V36.913H0V5.82609H2ZM2 36.913V68H0V36.913H2ZM4 72C1.79086 72 0 70.2091 0 68H2C2 69.1046 2.89543 70 4 70V72ZM4 3.82609C2.89543 3.82609 2 4.72152 2 5.82609H0C0 3.61695 1.79086 1.82609 4 1.82609V3.82609Z" fill="url(#paint0_linear)"/>
<defs>
<linearGradient id="paint0_linear" x1="8.5" y1="1" x2="8.5" y2="71" gradientUnits="userSpaceOnUse">
<stop stop-color="#06436F"/>
<stop offset="1" stop-color="#2A6E3F"/>
</linearGradient>
</defs>
</svg>
