<svg width="50" height="50" viewBox="0 0 50 50" fill="none" xmlns="http://www.w3.org/2000/svg">
<circle cx="25" cy="25" r="25" fill="#112A53"/>
<path d="M33.0144 12.2126L27.1135 18.1135L27.909 22.091L31.8865 22.8865L37.7874 16.9856L37.788 16.9854C38.5183 18.7095 38.693 20.6184 38.2877 22.4464C37.8823 24.2744 36.9172 25.9306 35.5265 27.1844C34.1358 28.4382 32.3888 29.2272 30.5287 29.4417C28.6686 29.6561 26.7879 29.2852 25.1484 28.3807L25.1486 28.3804L17.2615 37.5115C16.6284 38.1438 15.7702 38.4989 14.8754 38.4986C13.9806 38.4984 13.1226 38.1428 12.4899 37.5101C11.8572 36.8774 11.5016 36.0194 11.5014 35.1246C11.5011 34.2298 11.8562 33.3716 12.4885 32.7385L21.6195 24.8515L21.6193 24.8516C20.7148 23.2121 20.3439 21.3314 20.5583 19.4713C20.7728 17.6112 21.5618 15.8642 22.8156 14.4735C24.0694 13.0828 25.7255 12.1177 27.5536 11.7123C29.3816 11.307 31.2905 11.4817 33.0146 12.2121L33.0144 12.2126Z" stroke="white" stroke-width="2" stroke-linecap="round" stroke-linejoin="round"/>
</svg>
