<svg width="57" height="72" viewBox="0 0 57 72" fill="none" xmlns="http://www.w3.org/2000/svg">
<path fill-rule="evenodd" clip-rule="evenodd" d="M1.9578 5.85279C0.718531 4.90299 0.831185 4.4646 3.30973 3.14941C7.36549 0.884477 13.8998 0.884477 25.3912 3.14941C37.8966 5.63356 44.8815 5.70663 49.388 3.51473C53.1057 1.76124 55.021 1.98043 55.021 4.17236C55.021 5.99887 46.5714 8.5561 40.6004 8.5561C38.1218 8.5561 31.8129 7.67938 26.6305 6.6565C15.9277 4.39152 10.0693 4.24536 6.12621 5.85279C3.64776 6.94874 3.30973 6.94874 1.9578 5.85279ZM1.9578 25.4208C1.3945 25.6401 1.05652 35.2113 1.16918 48.4358L1.50716 71.0123L13.1112 71.2316L24.7152 71.4507L24.49 48.728C24.3772 34.9191 23.9266 25.8592 23.2507 25.6401C21.786 25.0555 3.30974 24.8364 1.9578 25.4208ZM32.4888 25.4208L37.3332 25.2017C39.4649 25.0814 43.4265 25.0107 46.8971 24.9487C47.6447 24.9354 48.3713 24.9223 49.05 24.9094L56.1476 24.8363V48.0704V71.3776H44.3183H32.4888V48.4358V25.4208Z" fill="#48AD0B"/>
<path d="M3.30973 13.3063C0.831185 14.6215 -0.739202 16.5502 0.500069 17.5C1.85199 18.5959 3.64776 17.1057 6.12621 16.0097C10.0693 14.4023 15.9277 14.5484 26.6305 16.8134C31.8129 17.8363 38.1218 18.713 40.6004 18.713C46.5714 18.713 55.021 16.1558 55.021 14.3293C55.021 12.1374 53.1057 11.9182 49.388 13.6716C44.8815 15.8636 37.8966 15.7905 25.3912 13.3063C13.8998 11.0414 7.36549 11.0414 3.30973 13.3063Z" fill="#48AD0B"/>
<path d="M2.97175 16.1448C0.493209 17.46 0.380557 17.8984 1.61983 18.8482C2.97175 19.9441 3.30978 19.9441 5.78823 18.8482C9.73134 17.2407 15.5897 17.3869 26.2925 19.6519C31.4749 20.6748 37.7839 21.5515 40.2624 21.5515C46.2335 21.5515 55.5001 17.8362 55.5001 16.0097C55.5001 13.8178 52.7677 14.7566 49.05 16.5101C44.5435 18.702 37.5586 18.6289 25.0533 16.1448C13.5618 13.8799 7.02751 13.8799 2.97175 16.1448Z" fill="#48AD0B"/>
<path d="M2.97175 16.1448C0.493209 17.46 0.380557 17.8984 1.61983 18.8482C2.97175 19.9441 3.30978 19.9441 5.78823 18.8482C9.73134 17.2407 15.5897 17.3869 26.2925 19.6519C31.4749 20.6748 37.7839 21.5515 40.2624 21.5515C46.2335 21.5515 55.5001 17.8362 55.5001 16.0097C55.5001 13.8178 52.7677 14.7566 49.05 16.5101C44.5435 18.702 37.5586 18.6289 25.0533 16.1448C13.5618 13.8799 7.02751 13.8799 2.97175 16.1448Z" fill="#48AD0B"/>
<path d="M3.95718 2.5C1.47864 3.81519 -0.0917484 5.74387 1.14752 6.69366C2.49945 7.78962 4.29521 6.29933 6.77366 5.20338C10.7168 3.59595 16.5752 3.74211 27.278 6.00709C32.4604 7.02997 38.7693 7.90669 41.2478 7.90669C47.2189 7.90669 55.6685 5.34946 55.6685 3.52295C55.6685 1.33102 53.7532 1.11183 50.0354 2.86532C45.529 5.05722 38.544 4.98415 26.0387 2.5C14.5472 0.235067 8.01294 0.235067 3.95718 2.5Z" fill="#48AD0B"/>
<path d="M3.6192 5.33846C1.14066 6.65364 1.02801 7.09204 2.26728 8.04184C3.61921 9.13779 3.95723 9.13779 6.43568 8.04184C10.3788 6.43441 16.2372 6.58057 26.94 8.84555C32.1224 9.86843 38.4313 10.7451 40.9099 10.7451C46.8809 10.7451 56.1475 7.02989 56.1475 5.20338C56.1475 3.01145 53.4152 3.95029 49.6975 5.70377C45.191 7.89568 38.206 7.8226 25.7007 5.33846C14.2093 3.07352 7.67497 3.07352 3.6192 5.33846Z" fill="#48AD0B"/>
<path d="M3.6192 5.33846C1.14066 6.65364 1.02801 7.09204 2.26728 8.04184C3.61921 9.13779 3.95723 9.13779 6.43568 8.04184C10.3788 6.43441 16.2372 6.58057 26.94 8.84555C32.1224 9.86843 38.4313 10.7451 40.9099 10.7451C46.8809 10.7451 56.1475 7.02989 56.1475 5.20338C56.1475 3.01145 53.4152 3.95029 49.6975 5.70377C45.191 7.89568 38.206 7.8226 25.7007 5.33846C14.2093 3.07352 7.67497 3.07352 3.6192 5.33846Z" fill="#48AD0B"/>
</svg>
