<svg width="37" height="37" viewBox="0 0 37 37" fill="none" xmlns="http://www.w3.org/2000/svg">
<path d="M26.9363 5.94767L21.0354 11.8486L21.8309 15.826L25.8083 16.6215L31.7092 10.7206L31.7098 10.7204C32.4402 12.4445 32.6149 14.3534 32.2095 16.1815C31.8042 18.0095 30.839 19.6657 29.4483 20.9195C28.0577 22.1733 26.3107 22.9623 24.4506 23.1767C22.5904 23.3911 20.7097 23.0203 19.0703 22.1158L19.0704 22.1155L11.1833 31.2465C10.5503 31.8789 9.69203 32.2339 8.79726 32.2337C7.90249 32.2334 7.04443 31.8779 6.41173 31.2452C5.77903 30.6125 5.42347 29.7544 5.42322 28.8597C5.42296 27.9649 5.77804 27.1066 6.41037 26.4736L15.5413 18.5865L15.5412 18.5866C14.6366 16.9472 14.2658 15.0665 14.4802 13.2064C14.6946 11.3463 15.4836 9.59926 16.7374 8.20858C17.9912 6.81789 19.6474 5.8527 21.4754 5.44737C23.3035 5.04203 25.2124 5.21671 26.9365 5.9471L26.9363 5.94767Z" stroke="black" stroke-width="2" stroke-linecap="round" stroke-linejoin="round"/>
</svg>
