<svg width="23" height="23" viewBox="0 0 23 23" fill="none" xmlns="http://www.w3.org/2000/svg">
<path fill-rule="evenodd" clip-rule="evenodd" d="M11.5011 0C8.37784 0 7.98587 0.0136563 6.7592 0.0694792C5.53491 0.125542 4.69924 0.319365 3.96802 0.60375C3.21165 0.897479 2.57004 1.2904 1.93082 1.92984C1.29113 2.56905 0.898207 3.21066 0.603517 3.96678C0.31841 4.69823 0.124345 5.53414 0.0692403 6.75793C0.0143752 7.98459 0 8.37679 0 11.5C0 14.6232 0.013896 15.014 0.0694799 16.2406C0.125783 17.4649 0.319607 18.3006 0.603756 19.0318C0.897728 19.7881 1.29065 20.4298 1.9301 21.069C2.56908 21.7086 3.21069 22.1025 3.96658 22.3963C4.69828 22.6806 5.53419 22.8745 6.75824 22.9305C7.98492 22.9863 8.37664 23 11.4996 23C14.6231 23 15.0139 22.9863 16.2406 22.9305C17.4648 22.8745 18.3015 22.6806 19.0332 22.3963C19.7893 22.1025 20.43 21.7086 21.0689 21.069C21.7086 20.4298 22.1016 19.7881 22.3962 19.032C22.679 18.3006 22.873 17.4647 22.9305 16.2409C22.9856 15.0142 23 14.6232 23 11.5C23 8.37679 22.9856 7.98483 22.9305 6.75817C22.873 5.5339 22.679 4.69823 22.3962 3.96702C22.1016 3.21066 21.7086 2.56905 21.0689 1.92984C20.4292 1.29016 19.7895 0.89724 19.0325 0.60375C18.2993 0.319365 17.4632 0.125542 16.2389 0.0694792C15.0122 0.0136563 14.6217 0 11.4975 0H11.5011ZM10.4698 2.07223C10.776 2.07175 11.1176 2.07223 11.5014 2.07223C14.572 2.07223 14.9359 2.08325 16.1484 2.13835C17.2697 2.18963 17.8782 2.37698 18.2836 2.53439C18.8203 2.74282 19.2029 2.99199 19.6052 3.39449C20.0077 3.79699 20.2569 4.18032 20.4658 4.71699C20.6232 5.12189 20.8108 5.73043 20.8618 6.85168C20.9169 8.06397 20.9289 8.42814 20.9289 11.4972C20.9289 14.5663 20.9169 14.9304 20.8618 16.1427C20.8105 17.264 20.6232 17.8725 20.4658 18.2774C20.2573 18.8141 20.0077 19.1962 19.6052 19.5985C19.2027 20.001 18.8205 20.2501 18.2836 20.4586C17.8787 20.6167 17.2697 20.8036 16.1484 20.8548C14.9361 20.9099 14.572 20.9219 11.5014 20.9219C8.43066 20.9219 8.06673 20.9099 6.85443 20.8548C5.73316 20.8031 5.12462 20.6157 4.719 20.4583C4.18233 20.2499 3.79899 20.0007 3.39648 19.5982C2.99398 19.1957 2.74481 18.8134 2.53589 18.2764C2.37848 17.8716 2.19089 17.263 2.13986 16.1418C2.08475 14.9295 2.07373 14.5653 2.07373 11.4943C2.07373 8.42334 2.08475 8.06109 2.13986 6.8488C2.19113 5.72755 2.37848 5.11901 2.53589 4.71364C2.74433 4.17697 2.99398 3.79364 3.39648 3.39114C3.79899 2.98864 4.18233 2.73947 4.719 2.53055C5.12438 2.37243 5.73316 2.18555 6.85443 2.13404C7.91531 2.08613 8.32644 2.07175 10.4698 2.06935V2.07223ZM17.6398 3.98182C16.8779 3.98182 16.2598 4.59922 16.2598 5.36133C16.2598 6.1232 16.8779 6.74131 17.6398 6.74131C18.4017 6.74131 19.0198 6.1232 19.0198 5.36133C19.0198 4.59946 18.4017 3.98134 17.6398 3.98134V3.98182ZM11.501 5.59404C8.23952 5.59404 5.59521 8.23833 5.59521 11.4998C5.59521 14.7613 8.23952 17.4044 11.501 17.4044C14.7625 17.4044 17.4058 14.7613 17.4058 11.4998C17.4058 8.23833 14.7622 5.59404 11.5008 5.59404H11.501ZM11.5009 7.66606C13.6178 7.66606 15.3342 9.38225 15.3342 11.4995C15.3342 13.6165 13.6178 15.333 11.5009 15.333C9.38364 15.333 7.66748 13.6165 7.66748 11.4995C7.66748 9.38225 9.38364 7.66606 11.5009 7.66606V7.66606Z" fill="#116B1D"/>
</svg>
