<svg width="23" height="23" viewBox="0 0 23 23" fill="none" xmlns="http://www.w3.org/2000/svg">
<path d="M12.7778 23H7.66665V7.66667H12.7778V10.2222C13.8672 8.83616 15.5194 8.00984 17.2819 7.9695C20.4515 7.9871 23.0092 10.5664 23 13.7361V23H17.8889V14.375C17.6844 12.9472 16.46 11.8879 15.0177 11.891C14.3868 11.9109 13.7913 12.1872 13.3686 12.6559C12.946 13.1247 12.7326 13.7454 12.7778 14.375V23ZM5.1111 23H0V7.66667H5.1111V23ZM2.55555 5.11111C1.14416 5.11111 0 3.96695 0 2.55556C0 1.14416 1.14416 0 2.55555 0C3.96694 0 5.1111 1.14416 5.1111 2.55556C5.1111 3.23333 4.84186 3.88335 4.3626 4.36261C3.88334 4.84187 3.23332 5.11111 2.55555 5.11111Z" fill="#116B1D"/>
</svg>
