<svg width="151" height="24" viewBox="0 0 151 24" fill="none" xmlns="http://www.w3.org/2000/svg">
<path fill-rule="evenodd" clip-rule="evenodd" d="M1.46667 0.655691C0.339301 1.16335 0.288061 1.33257 0.851743 1.69918C1.46667 2.12222 1.62042 2.12222 2.74774 1.69918C4.54127 1.07872 7.20596 1.13514 12.0741 2.00942C14.4313 2.40424 17.301 2.74265 18.4283 2.74265C21.1443 2.74265 24.9876 1.75557 24.9876 1.05055C24.9876 0.20447 24.1164 0.119863 22.4254 0.796702C20.3756 1.64277 17.1985 1.61456 11.5104 0.655691C6.28356 -0.218564 3.31143 -0.218564 1.46667 0.655691ZM0.961195 4.31491C0.397518 3.9483 0.448758 3.77908 1.57612 3.27145C3.4209 2.39717 6.39303 2.39717 11.6199 3.27145C17.308 4.23032 20.4851 4.25853 22.5348 3.41246C24.2259 2.73561 25.097 2.82021 25.097 3.66627C25.097 4.37133 21.2537 5.35841 18.5378 5.35841C17.4104 5.35841 14.5408 5.01997 12.1836 4.62514C7.31543 3.75087 4.65073 3.69448 2.85721 4.31491C1.72983 4.73795 1.57612 4.73795 0.961195 4.31491ZM0.60249 15.1163C0.551244 10.0117 0.704976 6.31728 0.961195 6.23265C1.57612 6.00705 9.98007 6.09164 10.6463 6.31728C10.9537 6.40187 11.1587 9.89894 11.21 15.2291L11.3124 24L6.03431 23.9154L0.756222 23.8308L0.60249 15.1163ZM17.0517 6.14806L14.8482 6.23265V15.1163V23.9718H20.2289H25.6094V14.9753V6.00705L22.3811 6.03526C22.0724 6.04024 21.7428 6.04526 21.4027 6.05038L21.4019 6.05041L21.3983 6.05047L21.3981 6.05047C19.8203 6.07439 18.0205 6.10168 17.0517 6.14806ZM33.9622 22.9565C34.1159 22.5053 35.3458 18.5006 36.6781 14.0164L39.1378 5.92245H40.4701C41.7512 5.92245 41.8537 6.03526 42.4686 7.81198C42.7761 8.88366 43.4935 10.8578 44.0572 12.2679C44.4337 13.1909 45.0159 14.6927 45.5749 16.1346L45.5752 16.1354L45.5806 16.1494L45.5807 16.1496L45.5807 16.1496L45.581 16.1502L45.5821 16.1531C45.8574 16.8635 46.127 17.5587 46.3632 18.1622C47.0806 20.0235 47.4905 21.6028 47.2856 21.7438C47.0806 21.8566 46.1582 22.0258 45.287 22.1105L43.6985 22.3079L43.3397 20.7567C42.8786 18.5006 42.6736 18.3314 40.8288 18.5288C38.6253 18.7544 38.4716 18.8672 38.1129 20.3337C37.4532 23.2661 37.4468 23.267 35.2074 23.568L35.1408 23.577C33.7059 23.7744 33.6547 23.7462 33.9622 22.9565ZM48.6179 6.03526C48.4643 6.11985 48.5151 6.96592 48.6693 7.953C48.8229 8.94007 48.9252 12.3525 48.9252 15.5676C48.9252 16.0808 48.9231 16.5512 48.9205 16.9819V16.9819C48.9049 19.948 48.8992 21.0339 49.7744 21.3268C50.2799 21.4959 51.0792 21.4005 52.34 21.2499H52.3405C52.6722 21.2103 53.0361 21.1668 53.4347 21.1234C55.5872 20.8695 56.3559 20.6721 56.3559 20.3337C56.3559 20.0799 56.6632 19.2056 57.0732 18.3878C57.4319 17.5699 57.6369 16.9213 57.5341 16.9213C57.4319 16.9213 56.5604 17.2315 55.6381 17.6263C52.871 18.7826 52.3073 18.6134 52.3073 16.6392C52.3587 14.8625 52.8196 14.3831 54.1011 14.9753L54.1344 14.9897V14.9897C54.4619 15.1299 54.6633 15.2161 54.8247 15.1977C55.0816 15.1683 55.2389 14.8739 55.6453 14.1106V14.1106L55.6837 14.0385L55.7408 13.9318C56.7146 12.0705 56.6118 11.9013 54.4598 11.9577L52.5123 11.9859V10.4348V8.88366L54.1011 8.96828C55.5358 9.05288 55.7408 8.94007 55.9967 8.23502C56.1509 7.78378 56.4581 7.07872 56.6632 6.65569L56.9705 5.92245H52.9224C50.6676 5.92245 48.7202 5.97884 48.6179 6.03526ZM58.7129 9.5605C58.5079 9.4477 59.2252 7.10693 59.6866 6.26086C59.8403 6.03526 61.2241 5.92245 64.2984 5.92245C66.7068 5.92245 68.6543 5.97884 68.6543 6.03526C68.6543 6.11985 67.5269 8.62984 66.0922 11.6475C64.7084 14.6651 63.5297 17.2879 63.5297 17.4571C63.5297 17.9083 65.9381 17.5417 67.7833 16.8648C68.5515 16.5546 69.1666 16.3854 69.1666 16.47C69.1666 17.1751 67.8855 19.6287 67.4755 19.7979C67.1682 19.9107 65.3744 20.0799 63.5297 20.1645C61.685 20.2773 59.7889 20.4183 59.2766 20.5029C58.2515 20.6439 58.3029 20.3337 59.6866 17.7673C60.609 16.047 63.5297 9.19389 63.5297 8.77085C63.5297 8.34782 61.019 8.65805 59.7889 9.2503C59.328 9.47591 58.8152 9.61692 58.7129 9.5605ZM74.2911 6.54288C74.2911 7.13514 72.7023 11.1963 70.1403 17.1751C69.5766 18.4724 69.2179 19.6005 69.3716 19.6569C69.5252 19.7415 70.3967 19.7415 71.3699 19.6287C73.061 19.4595 73.1638 19.3748 73.4196 17.9929C73.8297 16.2444 74.1884 16.0188 76.3409 16.1316C77.8269 16.2162 78.0828 16.3572 78.6465 17.3443C78.9543 17.9648 79.1593 18.6416 79.0057 18.839C78.9029 19.0646 79.4666 19.1774 80.9012 19.1774C82.08 19.1774 83.0023 19.0928 83.0023 18.98C83.0023 18.8954 82.4387 17.5981 81.7213 16.1034C79.9789 12.2679 77.9805 7.58638 77.7755 6.76852C77.6733 6.20447 77.3146 6.03526 75.9822 5.97884C74.4962 5.89424 74.2911 5.97884 74.2911 6.54288ZM83.566 7.19152C82.951 6.62751 82.49 6.11985 82.49 6.03526C82.49 5.97884 83.6174 5.92245 85.0521 5.92245C87.4096 5.92245 87.6146 5.97884 87.9219 6.6839C88.5878 8.15042 91.2526 11.0834 91.6627 10.8296C91.8677 10.6886 92.8414 9.5323 93.8147 8.26323L93.8723 8.18718L93.8723 8.18711C95.5576 5.95003 95.5784 5.92245 97.4532 5.92245H99.2979L98.837 6.90953C98.5806 7.44537 98.3755 10.3502 98.4778 13.396L98.632 18.8954H96.5822H94.5325L94.6861 15.6522C94.8398 13.5934 94.6861 12.4089 94.3783 12.4089C94.0711 12.4089 93.3537 13.114 92.6873 13.96C92.0727 14.8061 91.4063 15.4548 91.2526 15.3701C91.1504 15.2855 90.3817 14.4677 89.6643 13.5088L88.2806 11.8167L87.9733 12.7756C87.8191 13.3396 87.8191 14.9753 87.9219 16.47L88.1778 19.1774H86.2308H84.2834L84.4884 13.678C84.642 8.48883 84.5911 8.12221 83.566 7.19152ZM106.319 6.17627C106.472 6.34549 106.626 9.30669 106.626 12.8038V19.1774L108.009 19.2056C108.778 19.2056 110.367 19.262 111.494 19.3466L113.646 19.5159L114.21 18.0494C114.978 16.1316 114.928 15.9906 113.902 16.2162C113.391 16.3288 112.318 16.5256 111.55 16.6666L111.545 16.6674V16.6674L110.059 16.8931L110.264 11.4219L110.418 5.92245H108.214C106.985 5.92245 106.114 6.03526 106.319 6.17627ZM112.877 8.74265L113.39 7.33254L113.902 5.92245H118.924L119.092 5.92242L119.377 5.92237H119.377C122.202 5.92154 123.435 5.92118 123.856 6.24203C124.182 6.4906 124.021 6.93198 123.735 7.71534L123.69 7.84019C123.382 8.62984 123.229 8.68626 121.845 8.54525L120.308 8.37603L120.513 14.0729C120.615 18.1339 120.513 19.7415 120.103 19.7415C119.795 19.7415 118.873 19.6569 118.053 19.5723L116.567 19.4313L116.721 13.9036L116.874 8.37603L114.876 8.57343L112.877 8.74265ZM125.432 12.8884C125.535 17.9365 125.74 19.9389 126.201 20.0799C126.559 20.1927 128.148 20.3055 129.737 20.3055C132.453 20.3055 132.76 20.2491 133.939 19.3748C135.732 18.0776 136.296 16.611 136.296 13.3396C136.296 9.95533 135.118 7.78378 132.658 6.62751C131.377 6.06346 130.557 5.92245 128.2 5.92245H125.278L125.432 12.8884ZM130.813 8.96828C133.477 10.5758 133.785 15.4548 131.274 16.9777C129.378 18.1904 129.122 17.7109 129.122 12.973C129.122 10.4912 129.327 8.46062 129.531 8.46062C129.788 8.46062 130.352 8.68626 130.813 8.96828ZM140.901 9.05385L140.902 9.04963L140.953 8.89878L140.953 8.89682L140.954 8.89405C141.37 7.64933 141.67 6.74889 141.728 6.54288C141.881 6.09164 142.291 5.92245 143.367 5.92245C144.742 5.92245 144.751 5.95025 145.955 9.45657L145.955 9.45816L145.981 9.53233C146.596 11.5065 147.928 15.2573 148.902 17.8801C149.876 20.5029 150.593 22.7027 150.49 22.7309C150.439 22.7591 149.568 22.7027 148.595 22.5899C147.211 22.4489 146.749 22.2514 146.647 21.7156C146.545 21.3208 146.288 20.3619 145.981 19.5441C145.468 18.1622 145.366 18.0494 143.624 17.8801C141.42 17.6545 141.062 17.9083 140.6 19.9671L140.293 21.4618L138.653 21.2644C137.782 21.1798 136.911 21.0388 136.757 20.9824C136.552 20.926 136.809 20.0799 137.321 19.121C137.782 18.1339 138.961 15.0599 139.832 12.2679C140.209 11.1263 140.577 10.0224 140.888 9.0912L140.9 9.0559L140.901 9.05385ZM16.9581 20.8418C16.9581 20.7594 16.9416 20.6947 16.9252 20.6947C16.9055 20.6947 16.8923 20.4418 16.8923 20.0478C16.8923 19.6538 16.9055 19.4009 16.9252 19.4009C16.9416 19.4009 16.9581 19.348 16.9581 19.2833C16.9581 19.2186 16.9713 19.1656 16.991 19.1656C17.0075 19.1656 17.024 19.1245 17.024 19.0715C17.024 18.9657 17.0996 18.8128 17.1523 18.8128C17.172 18.8128 17.1885 18.7481 17.1885 18.6658C17.1885 18.5834 17.2017 18.5187 17.2214 18.5187C17.2379 18.5187 17.2544 18.4776 17.2544 18.4246C17.2544 18.3188 17.1786 18.1658 17.126 18.1658C17.1062 18.1658 17.0898 18.107 17.0898 18.0306C17.0898 17.96 17.0601 17.86 17.024 17.813C16.9877 17.7659 16.9581 17.6836 16.9581 17.6248C16.9581 17.566 16.9416 17.5189 16.9252 17.5189C16.9055 17.5189 16.8923 17.2425 16.8923 16.8132C16.8923 16.3839 16.9055 16.1075 16.9252 16.1075C16.9416 16.1075 16.9581 16.0487 16.9581 15.9722C16.9581 15.9016 16.9877 15.8017 17.024 15.7546C17.0601 15.7076 17.0898 15.6252 17.0898 15.5664C17.0898 15.5076 17.1128 15.4606 17.1391 15.4606C17.1688 15.4606 17.1885 15.4076 17.1885 15.3135C17.1885 15.2312 17.2017 15.1665 17.2214 15.1665C17.2379 15.1665 17.2544 15.1253 17.2544 15.0724C17.2544 14.9666 17.1786 14.8136 17.126 14.8136C17.1062 14.8136 17.0898 14.7725 17.0898 14.7254C17.0898 14.6784 17.0733 14.6372 17.0569 14.6372C17.0371 14.6372 17.024 14.5843 17.024 14.5196C17.024 14.4549 17.0075 14.402 16.991 14.402C16.9713 14.402 16.9581 14.349 16.9581 14.2844C16.9581 14.2196 16.9416 14.1667 16.9252 14.1667C16.9055 14.1667 16.8923 13.8903 16.8923 13.461C16.8923 13.0317 16.9055 12.7553 16.9252 12.7553C16.9416 12.7553 16.9581 12.6964 16.9581 12.62C16.9581 12.5494 16.9877 12.4494 17.024 12.4024C17.0601 12.3554 17.0898 12.273 17.0898 12.2142C17.0898 12.1554 17.1128 12.1084 17.1391 12.1084C17.1655 12.1084 17.1885 12.0672 17.1885 12.0201C17.1885 11.9731 17.2017 11.9319 17.2214 11.9319C17.2379 11.9319 17.2544 11.879 17.2544 11.8143C17.2544 11.7496 17.2379 11.6967 17.2214 11.6967C17.2017 11.6967 17.1885 11.6437 17.1885 11.579C17.1885 11.5144 17.1655 11.4614 17.1391 11.4614C17.1128 11.4614 17.0898 11.4202 17.0898 11.3732C17.0898 11.3262 17.0733 11.285 17.0569 11.285C17.0371 11.285 17.024 11.2321 17.024 11.1674C17.024 11.1027 17.0075 11.0498 16.991 11.0498C16.9713 11.0498 16.9581 10.9968 16.9581 10.9321C16.9581 10.8674 16.9416 10.8145 16.9252 10.8145C16.9055 10.8145 16.8923 10.5381 16.8923 10.1088C16.8923 9.67945 16.9055 9.40304 16.9252 9.40304C16.9416 9.40304 16.9581 9.34423 16.9581 9.26779C16.9581 9.19721 16.9877 9.09723 17.024 9.05019C17.0601 9.00312 17.0898 8.9208 17.0898 8.86786C17.0898 8.81492 17.1128 8.75611 17.1391 8.7326C17.1655 8.71494 17.1885 8.66203 17.1885 8.60909C17.1885 8.56205 17.2017 8.52087 17.2214 8.52087C17.2379 8.52087 17.2544 8.4797 17.2544 8.43266C17.2544 8.38562 17.284 8.34445 17.3202 8.34445C17.3564 8.34445 17.386 8.31504 17.386 8.28564C17.386 8.25033 17.4123 8.22683 17.4453 8.22683C17.4782 8.22683 17.5243 8.17389 17.5506 8.10921C17.5769 8.0445 17.6329 7.99159 17.6724 7.99159C17.7152 7.99159 17.7481 7.96219 17.7481 7.93278C17.7481 7.89748 17.7777 7.87394 17.8139 7.87394C17.8501 7.87394 17.8797 7.8328 17.8797 7.78573C17.8797 7.72692 17.9126 7.69752 17.9785 7.69752C18.0311 7.69752 18.0772 7.66811 18.0772 7.63871C18.0772 7.60343 18.143 7.5799 18.2253 7.5799C18.3076 7.5799 18.3735 7.55049 18.3735 7.52109C18.3735 7.47992 19.0417 7.46228 20.3155 7.46228H21.1288C21.3882 7.13924 22.0515 6.90952 22.8288 6.90952C23.8321 6.90952 24.6455 7.29222 24.6455 7.7643C24.6455 8.23639 23.8321 8.61909 22.8288 8.61909C22.0863 8.61909 21.4479 8.4095 21.1661 8.10921H20.3484C19.0976 8.10921 18.4393 8.12685 18.4393 8.16802C18.4393 8.20329 18.3471 8.22683 18.2253 8.22683C18.1036 8.22683 18.0114 8.25033 18.0114 8.28564C18.0114 8.31504 17.9818 8.34445 17.9456 8.34445C17.9094 8.34445 17.8797 8.38562 17.8797 8.43266C17.8797 8.4797 17.8501 8.52087 17.8139 8.52087C17.7777 8.52087 17.7481 8.54441 17.7481 8.57968C17.7481 8.60909 17.725 8.63849 17.6987 8.63849C17.6724 8.63849 17.6493 8.66203 17.6493 8.6973C17.6493 8.72671 17.6197 8.75611 17.5835 8.75611C17.5407 8.75611 17.5177 8.79728 17.5177 8.86199C17.5177 8.9208 17.488 9.00312 17.4518 9.05019C17.4156 9.09723 17.386 9.1678 17.386 9.20898C17.386 9.25012 17.3695 9.28542 17.3531 9.28542C17.3333 9.28542 17.3202 9.33833 17.3202 9.40304C17.3202 9.46772 17.3037 9.52066 17.2873 9.52066C17.2675 9.52066 17.2544 9.7559 17.2544 10.1088C17.2544 10.4616 17.2675 10.6969 17.2873 10.6969C17.3037 10.6969 17.3202 10.738 17.3202 10.7851C17.3202 10.9498 17.5407 11.285 17.6493 11.285C17.702 11.285 17.7481 11.2556 17.7481 11.2262C17.7481 11.1909 17.7777 11.1674 17.8139 11.1674C17.8501 11.1674 17.8797 11.138 17.8797 11.1086C17.8797 11.0733 17.9094 11.0498 17.9456 11.0498C17.9818 11.0498 18.0114 11.0204 18.0114 10.9909C18.0114 10.9556 18.0641 10.9321 18.1266 10.9321C18.1891 10.9321 18.2418 10.9027 18.2418 10.8733C18.2418 10.838 18.3307 10.8145 18.4393 10.8145C18.5479 10.8145 18.6368 10.791 18.6368 10.7557C18.6368 10.7204 18.7421 10.6969 18.8837 10.6969C19.0812 10.6969 19.1305 10.6792 19.1305 10.6087C19.1305 10.5322 19.1997 10.5204 19.5584 10.5204C19.9172 10.5204 19.9863 10.5322 19.9863 10.6087C19.9863 10.6792 20.0324 10.6969 20.2003 10.6969C20.3221 10.6969 20.4142 10.7204 20.4142 10.7557C20.4142 10.7851 20.4866 10.8145 20.5788 10.8145C20.6677 10.8145 20.7434 10.838 20.7434 10.8733C20.7434 10.9027 20.773 10.9321 20.8092 10.9321C20.8454 10.9321 20.875 10.9556 20.875 10.9909C20.875 11.0204 20.8915 11.0498 20.908 11.0498C20.954 11.0498 21.1054 11.3203 21.1054 11.4026C21.1054 11.432 21.1186 11.4614 21.1384 11.4614C21.1581 11.4614 21.1713 11.6202 21.1713 11.8143C21.1713 12.1142 21.1581 12.1966 21.089 12.3142C21.0462 12.3965 20.9804 12.4612 20.9409 12.4612C20.9046 12.4612 20.875 12.4847 20.875 12.52C20.875 12.5494 20.8454 12.5788 20.8092 12.5788C20.773 12.5788 20.7434 12.62 20.7434 12.667C20.7434 12.7258 20.7105 12.7553 20.6446 12.7553C20.5887 12.7553 20.5459 12.7788 20.5459 12.8141C20.5459 12.8435 20.4932 12.8729 20.4307 12.8729C20.3681 12.8729 20.3155 12.8964 20.3155 12.9317C20.3155 12.967 20.1904 12.9905 20.0028 12.9905C19.8151 12.9905 19.6901 13.014 19.6901 13.0493C19.6901 13.0787 19.6144 13.1081 19.5255 13.1081C19.4333 13.1081 19.3609 13.0787 19.3609 13.0493C19.3609 13.014 19.2457 12.9905 19.0812 12.9905C18.9166 12.9905 18.8013 12.967 18.8013 12.9317C18.8013 12.8964 18.7191 12.8729 18.6203 12.8729C18.5216 12.8729 18.4393 12.8435 18.4393 12.8141C18.4393 12.7788 18.3932 12.7553 18.3405 12.7553C18.2747 12.7553 18.2418 12.7258 18.2418 12.667C18.2418 12.6082 18.2056 12.5788 18.1266 12.5788C18.0641 12.5788 18.0114 12.5494 18.0114 12.52C18.0114 12.4847 17.9653 12.4612 17.9126 12.4612C17.8567 12.4612 17.8139 12.4318 17.8139 12.4024C17.8139 12.3671 17.7777 12.3436 17.7316 12.3436C17.6855 12.3436 17.6493 12.3142 17.6493 12.2848C17.6493 12.1789 17.5473 12.226 17.4683 12.373C17.4222 12.4494 17.386 12.5612 17.386 12.62C17.386 12.6788 17.3564 12.767 17.3202 12.8141C17.2609 12.8905 17.2544 12.967 17.2544 13.4434C17.2544 13.7668 17.2675 13.9903 17.2873 13.9903C17.3037 13.9903 17.3202 14.0314 17.3202 14.0785C17.3202 14.1256 17.3333 14.1667 17.3531 14.1667C17.3695 14.1667 17.386 14.2079 17.386 14.2549C17.386 14.3079 17.4222 14.4137 17.4683 14.4902C17.5473 14.6372 17.6493 14.6842 17.6493 14.5784C17.6493 14.5431 17.6855 14.5196 17.7316 14.5196C17.7777 14.5196 17.8139 14.4902 17.8139 14.4608C17.8139 14.4255 17.8435 14.402 17.8797 14.402C17.9159 14.402 17.9456 14.3726 17.9456 14.3432C17.9456 14.3079 17.9884 14.2844 18.0443 14.2844C18.097 14.2844 18.143 14.2549 18.143 14.2255C18.143 14.1902 18.2352 14.1667 18.357 14.1667C18.5249 14.1667 18.5709 14.1491 18.5709 14.0785C18.5709 14.0079 18.617 13.9903 18.7849 13.9903C18.9067 13.9903 18.9988 13.9668 18.9988 13.9315C18.9988 13.8962 19.2062 13.8727 19.5584 13.8727C19.9106 13.8727 20.118 13.8962 20.118 13.9315C20.118 13.9609 20.2003 13.9903 20.299 13.9903C20.4372 13.9903 20.48 14.0079 20.48 14.0785C20.48 14.1432 20.5162 14.1667 20.6117 14.1667C20.6841 14.1667 20.7434 14.1902 20.7434 14.2255C20.7434 14.2549 20.773 14.2844 20.8092 14.2844C20.8454 14.2844 20.875 14.3079 20.875 14.3432C20.875 14.3726 20.9046 14.402 20.9441 14.402C21.0297 14.402 21.1054 14.5372 21.1054 14.6901C21.1054 14.7607 21.1186 14.8136 21.1384 14.8136C21.1548 14.8136 21.1713 14.9607 21.1713 15.1371C21.1713 15.3135 21.1548 15.4606 21.1384 15.4606C21.1186 15.4606 21.1054 15.5135 21.1054 15.5782C21.1054 15.6546 21.0824 15.6958 21.0396 15.6958C21.0034 15.6958 20.9738 15.7193 20.9738 15.7546C20.9738 15.784 20.9376 15.8134 20.8915 15.8134C20.8454 15.8134 20.8092 15.837 20.8092 15.8722C20.8092 15.9016 20.7796 15.931 20.7434 15.931C20.7071 15.931 20.6775 15.9722 20.6775 16.0193C20.6775 16.0781 20.6446 16.1075 20.5788 16.1075C20.5228 16.1075 20.48 16.131 20.48 16.1663C20.48 16.1957 20.4142 16.2251 20.3319 16.2251C20.2496 16.2251 20.1838 16.2486 20.1838 16.2839C20.1838 16.3192 19.9435 16.3427 19.5255 16.3427C19.1075 16.3427 18.8672 16.3192 18.8672 16.2839C18.8672 16.2486 18.7849 16.2251 18.6862 16.2251C18.5874 16.2251 18.5051 16.1957 18.5051 16.1663C18.5051 16.131 18.459 16.1075 18.4064 16.1075C18.3405 16.1075 18.3076 16.0781 18.3076 16.0193C18.3076 15.9604 18.2714 15.931 18.1924 15.931C18.1299 15.931 18.0772 15.9016 18.0772 15.8722C18.0772 15.837 18.0311 15.8134 17.9785 15.8134C17.9225 15.8134 17.8797 15.784 17.8797 15.7546C17.8797 15.7193 17.8271 15.6958 17.7645 15.6958C17.702 15.6958 17.6493 15.6664 17.6493 15.637C17.6493 15.6017 17.6263 15.5782 17.5999 15.5782C17.5243 15.5782 17.3202 15.9663 17.3202 16.1075C17.3202 16.1722 17.3037 16.2251 17.2873 16.2251C17.2675 16.2251 17.2544 16.4486 17.2544 16.7838C17.2544 17.119 17.2675 17.3425 17.2873 17.3425C17.3037 17.3425 17.3202 17.3778 17.3202 17.419C17.3202 17.4601 17.3498 17.5307 17.386 17.5778C17.4222 17.6248 17.4518 17.6954 17.4518 17.7424C17.4518 17.7836 17.4716 17.86 17.4979 17.9071C17.5539 18.0012 17.6493 18.0188 17.6493 17.9306C17.6493 17.8953 17.6855 17.8718 17.7316 17.8718C17.7777 17.8718 17.8139 17.8424 17.8139 17.813C17.8139 17.7777 17.8435 17.7542 17.8797 17.7542C17.9159 17.7542 17.9456 17.7248 17.9456 17.6954C17.9456 17.6601 17.9752 17.6366 18.0114 17.6366C18.0476 17.6366 18.0772 17.6072 18.0772 17.5778C18.0772 17.5425 18.1595 17.5189 18.2583 17.5189C18.3965 17.5189 18.4393 17.5013 18.4393 17.4307C18.4393 17.3602 18.4854 17.3425 18.6533 17.3425C18.775 17.3425 18.8672 17.319 18.8672 17.2837C18.8672 17.2484 19.1207 17.2249 19.5584 17.2249C19.9962 17.2249 20.2496 17.2484 20.2496 17.2837C20.2496 17.3131 20.3286 17.3425 20.4274 17.3425C20.5557 17.3425 20.6084 17.366 20.6249 17.4307C20.6347 17.4778 20.6808 17.5189 20.7269 17.5189C20.773 17.5189 20.8092 17.5425 20.8092 17.5778C20.8092 17.6072 20.8388 17.6366 20.875 17.6366C20.9145 17.6366 20.9935 17.7306 21.056 17.8424C21.1614 18.0306 21.1713 18.0718 21.1713 18.4011C21.1713 18.701 21.1581 18.7834 21.089 18.901C21.0462 18.9833 20.9804 19.048 20.9409 19.048C20.9046 19.048 20.875 19.0716 20.875 19.1068C20.875 19.1362 20.8454 19.1656 20.8092 19.1656C20.773 19.1656 20.7434 19.1892 20.7434 19.2244C20.7434 19.2538 20.7137 19.2833 20.6775 19.2833C20.6413 19.2833 20.6117 19.3068 20.6117 19.3421C20.6117 19.3715 20.5656 19.4009 20.513 19.4009C20.4471 19.4009 20.4142 19.4303 20.4142 19.4891C20.4142 19.5597 20.3714 19.5773 20.2332 19.5773C20.1344 19.5773 20.0521 19.6008 20.0521 19.6361C20.0521 19.6714 19.8546 19.6949 19.5255 19.6949C19.1963 19.6949 18.9988 19.6714 18.9988 19.6361C18.9988 19.6008 18.9067 19.5773 18.7849 19.5773C18.617 19.5773 18.5709 19.5597 18.5709 19.4891C18.5709 19.4303 18.538 19.4009 18.4722 19.4009C18.4163 19.4009 18.3735 19.3715 18.3735 19.3421C18.3735 19.3068 18.3208 19.2833 18.2583 19.2833C18.1957 19.2833 18.143 19.2538 18.143 19.2244C18.143 19.1892 18.097 19.1656 18.0443 19.1656C17.9884 19.1656 17.9456 19.1362 17.9456 19.1068C17.9456 19.0716 17.8995 19.048 17.8468 19.048C17.7909 19.048 17.7481 19.0186 17.7481 18.9892C17.7481 18.9539 17.702 18.9304 17.6493 18.9304C17.5308 18.9304 17.3202 19.2656 17.3202 19.4597C17.3202 19.5244 17.3037 19.5773 17.2873 19.5773C17.2675 19.5773 17.2544 19.8008 17.2544 20.136C17.2544 20.4712 17.2675 20.6947 17.2873 20.6947C17.3037 20.6947 17.3202 20.73 17.3202 20.7712C17.3202 20.8123 17.3498 20.8829 17.386 20.93C17.4222 20.977 17.4518 21.0476 17.4518 21.0888C17.4518 21.2005 17.6296 21.5181 17.6954 21.5181C17.725 21.5181 17.7481 21.5416 17.7481 21.5769C17.7481 21.6063 17.7909 21.6357 17.8468 21.6357C17.8995 21.6357 17.9456 21.6592 17.9456 21.6945C17.9456 21.7239 17.9884 21.7533 18.0443 21.7533C18.097 21.7533 18.143 21.7768 18.143 21.8121C18.143 21.8415 18.1957 21.8709 18.2583 21.8709C18.3208 21.8709 18.3735 21.8945 18.3735 21.9298C18.3735 21.9709 19.0417 21.9886 20.3155 21.9886H21.1329C21.3951 21.6682 22.0555 21.4409 22.8288 21.4409C23.8321 21.4409 24.6455 21.8236 24.6455 22.2957C24.6455 22.7677 23.8321 23.1505 22.8288 23.1505C22.0821 23.1505 21.4407 22.9385 21.1614 22.6355H20.3155C19.0417 22.6355 18.3735 22.6178 18.3735 22.5767C18.3735 22.5414 18.3208 22.5179 18.2583 22.5179C18.1957 22.5179 18.143 22.4885 18.143 22.4591C18.143 22.4238 18.0838 22.4002 18.0114 22.4002C17.939 22.4002 17.8797 22.3708 17.8797 22.3414C17.8797 22.3061 17.8271 22.2826 17.7645 22.2826C17.702 22.2826 17.6493 22.2532 17.6493 22.2238C17.6493 22.1885 17.6197 22.165 17.5835 22.165C17.5473 22.165 17.5177 22.1356 17.5177 22.1062C17.5177 22.018 17.3629 21.7533 17.3136 21.7533C17.2873 21.7533 17.2478 21.7004 17.2214 21.6357C17.1951 21.571 17.1556 21.5181 17.1325 21.5181C17.1095 21.5181 17.0898 21.4534 17.0898 21.371C17.0898 21.2887 17.0733 21.224 17.0569 21.224C17.0371 21.224 17.024 21.1711 17.024 21.1064C17.024 21.0417 17.0075 20.9888 16.991 20.9888C16.9713 20.9888 16.9581 20.9241 16.9581 20.8418ZM18.0772 14.9901C18.0772 15.0195 18.0476 15.0489 18.0114 15.0489C17.9752 15.0489 17.9456 15.0724 17.9456 15.1077C17.9456 15.1371 17.9752 15.1665 18.0114 15.1665C18.0476 15.1665 18.0772 15.19 18.0772 15.2253C18.0772 15.2547 18.1299 15.2841 18.1924 15.2841C18.2714 15.2841 18.3076 15.3135 18.3076 15.3724C18.3076 15.4312 18.3405 15.4606 18.4064 15.4606C18.459 15.4606 18.5051 15.4841 18.5051 15.5194C18.5051 15.5488 18.5709 15.5782 18.6533 15.5782C18.7355 15.5782 18.8013 15.6017 18.8013 15.637C18.8013 15.6723 19.091 15.6958 19.6078 15.6958C20.1246 15.6958 20.4142 15.6723 20.4142 15.637C20.4142 15.6017 20.457 15.5782 20.513 15.5782C20.5656 15.5782 20.6117 15.5488 20.6117 15.5194C20.6117 15.4841 20.6413 15.4606 20.6775 15.4606C20.7269 15.4606 20.7434 15.4194 20.7434 15.3135C20.7434 15.2312 20.7565 15.1665 20.7763 15.1665C20.8256 15.1665 20.8158 14.996 20.7631 14.896C20.7368 14.8489 20.6775 14.8136 20.6315 14.8136C20.5788 14.8136 20.5459 14.7784 20.5459 14.7254C20.5459 14.6607 20.5064 14.6372 20.3978 14.6372C20.3155 14.6372 20.2496 14.6078 20.2496 14.5784C20.2496 14.5431 20.0291 14.5196 19.6571 14.5196C19.2852 14.5196 19.0647 14.5431 19.0647 14.5784C19.0647 14.6137 18.9725 14.6372 18.8508 14.6372C18.6828 14.6372 18.6368 14.6548 18.6368 14.7254C18.6368 14.7842 18.6039 14.8136 18.538 14.8136C18.4821 14.8136 18.4393 14.8372 18.4393 14.8724C18.4393 14.9018 18.357 14.9313 18.2583 14.9313C18.1595 14.9313 18.0772 14.9548 18.0772 14.9901ZM18.143 11.6378C18.143 11.6673 18.097 11.6967 18.0443 11.6967C17.9884 11.6967 17.9456 11.7202 17.9456 11.7555C17.9456 11.7849 17.9752 11.8143 18.0114 11.8143C18.0476 11.8143 18.0772 11.8378 18.0772 11.8731C18.0772 11.9025 18.1134 11.9319 18.1595 11.9319C18.2122 11.9319 18.2418 11.9672 18.2418 12.0201C18.2418 12.0789 18.2747 12.1084 18.3405 12.1084C18.3932 12.1084 18.4393 12.1319 18.4393 12.1672C18.4393 12.1966 18.4985 12.226 18.5709 12.226C18.6434 12.226 18.7026 12.2495 18.7026 12.2848C18.7026 12.3201 18.7948 12.3436 18.9166 12.3436C19.0383 12.3436 19.1305 12.3671 19.1305 12.4024C19.1305 12.4377 19.3182 12.4612 19.6242 12.4612C19.9304 12.4612 20.118 12.4377 20.118 12.4024C20.118 12.3671 20.2003 12.3436 20.299 12.3436C20.3978 12.3436 20.48 12.3142 20.48 12.2848C20.48 12.2495 20.5097 12.226 20.5459 12.226C20.5821 12.226 20.6117 12.1966 20.6117 12.1672C20.6117 12.1319 20.6413 12.1084 20.6775 12.1084C20.7137 12.1084 20.7434 12.0672 20.7434 12.0201C20.7434 11.9731 20.7565 11.9319 20.7763 11.9319C20.7927 11.9319 20.8092 11.8496 20.8092 11.7555C20.8092 11.6202 20.796 11.579 20.7434 11.579C20.7071 11.579 20.6775 11.5496 20.6775 11.5202C20.6775 11.485 20.6315 11.4614 20.5788 11.4614C20.513 11.4614 20.48 11.432 20.48 11.3732C20.48 11.3085 20.4405 11.285 20.3319 11.285C20.2496 11.285 20.1838 11.2556 20.1838 11.2262C20.1838 11.1909 19.9962 11.1674 19.6901 11.1674C19.384 11.1674 19.1963 11.1909 19.1963 11.2262C19.1963 11.2615 19.1075 11.285 18.9988 11.285C18.8442 11.285 18.8013 11.3026 18.8013 11.3732C18.8013 11.4379 18.7618 11.4614 18.6533 11.4614C18.5709 11.4614 18.5051 11.485 18.5051 11.5202C18.5051 11.5496 18.4228 11.579 18.3241 11.579C18.2253 11.579 18.143 11.6026 18.143 11.6378ZM18.3076 18.2247C18.3076 18.2541 18.2418 18.2835 18.1595 18.2835C18.0344 18.2835 18.0114 18.3011 18.0114 18.4011C18.0114 18.4776 18.0344 18.5187 18.0772 18.5187C18.1134 18.5187 18.143 18.5422 18.143 18.5775C18.143 18.6069 18.1957 18.6364 18.2583 18.6364C18.3373 18.6364 18.3735 18.6658 18.3735 18.7246C18.3735 18.7834 18.4064 18.8128 18.4722 18.8128C18.5249 18.8128 18.5709 18.8363 18.5709 18.8716C18.5709 18.901 18.6533 18.9304 18.752 18.9304C18.8508 18.9304 18.933 18.9539 18.933 18.9892C18.933 19.0245 19.1865 19.048 19.6242 19.048C20.062 19.048 20.3155 19.0245 20.3155 18.9892C20.3155 18.9539 20.3681 18.9304 20.4307 18.9304C20.4932 18.9304 20.5459 18.901 20.5459 18.8716C20.5459 18.8363 20.5755 18.8128 20.6117 18.8128C20.6479 18.8128 20.6775 18.7775 20.6775 18.7363C20.6775 18.6952 20.7071 18.6246 20.7434 18.5775C20.7796 18.5305 20.8092 18.4599 20.8092 18.4129C20.8092 18.307 20.7269 18.1658 20.6644 18.1658C20.6347 18.1658 20.6117 18.1247 20.6117 18.0776C20.6117 18.0188 20.5788 17.9894 20.513 17.9894C20.457 17.9894 20.4142 17.96 20.4142 17.9306C20.4142 17.8953 20.1443 17.8718 19.6736 17.8718C19.2029 17.8718 18.933 17.8953 18.933 17.9306C18.933 17.96 18.8508 17.9894 18.752 17.9894C18.6138 17.9894 18.5709 18.0071 18.5709 18.0776C18.5709 18.1423 18.5348 18.1658 18.4393 18.1658C18.3669 18.1658 18.3076 18.1894 18.3076 18.2247ZM9.27232 8.8081C9.27232 8.8648 9.29241 8.90934 9.31244 8.90934C9.33653 8.90934 9.35257 9.08351 9.35257 9.35485C9.35257 9.62622 9.33653 9.80036 9.31244 9.80036C9.29241 9.80036 9.27232 9.83684 9.27232 9.88137C9.27232 9.92593 9.25628 9.96238 9.2322 9.96238C9.21216 9.96238 9.19213 9.99073 9.19213 10.0272C9.19213 10.1001 9.09984 10.2054 9.03563 10.2054C9.01155 10.2054 8.99151 10.2499 8.99151 10.3066C8.99151 10.3633 8.97548 10.4079 8.95139 10.4079C8.9313 10.4079 8.91127 10.4362 8.91127 10.4727C8.91127 10.5456 9.00356 10.6509 9.06771 10.6509C9.0918 10.6509 9.11188 10.6914 9.11188 10.744C9.11188 10.7927 9.14796 10.8615 9.19213 10.8939C9.23625 10.9263 9.27232 10.983 9.27232 11.0235C9.27232 11.064 9.29241 11.0964 9.31244 11.0964C9.33653 11.0964 9.35257 11.2868 9.35257 11.5824C9.35257 11.8781 9.33653 12.0684 9.31244 12.0684C9.29241 12.0684 9.27232 12.1089 9.27232 12.1616C9.27232 12.2102 9.23625 12.279 9.19213 12.3114C9.14796 12.3438 9.11188 12.4005 9.11188 12.4411C9.11188 12.4815 9.0838 12.5139 9.05167 12.5139C9.0156 12.5139 8.99151 12.5504 8.99151 12.6152C8.99151 12.6719 8.97548 12.7164 8.95139 12.7164C8.9313 12.7164 8.91127 12.7448 8.91127 12.7813C8.91127 12.8541 9.00356 12.9595 9.06771 12.9595C9.0918 12.9595 9.11188 12.9878 9.11188 13.0202C9.11188 13.0526 9.13192 13.0809 9.15201 13.0809C9.17604 13.0809 9.19213 13.1174 9.19213 13.162C9.19213 13.2065 9.21216 13.243 9.2322 13.243C9.25628 13.243 9.27232 13.2794 9.27232 13.324C9.27232 13.3685 9.29241 13.405 9.31244 13.405C9.33653 13.405 9.35257 13.5953 9.35257 13.891C9.35257 14.1866 9.33653 14.377 9.31244 14.377C9.29241 14.377 9.27232 14.4175 9.27232 14.4701C9.27232 14.5188 9.23625 14.5876 9.19213 14.62C9.14796 14.6524 9.11188 14.7091 9.11188 14.7496C9.11188 14.7901 9.0838 14.8225 9.05167 14.8225C9.0196 14.8225 8.99151 14.8509 8.99151 14.8833C8.99151 14.9157 8.97548 14.944 8.95139 14.944C8.9313 14.944 8.91127 14.9804 8.91127 15.025C8.91127 15.0695 8.9313 15.106 8.95139 15.106C8.97548 15.106 8.99151 15.1425 8.99151 15.187C8.99151 15.2316 9.0196 15.268 9.05167 15.268C9.0838 15.268 9.11188 15.2964 9.11188 15.3288C9.11188 15.3612 9.13192 15.3895 9.15201 15.3895C9.17604 15.3895 9.19213 15.426 9.19213 15.4705C9.19213 15.5151 9.21216 15.5515 9.2322 15.5515C9.25628 15.5515 9.27232 15.588 9.27232 15.6325C9.27232 15.6771 9.29241 15.7135 9.31244 15.7135C9.33653 15.7135 9.35257 15.8958 9.35257 16.1793C9.35257 16.4628 9.33653 16.6451 9.31244 16.6451C9.29241 16.6451 9.27232 16.6855 9.27232 16.7382C9.27232 16.7868 9.23625 16.8556 9.19213 16.888C9.14796 16.9204 9.11188 16.9771 9.11188 17.0177C9.11188 17.0581 9.0838 17.0906 9.05167 17.0906C9.0156 17.0906 8.99151 17.127 8.99151 17.1918C8.99151 17.2485 8.97548 17.2931 8.95139 17.2931C8.9313 17.2931 8.91127 17.3214 8.91127 17.3579C8.91127 17.4308 9.00356 17.5361 9.06771 17.5361C9.0918 17.5361 9.11188 17.5644 9.11188 17.5968C9.11188 17.6292 9.13192 17.6576 9.15201 17.6576C9.17604 17.6576 9.19213 17.694 9.19213 17.7386C9.19213 17.7831 9.21216 17.8196 9.2322 17.8196C9.25628 17.8196 9.27232 17.856 9.27232 17.9006C9.27232 17.9451 9.29241 17.9816 9.31244 17.9816C9.33653 17.9816 9.35257 18.1719 9.35257 18.4676C9.35257 18.7632 9.33653 18.9536 9.31244 18.9536C9.29241 18.9536 9.27232 18.9941 9.27232 19.0468C9.27232 19.0954 9.23625 19.1642 9.19213 19.1966C9.14796 19.229 9.11188 19.2857 9.11188 19.3262C9.11188 19.3667 9.0838 19.3991 9.05167 19.3991C9.0196 19.3991 8.99151 19.4275 8.99151 19.4599C8.99151 19.4923 8.97548 19.5206 8.95139 19.5206C8.9313 19.5206 8.91127 19.5571 8.91127 19.6016C8.91127 19.6462 8.9313 19.6826 8.95139 19.6826C8.97548 19.6826 8.99151 19.7191 8.99151 19.7636C8.99151 19.8082 9.0196 19.8446 9.05167 19.8446C9.0838 19.8446 9.11188 19.873 9.11188 19.9054C9.11188 19.9378 9.13192 19.9661 9.15201 19.9661C9.17604 19.9661 9.19213 20.0026 9.19213 20.0471C9.19213 20.0917 9.21216 20.1281 9.2322 20.1281C9.25628 20.1281 9.27232 20.1646 9.27232 20.2091C9.27232 20.2537 9.29241 20.2901 9.31244 20.2901C9.33653 20.2901 9.35257 20.4805 9.35257 20.7762C9.35257 21.0718 9.33653 21.2622 9.31244 21.2622C9.29241 21.2622 9.27232 21.3027 9.27232 21.3553C9.27232 21.4039 9.23625 21.4728 9.19213 21.5052C9.14796 21.5376 9.11188 21.5943 9.11188 21.6307C9.11188 21.6672 9.0838 21.7077 9.05167 21.7239C9.0196 21.736 8.99151 21.7725 8.99151 21.8089C8.99151 21.8413 8.97548 21.8697 8.95139 21.8697C8.9313 21.8697 8.91127 21.898 8.91127 21.9304C8.91127 21.9628 8.87514 21.9912 8.83102 21.9912C8.78691 21.9912 8.75078 22.0114 8.75078 22.0317C8.75078 22.056 8.7187 22.0722 8.67858 22.0722C8.63846 22.0722 8.5823 22.1086 8.55017 22.1532C8.51809 22.1977 8.44989 22.2342 8.40172 22.2342C8.34961 22.2342 8.30948 22.2544 8.30948 22.2747C8.30948 22.299 8.27336 22.3152 8.22924 22.3152C8.18512 22.3152 8.14899 22.3435 8.14899 22.3759C8.14899 22.4165 8.10887 22.4367 8.02863 22.4367C7.96442 22.4367 7.90826 22.4569 7.90826 22.4772C7.90826 22.5015 7.82801 22.5177 7.72773 22.5177C7.62745 22.5177 7.54721 22.538 7.54721 22.5582C7.54721 22.5857 6.7828 22.5979 5.32331 22.5987C5.0634 22.9212 4.40064 23.1505 3.62408 23.1505C2.62076 23.1505 1.8074 22.7677 1.8074 22.2957C1.8074 21.8236 2.62076 21.4409 3.62408 21.4409C4.52412 21.4409 5.27128 21.7488 5.41557 22.153C6.76109 22.1516 7.46696 22.1393 7.46696 22.1127C7.46696 22.0884 7.57929 22.0722 7.72773 22.0722C7.87618 22.0722 7.9885 22.056 7.9885 22.0317C7.9885 22.0114 8.02463 21.9912 8.06875 21.9912C8.11287 21.9912 8.14899 21.9628 8.14899 21.9304C8.14899 21.898 8.18512 21.8697 8.22924 21.8697C8.27336 21.8697 8.30948 21.8535 8.30948 21.8292C8.30948 21.8089 8.33756 21.7887 8.36964 21.7887C8.40172 21.7887 8.42985 21.7725 8.42985 21.7482C8.42985 21.7279 8.46593 21.7077 8.51005 21.7077C8.56221 21.7077 8.59029 21.6793 8.59029 21.6348C8.59029 21.5943 8.62642 21.5376 8.67054 21.5052C8.71465 21.4728 8.75078 21.4242 8.75078 21.3958C8.75078 21.3675 8.77087 21.3432 8.7909 21.3432C8.81499 21.3432 8.83102 21.3067 8.83102 21.2622C8.83102 21.2176 8.85106 21.1812 8.87115 21.1812C8.89523 21.1812 8.91127 21.0192 8.91127 20.7762C8.91127 20.5331 8.89523 20.3712 8.87115 20.3712C8.85106 20.3712 8.83102 20.3428 8.83102 20.3104C8.83102 20.197 8.56221 19.9661 8.42985 19.9661C8.36564 19.9661 8.30948 19.9864 8.30948 20.0066C8.30948 20.0309 8.27336 20.0471 8.22924 20.0471C8.18512 20.0471 8.14899 20.0674 8.14899 20.0877C8.14899 20.1119 8.11287 20.1281 8.06875 20.1281C8.02463 20.1281 7.9885 20.1484 7.9885 20.1686C7.9885 20.1929 7.9243 20.2091 7.8481 20.2091C7.77185 20.2091 7.70765 20.2294 7.70765 20.2496C7.70765 20.2739 7.59937 20.2901 7.46696 20.2901C7.33455 20.2901 7.22623 20.3063 7.22623 20.3306C7.22623 20.3549 7.09787 20.3712 6.92533 20.3712C6.6846 20.3712 6.62444 20.3833 6.62444 20.4319C6.62444 20.4846 6.5402 20.4926 6.1029 20.4926C5.66555 20.4926 5.58131 20.4846 5.58131 20.4319C5.58131 20.3833 5.52515 20.3712 5.32054 20.3712C5.17209 20.3712 5.05977 20.3549 5.05977 20.3306C5.05977 20.3104 4.97148 20.2901 4.85916 20.2901C4.75083 20.2901 4.6586 20.2739 4.6586 20.2496C4.6586 20.2294 4.62247 20.2091 4.57835 20.2091C4.53418 20.2091 4.4981 20.1929 4.4981 20.1686C4.4981 20.1484 4.47802 20.1281 4.45798 20.1281C4.40182 20.1281 4.21725 19.9418 4.21725 19.8851C4.21725 19.8649 4.20121 19.8446 4.17712 19.8446C4.15304 19.8446 4.137 19.7353 4.137 19.6016C4.137 19.3951 4.15304 19.3384 4.23733 19.2574C4.28945 19.2007 4.36969 19.1561 4.41786 19.1561C4.46198 19.1561 4.4981 19.1399 4.4981 19.1156C4.4981 19.0954 4.53418 19.0751 4.57835 19.0751C4.62247 19.0751 4.6586 19.0467 4.6586 19.0144C4.6586 18.9739 4.69867 18.9536 4.77891 18.9536C4.84711 18.9536 4.89928 18.9374 4.89928 18.9131C4.89928 18.8929 4.96348 18.8726 5.03973 18.8726C5.11593 18.8726 5.18014 18.8564 5.18014 18.8321C5.18014 18.8078 5.33258 18.7916 5.56127 18.7916C5.78997 18.7916 5.94241 18.7754 5.94241 18.7511C5.94241 18.7309 6.0347 18.7106 6.14302 18.7106C6.25535 18.7106 6.34358 18.7309 6.34358 18.7511C6.34358 18.7754 6.48404 18.7916 6.6846 18.7916C6.88521 18.7916 7.02562 18.8078 7.02562 18.8321C7.02562 18.8564 7.12595 18.8726 7.24632 18.8726C7.36663 18.8726 7.46696 18.8929 7.46696 18.9131C7.46696 18.9374 7.52312 18.9536 7.58733 18.9536C7.66758 18.9536 7.70765 18.9739 7.70765 19.0144C7.70765 19.0549 7.75182 19.0751 7.8481 19.0751C7.9243 19.0751 7.9885 19.0954 7.9885 19.1156C7.9885 19.1399 8.04466 19.1561 8.10887 19.1561C8.17707 19.1561 8.22924 19.1764 8.22924 19.1966C8.22924 19.2209 8.27336 19.2371 8.32952 19.2371C8.38568 19.2371 8.42985 19.2574 8.42985 19.2776C8.42985 19.3505 8.55422 19.3181 8.6505 19.2169C8.70666 19.1642 8.75078 19.0873 8.75078 19.0468C8.75078 19.0063 8.78691 18.9455 8.83102 18.9131C8.90322 18.8605 8.91127 18.8078 8.91127 18.4797C8.91127 18.257 8.89523 18.1031 8.87115 18.1031C8.85106 18.1031 8.83102 18.0747 8.83102 18.0423C8.83102 18.0099 8.81499 17.9816 8.7909 17.9816C8.77087 17.9816 8.75078 17.9532 8.75078 17.9208C8.75078 17.8844 8.70666 17.8115 8.6505 17.7588C8.55422 17.6576 8.42985 17.6252 8.42985 17.6981C8.42985 17.7224 8.38568 17.7386 8.32952 17.7386C8.27336 17.7386 8.22924 17.7588 8.22924 17.7791C8.22924 17.8034 8.19311 17.8196 8.14899 17.8196C8.10487 17.8196 8.06875 17.8398 8.06875 17.8601C8.06875 17.8844 8.01658 17.9006 7.94838 17.9006C7.88418 17.9006 7.82801 17.9208 7.82801 17.9411C7.82801 17.9654 7.71569 17.9816 7.56724 17.9816C7.36263 17.9816 7.30647 17.9937 7.30647 18.0423C7.30647 18.0909 7.25031 18.1031 7.0457 18.1031C6.89725 18.1031 6.78493 18.1193 6.78493 18.1436C6.78493 18.1679 6.53216 18.1841 6.1029 18.1841C5.6736 18.1841 5.42082 18.1679 5.42082 18.1436C5.42082 18.1233 5.32054 18.1031 5.20017 18.1031C5.03169 18.1031 4.97952 18.0909 4.97952 18.0423C4.97952 17.9978 4.9354 17.9816 4.81903 17.9816C4.73079 17.9816 4.6586 17.9654 4.6586 17.9411C4.6586 17.9208 4.62247 17.9006 4.57835 17.9006C4.53418 17.9006 4.4981 17.8844 4.4981 17.8601C4.4981 17.8398 4.46198 17.8196 4.41386 17.8196C4.30953 17.8196 4.21725 17.7264 4.21725 17.6211C4.21725 17.5725 4.20121 17.5361 4.17712 17.5361C4.15709 17.5361 4.137 17.4348 4.137 17.3133C4.137 17.1918 4.15709 17.0906 4.17712 17.0906C4.20121 17.0906 4.21725 17.0541 4.21725 17.0096C4.21725 16.9569 4.24533 16.9286 4.29749 16.9286C4.34161 16.9286 4.37774 16.9124 4.37774 16.888C4.37774 16.8678 4.42186 16.8476 4.47802 16.8476C4.53418 16.8476 4.57835 16.8313 4.57835 16.807C4.57835 16.7868 4.61442 16.7666 4.6586 16.7666C4.70271 16.7666 4.73879 16.7382 4.73879 16.7058C4.73879 16.6653 4.77891 16.6451 4.85916 16.6451C4.92736 16.6451 4.97952 16.6288 4.97952 16.6045C4.97952 16.5843 5.05977 16.5641 5.16005 16.5641C5.26038 16.5641 5.34063 16.5478 5.34063 16.5235C5.34063 16.4992 5.63347 16.483 6.14302 16.483C6.65252 16.483 6.94537 16.4992 6.94537 16.5235C6.94537 16.5478 7.0457 16.5641 7.16607 16.5641C7.28644 16.5641 7.38672 16.5843 7.38672 16.6045C7.38672 16.6288 7.44288 16.6451 7.50709 16.6451C7.58733 16.6451 7.62745 16.6653 7.62745 16.7058C7.62745 16.7463 7.67157 16.7666 7.76786 16.7666C7.84405 16.7666 7.90826 16.7868 7.90826 16.807C7.90826 16.8313 7.96442 16.8476 8.02863 16.8476C8.09683 16.8476 8.14899 16.8678 8.14899 16.888C8.14899 16.9124 8.2132 16.9286 8.2894 16.9286C8.36565 16.9286 8.42985 16.9488 8.42985 16.9691C8.42985 16.9934 8.45793 17.0096 8.49001 17.0096C8.5823 17.0096 8.83102 16.7422 8.83102 16.6451C8.83102 16.6005 8.85106 16.5641 8.87115 16.5641C8.89523 16.5641 8.91127 16.4101 8.91127 16.1793C8.91127 15.9484 8.89523 15.7945 8.87115 15.7945C8.85106 15.7945 8.83102 15.7662 8.83102 15.7338C8.83102 15.6204 8.56221 15.3895 8.42985 15.3895C8.36564 15.3895 8.30948 15.4098 8.30948 15.43C8.30948 15.4543 8.27336 15.4705 8.22924 15.4705C8.18512 15.4705 8.14899 15.4908 8.14899 15.511C8.14899 15.5353 8.11287 15.5515 8.06875 15.5515C8.02463 15.5515 7.9885 15.5718 7.9885 15.592C7.9885 15.6163 7.9243 15.6325 7.8481 15.6325C7.77185 15.6325 7.70765 15.6528 7.70765 15.673C7.70765 15.6973 7.59937 15.7135 7.46696 15.7135C7.33455 15.7135 7.22623 15.7297 7.22623 15.754C7.22623 15.7783 7.09787 15.7945 6.92533 15.7945C6.6846 15.7945 6.62444 15.8067 6.62444 15.8553C6.62444 15.9079 6.5402 15.916 6.1029 15.916C5.66555 15.916 5.58131 15.9079 5.58131 15.8553C5.58131 15.8067 5.52515 15.7945 5.32054 15.7945C5.17209 15.7945 5.05977 15.7783 5.05977 15.754C5.05977 15.7338 4.97148 15.7135 4.85916 15.7135C4.75083 15.7135 4.6586 15.6973 4.6586 15.673C4.6586 15.6528 4.62247 15.6325 4.57835 15.6325C4.53418 15.6325 4.4981 15.6163 4.4981 15.592C4.4981 15.5718 4.47802 15.5515 4.45798 15.5515C4.40182 15.5515 4.21725 15.3652 4.21725 15.3085C4.21725 15.2883 4.20121 15.268 4.17712 15.268C4.15304 15.268 4.137 15.1587 4.137 15.025C4.137 14.8184 4.15304 14.7617 4.23733 14.6807C4.28945 14.624 4.36969 14.5795 4.41786 14.5795C4.46198 14.5795 4.4981 14.5633 4.4981 14.539C4.4981 14.5188 4.53418 14.4985 4.57835 14.4985C4.62247 14.4985 4.6586 14.4701 4.6586 14.4377C4.6586 14.3972 4.69867 14.377 4.77891 14.377C4.84711 14.377 4.89928 14.3608 4.89928 14.3365C4.89928 14.3162 4.96348 14.296 5.03973 14.296C5.11593 14.296 5.18014 14.2798 5.18014 14.2555C5.18014 14.2312 5.33258 14.215 5.56127 14.215C5.78997 14.215 5.94241 14.1988 5.94241 14.1745C5.94241 14.1542 6.0347 14.134 6.14302 14.134C6.25535 14.134 6.34358 14.1542 6.34358 14.1745C6.34358 14.1988 6.48404 14.215 6.6846 14.215C6.88521 14.215 7.02562 14.2312 7.02562 14.2555C7.02562 14.2798 7.12595 14.296 7.24632 14.296C7.36663 14.296 7.46696 14.3162 7.46696 14.3365C7.46696 14.3608 7.52312 14.377 7.58733 14.377C7.66758 14.377 7.70765 14.3972 7.70765 14.4377C7.70765 14.4782 7.75182 14.4985 7.8481 14.4985C7.9243 14.4985 7.9885 14.5188 7.9885 14.539C7.9885 14.5633 8.04466 14.5795 8.10887 14.5795C8.17707 14.5795 8.22924 14.5998 8.22924 14.62C8.22924 14.6443 8.27336 14.6605 8.32952 14.6605C8.38568 14.6605 8.42985 14.6807 8.42985 14.701C8.42985 14.7739 8.55422 14.7415 8.6505 14.6402C8.70666 14.5876 8.75078 14.5106 8.75078 14.4701C8.75078 14.4297 8.78691 14.3689 8.83102 14.3365C8.90322 14.2838 8.91127 14.2312 8.91127 13.9031C8.91127 13.6804 8.89523 13.5265 8.87115 13.5265C8.85106 13.5265 8.83102 13.4981 8.83102 13.4657C8.83102 13.4333 8.81499 13.405 8.7909 13.405C8.77087 13.405 8.75078 13.3766 8.75078 13.3442C8.75078 13.3077 8.70666 13.2349 8.6505 13.1822C8.55422 13.0809 8.42985 13.0485 8.42985 13.1215C8.42985 13.1458 8.38568 13.162 8.32952 13.162C8.27336 13.162 8.22924 13.1822 8.22924 13.2025C8.22924 13.2268 8.19311 13.243 8.14899 13.243C8.10487 13.243 8.06875 13.2632 8.06875 13.2835C8.06875 13.3077 8.01658 13.324 7.94838 13.324C7.88418 13.324 7.82801 13.3442 7.82801 13.3644C7.82801 13.3888 7.71569 13.405 7.56724 13.405C7.36263 13.405 7.30647 13.4171 7.30647 13.4657C7.30647 13.5143 7.25031 13.5265 7.0457 13.5265C6.89725 13.5265 6.78493 13.5427 6.78493 13.567C6.78493 13.5913 6.53216 13.6075 6.1029 13.6075C5.6736 13.6075 5.42082 13.5913 5.42082 13.567C5.42082 13.5467 5.32054 13.5265 5.20017 13.5265C5.03169 13.5265 4.97952 13.5143 4.97952 13.4657C4.97952 13.4212 4.9354 13.405 4.81903 13.405C4.73079 13.405 4.6586 13.3888 4.6586 13.3644C4.6586 13.3442 4.62247 13.324 4.57835 13.324C4.53418 13.324 4.4981 13.3077 4.4981 13.2835C4.4981 13.2632 4.46198 13.243 4.41386 13.243C4.30953 13.243 4.21725 13.1498 4.21725 13.0445C4.21725 12.9959 4.20121 12.9595 4.17712 12.9595C4.15709 12.9595 4.137 12.8582 4.137 12.7367C4.137 12.6152 4.15709 12.5139 4.17712 12.5139C4.20121 12.5139 4.21725 12.4775 4.21725 12.4329C4.21725 12.3803 4.24533 12.3519 4.29749 12.3519C4.34161 12.3519 4.37774 12.3357 4.37774 12.3114C4.37774 12.2912 4.42186 12.2709 4.47802 12.2709C4.53418 12.2709 4.57835 12.2547 4.57835 12.2304C4.57835 12.2102 4.61442 12.1899 4.6586 12.1899C4.70271 12.1899 4.73879 12.1616 4.73879 12.1292C4.73879 12.0887 4.77891 12.0684 4.85916 12.0684C4.92736 12.0684 4.97952 12.0522 4.97952 12.0279C4.97952 12.0077 5.05977 11.9874 5.16005 11.9874C5.26038 11.9874 5.34063 11.9712 5.34063 11.9469C5.34063 11.9226 5.63347 11.9064 6.14302 11.9064C6.65252 11.9064 6.94537 11.9226 6.94537 11.9469C6.94537 11.9712 7.0457 11.9874 7.16607 11.9874C7.28644 11.9874 7.38672 12.0077 7.38672 12.0279C7.38672 12.0522 7.44288 12.0684 7.50709 12.0684C7.58733 12.0684 7.62745 12.0887 7.62745 12.1292C7.62745 12.1697 7.67157 12.1899 7.76786 12.1899C7.84405 12.1899 7.90826 12.2102 7.90826 12.2304C7.90826 12.2547 7.96442 12.2709 8.02863 12.2709C8.09683 12.2709 8.14899 12.2912 8.14899 12.3114C8.14899 12.3357 8.2132 12.3519 8.2894 12.3519C8.36565 12.3519 8.42985 12.3722 8.42985 12.3924C8.42985 12.4167 8.45793 12.4329 8.49001 12.4329C8.5823 12.4329 8.83102 12.1656 8.83102 12.0684C8.83102 12.0239 8.85106 11.9874 8.87115 11.9874C8.89523 11.9874 8.91127 11.8335 8.91127 11.6027C8.91127 11.3718 8.89523 11.2179 8.87115 11.2179C8.85106 11.2179 8.83102 11.1936 8.83102 11.1653C8.83102 11.1369 8.7949 11.0883 8.75078 11.0559C8.70666 11.0235 8.67054 10.9749 8.67054 10.9425C8.67054 10.9142 8.64645 10.8615 8.61437 10.8291C8.54617 10.7643 8.42985 10.7521 8.42985 10.8129C8.42985 10.8372 8.38568 10.8534 8.32952 10.8534C8.27336 10.8534 8.22924 10.8737 8.22924 10.8939C8.22924 10.9182 8.19311 10.9344 8.14899 10.9344C8.10487 10.9344 8.06875 10.9546 8.06875 10.9749C8.06875 10.9992 8.03262 11.0154 7.9885 11.0154C7.94438 11.0154 7.90826 11.0356 7.90826 11.0559C7.90826 11.0802 7.80798 11.0964 7.68761 11.0964C7.51913 11.0964 7.46696 11.1086 7.46696 11.1572C7.46696 11.2057 7.4108 11.2179 7.20619 11.2179C7.05774 11.2179 6.94537 11.2341 6.94537 11.2584C6.94537 11.2827 6.63648 11.2989 6.1029 11.2989C5.56927 11.2989 5.26038 11.2827 5.26038 11.2584C5.26038 11.2382 5.1641 11.2179 5.04373 11.2179C4.88724 11.2179 4.82308 11.2017 4.80299 11.1572C4.79095 11.1248 4.73479 11.0964 4.67863 11.0964C4.62247 11.0964 4.57835 11.0802 4.57835 11.0559C4.57835 11.0356 4.54222 11.0154 4.4981 11.0154C4.44994 11.0154 4.35365 10.9506 4.27746 10.8737C4.14904 10.744 4.137 10.7157 4.137 10.4889C4.137 10.2823 4.15304 10.2256 4.23733 10.1446C4.28945 10.0879 4.36969 10.0434 4.41786 10.0434C4.46198 10.0434 4.4981 10.0272 4.4981 10.0029C4.4981 9.98263 4.53418 9.96238 4.57835 9.96238C4.62247 9.96238 4.6586 9.94616 4.6586 9.92189C4.6586 9.90163 4.69467 9.88137 4.73879 9.88137C4.78296 9.88137 4.81903 9.86519 4.81903 9.84088C4.81903 9.82062 4.87519 9.80036 4.9394 9.80036C5.01965 9.80036 5.05977 9.78014 5.05977 9.73962C5.05977 9.69101 5.11193 9.67887 5.28042 9.67887C5.40078 9.67887 5.50106 9.66266 5.50106 9.63835C5.50106 9.61408 5.7418 9.59787 6.14302 9.59787C6.5442 9.59787 6.78493 9.61408 6.78493 9.63835C6.78493 9.66266 6.89725 9.67887 7.0457 9.67887C7.25031 9.67887 7.30647 9.69101 7.30647 9.73962C7.30647 9.78014 7.3466 9.80036 7.42684 9.80036C7.49504 9.80036 7.54721 9.82062 7.54721 9.84088C7.54721 9.86519 7.61136 9.88137 7.68761 9.88137C7.76386 9.88137 7.82801 9.90163 7.82801 9.92189C7.82801 9.94616 7.88418 9.96238 7.94838 9.96238C8.01658 9.96238 8.06875 9.98263 8.06875 10.0029C8.06875 10.0272 8.12491 10.0434 8.18912 10.0434C8.25732 10.0434 8.30948 10.0636 8.30948 10.0839C8.30948 10.1082 8.36564 10.1244 8.42985 10.1244C8.57425 10.1244 8.83102 9.89354 8.83102 9.75988C8.83102 9.71531 8.85106 9.67887 8.87115 9.67887C8.89523 9.67887 8.91127 9.52495 8.91127 9.2941C8.91127 9.06326 8.89523 8.90934 8.87115 8.90934C8.85106 8.90934 8.83102 8.88506 8.83102 8.85671C8.83102 8.82836 8.7949 8.77975 8.75078 8.74736C8.70666 8.71493 8.67054 8.66635 8.67054 8.638C8.67054 8.56104 8.45388 8.34233 8.37364 8.34233C8.33756 8.34233 8.30948 8.32615 8.30948 8.30184C8.30948 8.28158 8.25732 8.26132 8.18912 8.26132C8.12491 8.26132 8.06875 8.24514 8.06875 8.22084C8.06875 8.20058 8.01658 8.18032 7.94838 8.18032C7.88418 8.18032 7.82801 8.16413 7.82801 8.13983C7.82801 8.11957 7.76386 8.09931 7.68761 8.09931C7.61136 8.09931 7.54721 8.08313 7.54721 8.05883C7.54721 8.03158 6.79531 8.01931 5.35914 8.01839C5.12919 8.3664 4.43935 8.61909 3.62408 8.61909C2.62076 8.61909 1.8074 8.23639 1.8074 7.7643C1.8074 7.29222 2.62076 6.90952 3.62408 6.90952C4.48755 6.90952 5.21032 7.19297 5.39503 7.5729C6.80783 7.57401 7.54721 7.5863 7.54721 7.61331C7.54721 7.63762 7.61136 7.65383 7.68761 7.65383C7.76386 7.65383 7.82801 7.67406 7.82801 7.69432C7.82801 7.71862 7.90027 7.73481 7.9885 7.73481C8.07679 7.73481 8.14899 7.75506 8.14899 7.77532C8.14899 7.79963 8.2132 7.81581 8.2894 7.81581C8.36565 7.81581 8.42985 7.83607 8.42985 7.85633C8.42985 7.88063 8.46593 7.89682 8.51005 7.89682C8.55422 7.89682 8.59029 7.91707 8.59029 7.93733C8.59029 7.99808 8.77886 8.18032 8.83907 8.18032C8.87115 8.18032 8.91926 8.21679 8.95139 8.26132C8.98347 8.30589 9.03164 8.34233 9.05972 8.34233C9.0878 8.34233 9.11188 8.38689 9.11188 8.44359C9.11188 8.50029 9.13192 8.54483 9.15201 8.54483C9.17604 8.54483 9.19213 8.5813 9.19213 8.62583C9.19213 8.6704 9.21216 8.70684 9.2322 8.70684C9.25628 8.70684 9.27232 8.7514 9.27232 8.8081ZM7.90826 12.838C7.90826 12.8177 7.94438 12.7974 7.9885 12.7974C8.03262 12.7974 8.06875 12.7813 8.06875 12.757C8.06875 12.7367 8.03262 12.7164 7.9885 12.7164C7.94438 12.7164 7.90826 12.7003 7.90826 12.6759C7.90826 12.6557 7.84405 12.6354 7.76786 12.6354C7.67157 12.6354 7.62745 12.6152 7.62745 12.5747C7.62745 12.5342 7.58733 12.5139 7.50709 12.5139C7.44288 12.5139 7.38672 12.4978 7.38672 12.4735C7.38672 12.4532 7.30647 12.4329 7.20619 12.4329C7.10586 12.4329 7.02562 12.4167 7.02562 12.3924C7.02562 12.3681 6.67256 12.3519 6.04269 12.3519C5.41283 12.3519 5.05977 12.3681 5.05977 12.3924C5.05977 12.4167 5.0076 12.4329 4.9394 12.4329C4.87519 12.4329 4.81903 12.4532 4.81903 12.4735C4.81903 12.4978 4.78296 12.5139 4.73879 12.5139C4.67863 12.5139 4.6586 12.5423 4.6586 12.6152C4.6586 12.6719 4.6425 12.7164 4.61847 12.7164C4.55826 12.7164 4.5703 12.8339 4.63451 12.9028C4.66659 12.9351 4.73879 12.9595 4.795 12.9595C4.85916 12.9595 4.89928 12.9838 4.89928 13.0202C4.89928 13.0648 4.94745 13.0809 5.0798 13.0809C5.18014 13.0809 5.26038 13.1012 5.26038 13.1215C5.26038 13.1458 5.52914 13.162 5.98253 13.162C6.43587 13.162 6.70469 13.1458 6.70469 13.1215C6.70469 13.0972 6.81701 13.0809 6.96546 13.0809C7.17007 13.0809 7.22623 13.0688 7.22623 13.0202C7.22623 12.9797 7.26635 12.9595 7.3466 12.9595C7.4148 12.9595 7.46696 12.9432 7.46696 12.919C7.46696 12.8987 7.56724 12.8784 7.68761 12.8784C7.80798 12.8784 7.90826 12.8623 7.90826 12.838ZM7.82801 15.1465C7.82801 15.1262 7.88418 15.106 7.94838 15.106C8.01658 15.106 8.06875 15.0898 8.06875 15.0655C8.06875 15.0452 8.03262 15.025 7.9885 15.025C7.94438 15.025 7.90826 15.0088 7.90826 14.9845C7.90826 14.9643 7.86414 14.944 7.80798 14.944C7.74377 14.944 7.70765 14.9197 7.70765 14.8833C7.70765 14.8427 7.66758 14.8225 7.58733 14.8225C7.52312 14.8225 7.46696 14.8063 7.46696 14.782C7.46696 14.7617 7.39471 14.7415 7.30647 14.7415C7.21824 14.7415 7.14598 14.7253 7.14598 14.701C7.14598 14.6767 7.03366 14.6605 6.88521 14.6605C6.73676 14.6605 6.62444 14.6443 6.62444 14.62C6.62444 14.5957 6.39575 14.5795 6.02266 14.5795C5.64951 14.5795 5.42082 14.5957 5.42082 14.62C5.42082 14.6443 5.32054 14.6605 5.20017 14.6605C5.0798 14.6605 4.97952 14.6807 4.97952 14.701C4.97952 14.7253 4.9434 14.7415 4.89928 14.7415C4.85516 14.7415 4.81903 14.7617 4.81903 14.782C4.81903 14.8063 4.78296 14.8225 4.73879 14.8225C4.69467 14.8225 4.6586 14.8509 4.6586 14.8833C4.6586 14.9157 4.6425 14.944 4.61847 14.944C4.59838 14.944 4.57835 15.0007 4.57835 15.0655C4.57835 15.1587 4.59439 15.187 4.6586 15.187C4.70271 15.187 4.73879 15.2073 4.73879 15.2275C4.73879 15.2518 4.795 15.268 4.85916 15.268C4.9394 15.268 4.97952 15.2883 4.97952 15.3288C4.97952 15.3733 5.02769 15.3895 5.16005 15.3895C5.26038 15.3895 5.34063 15.4098 5.34063 15.43C5.34063 15.4543 5.56927 15.4705 5.94241 15.4705C6.3155 15.4705 6.5442 15.4543 6.5442 15.43C6.5442 15.4057 6.65252 15.3895 6.78493 15.3895C6.9735 15.3895 7.02562 15.3774 7.02562 15.3288C7.02562 15.2842 7.07378 15.268 7.20619 15.268C7.30647 15.268 7.38672 15.2518 7.38672 15.2275C7.38672 15.2073 7.487 15.187 7.60737 15.187C7.72773 15.187 7.82801 15.1708 7.82801 15.1465ZM7.90826 17.4146C7.90826 17.3943 7.94438 17.3741 7.9885 17.3741C8.03262 17.3741 8.06875 17.3579 8.06875 17.3336C8.06875 17.3133 8.03262 17.2931 7.9885 17.2931C7.94438 17.2931 7.90826 17.2769 7.90826 17.2526C7.90826 17.2323 7.84405 17.2121 7.76786 17.2121C7.67157 17.2121 7.62745 17.1918 7.62745 17.1513C7.62745 17.1108 7.58733 17.0906 7.50709 17.0906C7.44288 17.0906 7.38672 17.0744 7.38672 17.0501C7.38672 17.0298 7.30647 17.0096 7.20619 17.0096C7.10586 17.0096 7.02562 16.9934 7.02562 16.9691C7.02562 16.9447 6.67256 16.9286 6.04269 16.9286C5.41283 16.9286 5.05977 16.9447 5.05977 16.9691C5.05977 16.9934 5.0076 17.0096 4.9394 17.0096C4.87519 17.0096 4.81903 17.0298 4.81903 17.0501C4.81903 17.0744 4.78296 17.0906 4.73879 17.0906C4.67863 17.0906 4.6586 17.1189 4.6586 17.1918C4.6586 17.2485 4.6425 17.2931 4.61847 17.2931C4.55826 17.2931 4.5703 17.4105 4.63451 17.4794C4.66659 17.5118 4.73879 17.5361 4.795 17.5361C4.85916 17.5361 4.89928 17.5604 4.89928 17.5968C4.89928 17.6414 4.94745 17.6576 5.0798 17.6576C5.18014 17.6576 5.26038 17.6778 5.26038 17.6981C5.26038 17.7224 5.52914 17.7386 5.98253 17.7386C6.43587 17.7386 6.70469 17.7224 6.70469 17.6981C6.70469 17.6738 6.81701 17.6576 6.96546 17.6576C7.17007 17.6576 7.22623 17.6454 7.22623 17.5968C7.22623 17.5563 7.26635 17.5361 7.3466 17.5361C7.4148 17.5361 7.46696 17.5199 7.46696 17.4956C7.46696 17.4753 7.56724 17.4551 7.68761 17.4551C7.80798 17.4551 7.90826 17.4389 7.90826 17.4146ZM7.82801 19.7231C7.82801 19.7029 7.88418 19.6826 7.94838 19.6826C8.01658 19.6826 8.06875 19.6664 8.06875 19.6421C8.06875 19.6219 8.03262 19.6016 7.9885 19.6016C7.94438 19.6016 7.90826 19.5854 7.90826 19.5611C7.90826 19.5409 7.86414 19.5206 7.80798 19.5206C7.74377 19.5206 7.70765 19.4963 7.70765 19.4599C7.70765 19.4194 7.66758 19.3991 7.58733 19.3991C7.52312 19.3991 7.46696 19.3829 7.46696 19.3586C7.46696 19.3384 7.39471 19.3181 7.30647 19.3181C7.21824 19.3181 7.14598 19.3019 7.14598 19.2776C7.14598 19.2533 7.03366 19.2371 6.88521 19.2371C6.73676 19.2371 6.62444 19.2209 6.62444 19.1966C6.62444 19.1723 6.39575 19.1561 6.02266 19.1561C5.64951 19.1561 5.42082 19.1723 5.42082 19.1966C5.42082 19.2209 5.32054 19.2371 5.20017 19.2371C5.0798 19.2371 4.97952 19.2574 4.97952 19.2776C4.97952 19.3019 4.9434 19.3181 4.89928 19.3181C4.85516 19.3181 4.81903 19.3384 4.81903 19.3586C4.81903 19.3829 4.78296 19.3991 4.73879 19.3991C4.69467 19.3991 4.6586 19.4275 4.6586 19.4599C4.6586 19.4923 4.6425 19.5206 4.61847 19.5206C4.59838 19.5206 4.57835 19.5773 4.57835 19.6421C4.57835 19.7353 4.59439 19.7636 4.6586 19.7636C4.70271 19.7636 4.73879 19.7839 4.73879 19.8041C4.73879 19.8284 4.795 19.8446 4.85916 19.8446C4.9394 19.8446 4.97952 19.8649 4.97952 19.9054C4.97952 19.9499 5.02769 19.9661 5.16005 19.9661C5.26038 19.9661 5.34063 19.9864 5.34063 20.0066C5.34063 20.0309 5.56927 20.0471 5.94241 20.0471C6.3155 20.0471 6.5442 20.0309 6.5442 20.0066C6.5442 19.9823 6.65252 19.9661 6.78493 19.9661C6.9735 19.9661 7.02562 19.954 7.02562 19.9054C7.02562 19.8608 7.07378 19.8446 7.20619 19.8446C7.30647 19.8446 7.38672 19.8284 7.38672 19.8041C7.38672 19.7839 7.487 19.7636 7.60737 19.7636C7.72773 19.7636 7.82801 19.7474 7.82801 19.7231ZM7.62745 10.6104C7.62745 10.5901 7.70765 10.5699 7.80798 10.5699C7.96042 10.5699 7.9885 10.5577 7.9885 10.4889C7.9885 10.4362 7.96042 10.4079 7.90826 10.4079C7.86414 10.4079 7.82801 10.3917 7.82801 10.3674C7.82801 10.3471 7.76386 10.3269 7.68761 10.3269C7.59133 10.3269 7.54721 10.3066 7.54721 10.2661C7.54721 10.2256 7.50709 10.2054 7.42684 10.2054C7.36263 10.2054 7.30647 10.1892 7.30647 10.1649C7.30647 10.1446 7.20619 10.1244 7.08583 10.1244C6.96546 10.1244 6.86518 10.1082 6.86518 10.0839C6.86518 10.0596 6.55624 10.0434 6.02266 10.0434C5.48907 10.0434 5.18014 10.0596 5.18014 10.0839C5.18014 10.1082 5.11593 10.1244 5.03973 10.1244C4.96348 10.1244 4.89928 10.1446 4.89928 10.1649C4.89928 10.1892 4.8632 10.2054 4.81903 10.2054C4.77491 10.2054 4.73879 10.2297 4.73879 10.258C4.73879 10.2864 4.70271 10.335 4.6586 10.3674C4.61442 10.3998 4.57835 10.4484 4.57835 10.4808C4.57835 10.5537 4.67863 10.6509 4.75488 10.6509C4.79095 10.6509 4.81903 10.6793 4.81903 10.7117C4.81903 10.7521 4.85916 10.7724 4.9394 10.7724C5.0076 10.7724 5.05977 10.7927 5.05977 10.8129C5.05977 10.8372 5.38874 10.8534 5.96245 10.8534C6.53615 10.8534 6.86518 10.8372 6.86518 10.8129C6.86518 10.7927 6.96546 10.7724 7.08583 10.7724C7.25431 10.7724 7.30647 10.7603 7.30647 10.7117C7.30647 10.6671 7.35059 10.6509 7.46696 10.6509C7.5552 10.6509 7.62745 10.6347 7.62745 10.6104ZM40.8562 12.0525L42.4295 16.3264H39.2829L40.8562 12.0525ZM77.7246 14.047L76.1514 9.77305L74.5782 14.047H77.7246ZM143.628 11.1977L145.201 15.4716H142.055L143.628 11.1977Z" fill="white"/>
</svg>
