<svg width="60" height="80" viewBox="0 0 60 80" fill="none" xmlns="http://www.w3.org/2000/svg">
<path fill-rule="evenodd" clip-rule="evenodd" d="M2.30989 2.18564C-0.383997 3.87783 -0.506438 4.44189 0.840504 5.66395C2.30989 7.07406 2.67728 7.07406 5.37107 5.66395C9.65677 3.59575 16.0242 3.7838 27.6568 6.69805C33.2895 8.01414 40.1466 9.14217 42.8405 9.14217C49.3303 9.14217 58.514 5.85191 58.514 3.50182C58.514 0.681566 56.4323 0.399544 52.3916 2.65567C47.4935 5.4759 39.9017 5.38187 26.3099 2.18564C13.82 -0.728546 6.71803 -0.728546 2.30989 2.18564ZM1.10204 14.383C-0.244886 13.161 -0.122444 12.5969 2.57144 10.9048C6.9796 7.99058 14.0816 7.99058 26.5715 10.9048C40.1633 14.1011 47.7551 14.1951 52.653 11.3749C56.6939 9.11871 58.7755 9.40069 58.7755 12.2209C58.7755 14.5711 49.5919 17.8614 43.102 17.8614C40.4081 17.8614 33.5511 16.7332 27.9184 15.4171C16.2857 12.5029 9.91834 12.3149 5.63265 14.383C2.93874 15.7932 2.57144 15.7932 1.10204 14.383ZM0.244904 50.3878C0.122451 33.3725 0.4898 21.0576 1.10204 20.7755C2.57144 20.0235 22.653 20.3055 24.2449 21.0576C24.9796 21.3396 25.4693 32.9965 25.5919 50.7638L25.8367 80L13.2245 79.718L0.612253 79.4359L0.244904 50.3878ZM39.551 20.4935L34.2857 20.7755V50.3878V79.906H47.1429H60V49.9177V20.0235L52.2858 20.1175C51.548 20.1341 50.7584 20.151 49.9458 20.168L49.9374 20.1682L49.937 20.1682L49.9364 20.1682C46.1664 20.248 41.8659 20.3389 39.551 20.4935ZM39.2486 68.9825C39.288 68.9825 39.3273 69.1981 39.3273 69.4725C39.3273 69.747 39.3588 69.9626 39.4059 69.9626C39.4452 69.9626 39.4847 70.1391 39.4847 70.3547C39.4847 70.5704 39.5161 70.7467 39.5633 70.7467C39.6026 70.7467 39.6419 70.9624 39.6419 71.2368C39.6419 71.5113 39.6891 71.727 39.7441 71.727C39.7992 71.727 39.8936 71.9034 39.9565 72.1191C40.0195 72.3347 40.1139 72.5111 40.1768 72.5111C40.2947 72.5111 40.6644 73.3933 40.6644 73.6873C40.6644 73.7853 40.7351 73.8833 40.8217 73.8833C40.9083 73.8833 40.979 73.9618 40.979 74.0794C40.979 74.1774 41.1049 74.2754 41.2543 74.2754C41.4038 74.2754 41.5295 74.3539 41.5295 74.4714C41.5295 74.5695 41.6712 74.6675 41.8442 74.6675C42.0172 74.6675 42.1587 74.7459 42.1587 74.8636C42.1587 74.9616 42.2846 75.0596 42.4341 75.0596C42.5835 75.0596 42.7094 75.138 42.7094 75.2557C42.7094 75.3928 44.306 75.4517 47.3498 75.4517H49.3712C50.0387 76.4617 51.5714 77.1682 53.3556 77.1682C55.753 77.1682 57.6966 75.8925 57.6966 74.3189C57.6966 72.7453 55.753 71.4696 53.3556 71.4696C51.5078 71.4696 49.9297 72.2273 49.3031 73.2952H47.3498C44.306 73.2952 42.7094 73.2365 42.7094 73.0992C42.7094 72.9816 42.5835 72.9032 42.4341 72.9032C42.2846 72.9032 42.1587 72.8052 42.1587 72.7072C42.1587 72.5895 42.0487 72.5111 41.9228 72.5111C41.7891 72.5111 41.6869 72.4131 41.6869 72.3151C41.6869 72.1974 41.5768 72.1191 41.4509 72.1191C41.3172 72.1191 41.215 72.021 41.215 71.923C41.215 71.8054 41.1599 71.727 41.0891 71.727C40.9318 71.727 40.507 70.6684 40.507 70.2959C40.507 70.1587 40.4363 69.9234 40.3498 69.7666C40.2633 69.6098 40.1925 69.3745 40.1925 69.2373C40.1925 69.1001 40.1532 68.9825 40.1139 68.9825C40.0666 68.9825 40.0352 68.2375 40.0352 67.1201C40.0352 66.0027 40.0666 65.2578 40.1139 65.2578C40.1532 65.2578 40.1925 65.0813 40.1925 64.8657C40.1925 64.2188 40.6958 63.1014 40.979 63.1014C41.1049 63.1014 41.215 63.1798 41.215 63.2974C41.215 63.3954 41.3172 63.4934 41.4509 63.4934C41.5768 63.4934 41.6869 63.5719 41.6869 63.6895C41.6869 63.7875 41.7891 63.8855 41.9228 63.8855C42.0487 63.8855 42.1587 63.9639 42.1587 64.0815C42.1587 64.1795 42.2846 64.2775 42.4341 64.2775C42.5835 64.2775 42.7094 64.356 42.7094 64.4737C42.7094 64.5717 42.8116 64.6697 42.9453 64.6697C43.1026 64.6697 43.1812 64.7677 43.1812 64.9638C43.1812 65.199 43.2914 65.2578 43.6925 65.2578C43.9836 65.2578 44.2037 65.3362 44.2037 65.4538C44.2037 65.5714 44.6757 65.6499 45.4622 65.6499C46.2487 65.6499 46.7206 65.5714 46.7206 65.4538C46.7206 65.3362 46.9172 65.2578 47.1533 65.2578C47.4835 65.2578 47.5859 65.199 47.5859 64.9638C47.5859 64.7677 47.6645 64.6697 47.8218 64.6697C47.9477 64.6697 48.0577 64.5717 48.0577 64.4737C48.0577 64.356 48.1285 64.2775 48.2151 64.2775C48.3015 64.2775 48.3723 64.1795 48.3723 64.0815C48.3723 63.9639 48.4432 63.8855 48.5296 63.8855C48.6162 63.8855 48.687 63.7875 48.687 63.6895C48.687 63.5719 48.7577 63.4934 48.8443 63.4934C48.9386 63.4934 49.0959 63.2778 49.1982 63.0033C49.3633 62.6113 49.3948 62.3368 49.3948 61.3371C49.3948 60.2393 49.3713 60.102 49.1195 59.4747C48.9702 59.1022 48.7814 58.7886 48.687 58.7886C48.6004 58.7886 48.5296 58.6906 48.5296 58.5926C48.5296 58.4749 48.4432 58.3965 48.333 58.3965C48.2229 58.3965 48.1127 58.2593 48.0892 58.1025C48.0499 57.8868 47.924 57.8084 47.6172 57.8084C47.3813 57.8084 47.1926 57.7104 47.1926 57.6124C47.1926 57.4947 46.5869 57.4163 45.5409 57.4163C44.4948 57.4163 43.8892 57.4947 43.8892 57.6124C43.8892 57.73 43.6689 57.8084 43.3779 57.8084C42.9768 57.8084 42.8667 57.8672 42.8667 58.1025C42.8667 58.3377 42.7644 58.3965 42.4341 58.3965C42.1982 58.3965 42.0015 58.4749 42.0015 58.5926C42.0015 58.6906 41.9306 58.7886 41.8442 58.7886C41.7576 58.7886 41.6869 58.867 41.6869 58.9846C41.6869 59.0826 41.6161 59.1807 41.5295 59.1807C41.4431 59.1807 41.3723 59.2591 41.3723 59.3767C41.3723 59.4747 41.2857 59.5727 41.1757 59.5727C41.0655 59.5727 40.979 59.6512 40.979 59.7687C40.979 60.0628 40.7509 60.004 40.6172 59.6904C40.5543 59.5335 40.507 59.2787 40.507 59.1414C40.507 58.9846 40.4363 58.7494 40.3498 58.5926C40.2633 58.4358 40.1925 58.2005 40.1925 58.0633C40.1925 57.926 40.1532 57.8084 40.1139 57.8084C40.0666 57.8084 40.0352 57.0634 40.0352 55.946C40.0352 54.8287 40.0666 54.0838 40.1139 54.0838C40.1532 54.0838 40.1925 53.9073 40.1925 53.6916C40.1925 53.2212 40.6802 51.9273 40.861 51.9273C40.9239 51.9273 40.979 52.0058 40.979 52.1233C40.979 52.2214 41.1049 52.3194 41.2543 52.3194C41.4038 52.3194 41.5295 52.3978 41.5295 52.5154C41.5295 52.6134 41.6319 52.7114 41.7656 52.7114C41.8913 52.7114 42.0015 52.7899 42.0015 52.9075C42.0015 53.0055 42.1274 53.1035 42.2768 53.1035C42.4656 53.1035 42.552 53.2015 42.552 53.3975C42.552 53.5936 42.6307 53.6916 42.7881 53.6916C42.9138 53.6916 43.024 53.77 43.024 53.8876C43.024 53.9856 43.2205 54.0838 43.4566 54.0838C43.6925 54.0838 43.8892 54.1621 43.8892 54.2798C43.8892 54.3974 44.4633 54.4758 45.4622 54.4758C46.461 54.4758 47.0353 54.3974 47.0353 54.2798C47.0353 54.1621 47.1926 54.0838 47.3892 54.0838C47.5859 54.0838 47.7431 53.9856 47.7431 53.8876C47.7431 53.77 47.8453 53.6916 47.979 53.6916C48.1364 53.6916 48.2151 53.5936 48.2151 53.3975C48.2151 53.2407 48.2858 53.1035 48.3723 53.1035C48.4589 53.1035 48.5296 53.0055 48.5296 52.9075C48.5296 52.7899 48.6162 52.7114 48.7263 52.7114C48.8364 52.7114 48.9229 52.6134 48.9229 52.5154C48.9229 52.3978 48.9937 52.3194 49.0802 52.3194C49.1825 52.3194 49.2376 52.1821 49.2376 51.9273C49.2376 51.7116 49.2689 51.5353 49.3162 51.5353C49.3555 51.5353 49.3948 51.0452 49.3948 50.457C49.3948 49.8689 49.3555 49.3788 49.3162 49.3788C49.2689 49.3788 49.2376 49.2024 49.2376 48.9672C49.2376 48.4575 49.0566 48.0066 48.8521 48.0066C48.7577 48.0066 48.687 47.9086 48.687 47.8106C48.687 47.6929 48.6162 47.6145 48.5296 47.6145C48.4432 47.6145 48.3723 47.5165 48.3723 47.4185C48.3723 47.3008 48.2308 47.2225 48.0577 47.2225C47.8296 47.2225 47.7431 47.144 47.7431 46.9283C47.7431 46.6932 47.6408 46.6343 47.3105 46.6343C47.0746 46.6343 46.8779 46.5363 46.8779 46.4383C46.8779 46.3207 46.3824 46.2422 45.5409 46.2422C44.6992 46.2422 44.2037 46.3207 44.2037 46.4383C44.2037 46.5559 43.9836 46.6343 43.6925 46.6343C43.2914 46.6343 43.1812 46.6932 43.1812 46.9283C43.1812 47.1636 43.0712 47.2225 42.67 47.2225C42.379 47.2225 42.1587 47.3008 42.1587 47.4185C42.1587 47.5165 42.0487 47.6145 41.9228 47.6145C41.7891 47.6145 41.6869 47.6929 41.6869 47.8106C41.6869 47.9086 41.6161 48.0066 41.5295 48.0066C41.4431 48.0066 41.3723 48.085 41.3723 48.2026C41.3723 48.3007 41.2857 48.3987 41.1757 48.3987C41.0655 48.3987 40.979 48.4771 40.979 48.5947C40.979 48.9475 40.7351 48.7907 40.5464 48.3007C40.4363 48.0458 40.3498 47.6929 40.3498 47.5165C40.3498 47.3596 40.3105 47.2225 40.2711 47.2225C40.2239 47.2225 40.1925 47.0852 40.1925 46.9283C40.1925 46.7715 40.1532 46.6343 40.1139 46.6343C40.0666 46.6343 40.0352 45.8894 40.0352 44.8112C40.0352 43.2233 40.0509 42.9685 40.1925 42.7136C40.279 42.5568 40.3498 42.2627 40.3498 42.0667C40.3498 41.8707 40.4363 41.4982 40.5464 41.2434C40.7351 40.7533 40.979 40.5964 40.979 40.9493C40.979 41.0473 41.0655 41.1453 41.1757 41.1453C41.2857 41.1453 41.3723 41.2237 41.3723 41.3414C41.3723 41.4394 41.4745 41.5374 41.6082 41.5374C41.7341 41.5374 41.8442 41.6158 41.8442 41.7334C41.8442 41.8314 41.9701 41.9295 42.1194 41.9295C42.3082 41.9295 42.3948 42.0275 42.3948 42.2235C42.3948 42.4195 42.4734 42.5176 42.6307 42.5176C42.7566 42.5176 42.8667 42.596 42.8667 42.7136C42.8667 42.8116 43.0633 42.9096 43.2993 42.9096C43.5352 42.9096 43.7318 42.9881 43.7318 43.1056C43.7318 43.2233 44.0071 43.3017 44.4004 43.3017C44.7936 43.3017 45.069 43.3801 45.069 43.4977C45.069 43.5957 45.242 43.6938 45.4622 43.6938C45.6746 43.6938 45.8554 43.5957 45.8554 43.4977C45.8554 43.3801 46.1543 43.3017 46.6027 43.3017C47.0509 43.3017 47.3498 43.2233 47.3498 43.1056C47.3498 42.9881 47.4757 42.9096 47.6252 42.9096C47.7746 42.9096 47.9004 42.8116 47.9004 42.7136C47.9004 42.596 48.0027 42.5176 48.1364 42.5176C48.2937 42.5176 48.3723 42.4195 48.3723 42.2235C48.3723 42.0667 48.4432 41.9295 48.5296 41.9295C48.6162 41.9295 48.687 41.8314 48.687 41.7334C48.687 41.6158 48.7577 41.5374 48.8443 41.5374C48.9386 41.5374 49.0959 41.3217 49.1982 41.0473C49.3633 40.6553 49.3948 40.3808 49.3948 39.381C49.3948 38.7341 49.3633 38.2048 49.3162 38.2048C49.2689 38.2048 49.2376 38.1068 49.2376 38.0088C49.2376 37.7343 48.8758 36.8326 48.7656 36.8326C48.7263 36.8326 48.687 36.7345 48.687 36.6364C48.687 36.5189 48.6162 36.4404 48.5296 36.4404C48.4432 36.4404 48.3723 36.3424 48.3723 36.2444C48.3723 36.1268 48.1915 36.0483 47.979 36.0483C47.7589 36.0483 47.5859 35.9503 47.5859 35.8523C47.5859 35.7347 47.3656 35.6563 47.0746 35.6563C46.6734 35.6563 46.5634 35.5975 46.5634 35.3622C46.5634 35.1074 46.3982 35.0682 45.5409 35.0682C44.6836 35.0682 44.5184 35.1074 44.5184 35.3622C44.5184 35.5975 44.4004 35.6563 43.9285 35.6563C43.5903 35.6563 43.3386 35.7347 43.3386 35.8523C43.3386 35.97 43.1262 36.0483 42.8667 36.0483C42.6071 36.0483 42.3948 36.1268 42.3948 36.2444C42.3948 36.3424 42.2689 36.4404 42.1194 36.4404C41.9701 36.4404 41.8442 36.5189 41.8442 36.6364C41.8442 36.7345 41.7734 36.8326 41.6869 36.8326C41.6004 36.8326 41.5295 36.9109 41.5295 37.0286C41.5295 37.1266 41.4588 37.2246 41.3723 37.2246C41.2857 37.2246 41.215 37.303 41.215 37.4207C41.215 37.5187 41.1049 37.6167 40.979 37.6167C40.7195 37.6167 40.1925 36.4993 40.1925 35.9503C40.1925 35.7935 40.1532 35.6563 40.1139 35.6563C40.0666 35.6563 40.0352 34.8722 40.0352 33.696C40.0352 32.5197 40.0666 31.7356 40.1139 31.7356C40.1532 31.7356 40.1925 31.5591 40.1925 31.3435C40.1925 31.1278 40.2239 30.9515 40.2711 30.9515C40.3105 30.9515 40.3498 30.8338 40.3498 30.6966C40.3498 30.5594 40.4206 30.3241 40.507 30.1673C40.5936 30.0104 40.6644 29.736 40.6644 29.54C40.6644 29.3243 40.7195 29.1871 40.8217 29.1871C40.9083 29.1871 40.979 29.0891 40.979 28.991C40.979 28.8735 41.034 28.795 41.097 28.795C41.1599 28.795 41.215 28.697 41.215 28.599C41.215 28.4814 41.2857 28.403 41.3723 28.403C41.4588 28.403 41.5295 28.2657 41.5295 28.1089C41.5295 27.9521 41.6004 27.8149 41.6869 27.8149C41.7734 27.8149 41.8442 27.7168 41.8442 27.6188C41.8442 27.5012 42.0645 27.4228 42.3554 27.4228C42.6464 27.4228 42.8667 27.3443 42.8667 27.2268C42.8667 27.0895 44.4398 27.0307 47.4285 27.0307H49.3825C50.0559 28.0317 51.5814 28.7302 53.3556 28.7302C55.753 28.7302 57.6966 27.4546 57.6966 25.881C57.6966 24.3073 55.753 23.0317 53.3556 23.0317C51.498 23.0317 49.913 23.7975 49.2933 24.8743H47.3498C44.306 24.8743 42.7094 24.9331 42.7094 25.0703C42.7094 25.1684 42.552 25.2664 42.3554 25.2664C42.1587 25.2664 42.0015 25.3448 42.0015 25.4624C42.0015 25.5604 41.8913 25.6584 41.7656 25.6584C41.6082 25.6584 41.5295 25.7564 41.5295 25.9525C41.5295 26.1094 41.4588 26.2465 41.3723 26.2465C41.2857 26.2465 41.215 26.325 41.215 26.4426C41.215 26.5407 41.1364 26.6387 41.034 26.6387C40.9397 26.6387 40.806 26.815 40.7431 27.0307C40.6802 27.2463 40.57 27.4228 40.4914 27.4228C40.4127 27.4228 40.3498 27.5012 40.3498 27.6188C40.3498 27.7168 40.279 27.8149 40.1925 27.8149C40.1059 27.8149 40.0352 27.9521 40.0352 28.1089C40.0352 28.2657 39.9958 28.403 39.9565 28.403C39.9094 28.403 39.8778 28.5402 39.8778 28.697C39.8778 28.8735 39.8228 29.0498 39.7599 29.1087C39.697 29.1871 39.6419 29.3831 39.6419 29.5596C39.6419 29.736 39.5711 30.0104 39.4847 30.1673C39.3981 30.3241 39.3273 30.6574 39.3273 30.8927C39.3273 31.1475 39.288 31.3435 39.2486 31.3435C39.2015 31.3435 39.17 32.2649 39.17 33.696C39.17 35.127 39.2015 36.0483 39.2486 36.0483C39.288 36.0483 39.3273 36.2248 39.3273 36.4404C39.3273 36.6561 39.3588 36.8326 39.4059 36.8326C39.4452 36.8326 39.4847 37.0089 39.4847 37.2246C39.4847 37.4402 39.5161 37.6167 39.5633 37.6167C39.6026 37.6167 39.6419 37.7539 39.6419 37.9107C39.6419 38.0675 39.697 38.2048 39.7599 38.2048C39.8228 38.2048 39.8778 38.3812 39.8778 38.5968C39.8778 38.8125 39.9094 38.9889 39.9565 38.9889C39.9958 38.9889 40.0352 39.1654 40.0352 39.381C40.0352 39.5967 39.9958 39.773 39.9565 39.773C39.9094 39.773 39.8778 39.9103 39.8778 40.0671C39.8778 40.224 39.8228 40.3612 39.7599 40.3612C39.697 40.3612 39.6419 40.518 39.6419 40.7141C39.6419 40.9101 39.5711 41.1846 39.4847 41.3414C39.3981 41.4982 39.3273 41.8314 39.3273 42.0667C39.3273 42.3215 39.288 42.5176 39.2486 42.5176C39.2015 42.5176 39.17 43.4389 39.17 44.87C39.17 46.301 39.2015 47.2225 39.2486 47.2225C39.288 47.2225 39.3273 47.3989 39.3273 47.6145C39.3273 47.8301 39.3588 48.0066 39.4059 48.0066C39.4452 48.0066 39.4847 48.183 39.4847 48.3987C39.4847 48.6143 39.5161 48.7907 39.5633 48.7907C39.6026 48.7907 39.6419 48.928 39.6419 49.0848C39.6419 49.2416 39.6813 49.3788 39.7284 49.3788C39.8543 49.3788 40.0352 49.8886 40.0352 50.2414C40.0352 50.4179 39.9958 50.5551 39.9565 50.5551C39.9094 50.5551 39.8778 50.7707 39.8778 51.0452C39.8778 51.3588 39.8307 51.5353 39.7599 51.5353C39.697 51.5353 39.6419 51.6921 39.6419 51.8881C39.6419 52.0841 39.5711 52.3586 39.4847 52.5154C39.3981 52.6722 39.3273 53.0055 39.3273 53.2407C39.3273 53.4956 39.288 53.6916 39.2486 53.6916C39.2015 53.6916 39.17 54.613 39.17 56.0441C39.17 57.4752 39.2015 58.3965 39.2486 58.3965C39.288 58.3965 39.3273 58.5533 39.3273 58.7494C39.3273 58.9454 39.3981 59.2199 39.4847 59.3767C39.5711 59.5335 39.6419 59.8668 39.6419 60.102C39.6419 60.3568 39.6813 60.5529 39.7284 60.5529C39.8543 60.5529 40.0352 61.0626 40.0352 61.4154C40.0352 61.5919 39.9958 61.7291 39.9565 61.7291C39.9094 61.7291 39.8778 61.9447 39.8778 62.2192C39.8778 62.4937 39.8385 62.7093 39.7914 62.7093C39.6655 62.7093 39.4847 63.219 39.4847 63.5719C39.4847 63.7483 39.4452 63.8855 39.4059 63.8855C39.3588 63.8855 39.3273 64.062 39.3273 64.2775C39.3273 64.4932 39.288 64.6697 39.2486 64.6697C39.2015 64.6697 39.17 65.5126 39.17 66.826C39.17 68.1395 39.2015 68.9825 39.2486 68.9825ZM41.8442 50.1629C41.9306 50.1629 42.0015 50.0649 42.0015 49.9669C42.0015 49.8493 42.1982 49.7709 42.4341 49.7709C42.67 49.7709 42.8667 49.6729 42.8667 49.5749C42.8667 49.4573 42.9689 49.3788 43.1026 49.3788C43.26 49.3788 43.3386 49.2808 43.3386 49.0848C43.3386 48.8495 43.4486 48.7907 43.8499 48.7907C44.1408 48.7907 44.3611 48.7123 44.3611 48.5947C44.3611 48.4771 44.888 48.3987 45.7768 48.3987C46.6656 48.3987 47.1926 48.4771 47.1926 48.5947C47.1926 48.6927 47.3498 48.7907 47.5466 48.7907C47.806 48.7907 47.9004 48.8692 47.9004 49.0848C47.9004 49.2612 47.979 49.3788 48.1049 49.3788C48.2151 49.3788 48.3566 49.4965 48.4196 49.6533C48.5454 49.9866 48.5689 50.5551 48.451 50.5551C48.4038 50.5551 48.3723 50.7707 48.3723 51.0452C48.3723 51.398 48.333 51.5353 48.2151 51.5353C48.1285 51.5353 48.0577 51.6136 48.0577 51.7313C48.0577 51.8293 47.9477 51.9273 47.8218 51.9273C47.6881 51.9273 47.5859 52.0058 47.5859 52.1233C47.5859 52.2409 46.8937 52.3194 45.6588 52.3194C44.424 52.3194 43.7318 52.2409 43.7318 52.1233C43.7318 52.0058 43.5745 51.9273 43.3779 51.9273C43.1812 51.9273 43.024 51.8293 43.024 51.7313C43.024 51.6136 42.9138 51.5353 42.7881 51.5353C42.6307 51.5353 42.552 51.4372 42.552 51.2412C42.552 51.0452 42.4656 50.9472 42.2768 50.9472C42.1274 50.9472 42.0015 50.8492 42.0015 50.7511C42.0015 50.6335 41.9306 50.5551 41.8442 50.5551C41.7576 50.5551 41.6869 50.457 41.6869 50.359C41.6869 50.2414 41.7576 50.1629 41.8442 50.1629ZM41.9228 38.9889C42.0487 38.9889 42.1587 38.8909 42.1587 38.7929C42.1587 38.6753 42.3554 38.5968 42.5913 38.5968C42.8274 38.5968 43.024 38.4988 43.024 38.4008C43.024 38.2832 43.1812 38.2048 43.3779 38.2048C43.6374 38.2048 43.7318 38.1263 43.7318 37.9107C43.7318 37.6755 43.8341 37.6167 44.2037 37.6167C44.4633 37.6167 44.6757 37.5382 44.6757 37.4207C44.6757 37.303 45.124 37.2246 45.8554 37.2246C46.5869 37.2246 47.0353 37.303 47.0353 37.4207C47.0353 37.5187 47.1926 37.6167 47.3892 37.6167C47.6488 37.6167 47.7431 37.695 47.7431 37.9107C47.7431 38.1068 47.8218 38.2048 47.979 38.2048C48.1049 38.2048 48.2151 38.2832 48.2151 38.4008C48.2151 38.4988 48.2858 38.5968 48.3723 38.5968C48.4982 38.5968 48.5296 38.7341 48.5296 39.1849C48.5296 39.4986 48.4903 39.773 48.451 39.773C48.4038 39.773 48.3723 39.9103 48.3723 40.0671C48.3723 40.224 48.3015 40.3612 48.2151 40.3612C48.1285 40.3612 48.0577 40.4396 48.0577 40.5572C48.0577 40.6553 47.987 40.7533 47.9004 40.7533C47.814 40.7533 47.7431 40.8316 47.7431 40.9493C47.7431 41.0473 47.5466 41.1453 47.3105 41.1453C47.0746 41.1453 46.8779 41.2237 46.8779 41.3414C46.8779 41.459 46.4297 41.5374 45.6982 41.5374C44.9668 41.5374 44.5184 41.459 44.5184 41.3414C44.5184 41.2237 44.2981 41.1453 44.0071 41.1453C43.7162 41.1453 43.4959 41.0669 43.4959 40.9493C43.4959 40.8316 43.3544 40.7533 43.1812 40.7533C43.0082 40.7533 42.8667 40.6553 42.8667 40.5572C42.8667 40.4396 42.7566 40.3612 42.6307 40.3612C42.4734 40.3612 42.3948 40.2632 42.3948 40.0671C42.3948 39.8907 42.3239 39.773 42.1982 39.773C42.088 39.773 42.0015 39.675 42.0015 39.577C42.0015 39.4594 41.9306 39.381 41.8442 39.381C41.7576 39.381 41.6869 39.283 41.6869 39.1849C41.6869 39.0674 41.7891 38.9889 41.9228 38.9889ZM42.1982 60.945C42.3948 60.945 42.552 60.8469 42.552 60.7489C42.552 60.6313 42.6937 60.5529 42.8667 60.5529C43.0948 60.5529 43.1812 60.4745 43.1812 60.2588C43.1812 60.0236 43.2836 59.9648 43.6138 59.9648C43.8499 59.9648 44.0465 59.8668 44.0465 59.7687C44.0465 59.6512 44.6914 59.5727 45.8161 59.5727C46.9409 59.5727 47.5859 59.6512 47.5859 59.7687C47.5859 59.8668 47.6881 59.9648 47.8218 59.9648C47.979 59.9648 48.0577 60.0628 48.0577 60.2588C48.0577 60.4157 48.1127 60.5529 48.1836 60.5529C48.333 60.5529 48.5296 61.0234 48.5296 61.3762C48.5296 61.5331 48.4589 61.7684 48.3723 61.9252C48.2858 62.082 48.2151 62.3172 48.2151 62.4545C48.2151 62.5917 48.1442 62.7093 48.0577 62.7093C47.9712 62.7093 47.9004 62.7878 47.9004 62.9053C47.9004 63.0033 47.7746 63.1014 47.6252 63.1014C47.4757 63.1014 47.3498 63.1798 47.3498 63.2974C47.3498 63.4151 46.7442 63.4934 45.6982 63.4934C44.6521 63.4934 44.0465 63.4151 44.0465 63.2974C44.0465 63.1798 43.8499 63.1014 43.6138 63.1014C43.3779 63.1014 43.1812 63.0033 43.1812 62.9053C43.1812 62.7878 43.0712 62.7093 42.9453 62.7093C42.7881 62.7093 42.7094 62.6113 42.7094 62.4153C42.7094 62.2192 42.6229 62.1212 42.4341 62.1212C42.2846 62.1212 42.1587 62.0232 42.1587 61.9252C42.1587 61.8075 42.088 61.7291 42.0015 61.7291C41.8993 61.7291 41.8442 61.5919 41.8442 61.3371C41.8442 61.0038 41.8993 60.945 42.1982 60.945ZM21.0577 29.6977C21.0098 29.6977 20.9618 29.5492 20.9618 29.3602C20.9618 29.1712 20.9235 29.0227 20.8659 29.0227C20.8181 29.0227 20.7702 28.9012 20.7702 28.7526C20.7702 28.6042 20.7317 28.4826 20.6743 28.4826C20.6263 28.4826 20.5784 28.3342 20.5784 28.1452C20.5784 27.9562 20.5209 27.8076 20.4538 27.8076C20.3867 27.8076 20.2716 27.6862 20.1949 27.5376C20.1182 27.3892 20.0032 27.2676 19.9265 27.2676C19.7827 27.2676 19.3321 26.6601 19.3321 26.4576C19.3321 26.3901 19.2459 26.3226 19.1403 26.3226C19.0349 26.3226 18.9487 26.2686 18.9487 26.1876C18.9487 26.1201 18.7953 26.0526 18.6131 26.0526C18.431 26.0526 18.2776 25.9986 18.2776 25.9176C18.2776 25.8501 18.1051 25.7825 17.8941 25.7825C17.6832 25.7825 17.5106 25.7286 17.5106 25.6476C17.5106 25.5801 17.3573 25.5126 17.1751 25.5126C16.9929 25.5126 16.8396 25.4586 16.8396 25.3776C16.8396 25.2875 15.0728 25.2465 11.6968 25.2429C11.2554 23.9765 9.52837 23.0317 7.46511 23.0317C5.06763 23.0317 3.1241 24.3073 3.1241 25.881C3.1241 27.4546 5.06763 28.7302 7.46511 28.7302C9.41329 28.7302 11.0617 27.8879 11.6112 26.7278C15.0429 26.7309 16.8396 26.7718 16.8396 26.8626C16.8396 26.9436 16.9929 26.9976 17.1751 26.9976C17.3573 26.9976 17.5106 27.0651 17.5106 27.1326C17.5106 27.2136 17.6448 27.2676 17.7982 27.2676C17.9612 27.2676 18.0858 27.3351 18.0858 27.4026C18.0858 27.4837 18.22 27.5376 18.3735 27.5376C18.5364 27.5376 18.6611 27.6051 18.6611 27.6727C18.6611 27.7537 18.7282 27.8076 18.8144 27.8076C19.0061 27.8076 19.5238 28.5367 19.5238 28.7932C19.5238 28.8877 19.6101 29.0496 19.7156 29.1577C19.821 29.2657 19.9073 29.4277 19.9073 29.5222C19.9073 29.6167 19.9552 29.6977 20.0032 29.6977C20.0607 29.6977 20.0991 30.2107 20.0991 30.9802C20.0991 31.7497 20.0607 32.2628 20.0032 32.2628C19.9552 32.2628 19.9073 32.3842 19.9073 32.5328C19.9073 32.9783 19.2938 33.7478 18.9487 33.7478C18.7953 33.7478 18.6611 33.6938 18.6611 33.6128C18.6611 33.5453 18.5364 33.4778 18.3735 33.4778C18.22 33.4778 18.0858 33.4238 18.0858 33.3427C18.0858 33.2753 17.9612 33.2078 17.7982 33.2078C17.6448 33.2078 17.5106 33.1537 17.5106 33.0728C17.5106 33.0053 17.3573 32.9378 17.1751 32.9378C16.9929 32.9378 16.8396 32.8838 16.8396 32.8028C16.8396 32.7353 16.7149 32.6677 16.552 32.6677C16.3602 32.6677 16.2643 32.6003 16.2643 32.4653C16.2643 32.3032 16.1301 32.2628 15.6412 32.2628C15.2865 32.2628 15.0181 32.2087 15.0181 32.1277C15.0181 32.0468 14.4429 31.9928 13.4842 31.9928C12.5255 31.9928 11.9502 32.0468 11.9502 32.1277C11.9502 32.2087 11.7106 32.2628 11.423 32.2628C11.0204 32.2628 10.8958 32.3032 10.8958 32.4653C10.8958 32.6003 10.7999 32.6677 10.6081 32.6677C10.4547 32.6677 10.3205 32.7353 10.3205 32.8028C10.3205 32.8838 10.2343 32.9378 10.1288 32.9378C10.0233 32.9378 9.93713 33.0053 9.93713 33.0728C9.93713 33.1537 9.85081 33.2078 9.74538 33.2078C9.63984 33.2078 9.55364 33.2753 9.55364 33.3427C9.55364 33.4238 9.46731 33.4778 9.36189 33.4778C9.24679 33.4778 9.05504 33.6262 8.93051 33.8153C8.72909 34.0853 8.69077 34.2743 8.69077 34.9628C8.69077 35.7189 8.71954 35.8134 9.02639 36.2454C9.20846 36.5018 9.43854 36.7179 9.55364 36.7179C9.65906 36.7179 9.74538 36.7853 9.74538 36.8529C9.74538 36.9339 9.85081 36.9879 9.98501 36.9879C10.1192 36.9879 10.2534 37.0824 10.2822 37.1904C10.3302 37.3389 10.4835 37.3929 10.8574 37.3929C11.1451 37.3929 11.3751 37.4604 11.3751 37.5279C11.3751 37.6089 12.1132 37.6629 13.3884 37.6629C14.6634 37.6629 15.4015 37.6089 15.4015 37.5279C15.4015 37.4469 15.67 37.3929 16.0247 37.3929C16.5136 37.3929 16.6478 37.3524 16.6478 37.1904C16.6478 37.0284 16.7725 36.9879 17.1751 36.9879C17.4627 36.9879 17.7023 36.9339 17.7023 36.8529C17.7023 36.7853 17.7887 36.7179 17.8941 36.7179C17.9995 36.7179 18.0858 36.6639 18.0858 36.5829C18.0858 36.5153 18.1722 36.4479 18.2776 36.4479C18.383 36.4479 18.4693 36.3939 18.4693 36.3128C18.4693 36.2454 18.5748 36.1779 18.709 36.1779C18.8432 36.1779 18.9487 36.1238 18.9487 36.0428C18.9487 35.8403 19.2267 35.8809 19.3896 36.0969C19.4663 36.2048 19.5238 36.3804 19.5238 36.4749C19.5238 36.5829 19.6101 36.7449 19.7156 36.8529C19.821 36.9609 19.9073 37.1229 19.9073 37.2174C19.9073 37.3119 19.9552 37.3929 20.0032 37.3929C20.0607 37.3929 20.0991 37.9059 20.0991 38.6755C20.0991 39.445 20.0607 39.9579 20.0032 39.9579C19.9552 39.9579 19.9073 40.0795 19.9073 40.2279C19.9073 40.552 19.313 41.443 19.0925 41.443C19.0158 41.443 18.9487 41.389 18.9487 41.308C18.9487 41.2405 18.7953 41.173 18.6131 41.173C18.431 41.173 18.2776 41.119 18.2776 41.038C18.2776 40.9705 18.1529 40.9029 17.99 40.9029C17.8365 40.9029 17.7023 40.849 17.7023 40.768C17.7023 40.7005 17.5489 40.633 17.3668 40.633C17.1368 40.633 17.0313 40.5655 17.0313 40.4304C17.0313 40.2955 16.9355 40.2279 16.7437 40.2279C16.5903 40.2279 16.4561 40.174 16.4561 40.093C16.4561 40.0255 16.2165 39.9579 15.9288 39.9579C15.6412 39.9579 15.4015 39.904 15.4015 39.823C15.4015 39.742 14.7017 39.6879 13.4842 39.6879C12.2666 39.6879 11.5669 39.742 11.5669 39.823C11.5669 39.904 11.3751 39.9579 11.1354 39.9579C10.8958 39.9579 10.704 40.0255 10.704 40.093C10.704 40.174 10.5794 40.2279 10.4164 40.2279C10.2246 40.2279 10.1288 40.2955 10.1288 40.4304C10.1288 40.5385 10.0426 40.633 9.93713 40.633C9.83158 40.633 9.74538 40.7005 9.74538 40.768C9.74538 40.849 9.63984 40.9029 9.50564 40.9029C9.37144 40.9029 9.26601 40.9705 9.26601 41.038C9.26601 41.119 9.17969 41.173 9.07426 41.173C8.94962 41.173 8.88252 41.2675 8.88252 41.443C8.88252 41.5915 8.84419 41.713 8.78664 41.713C8.73877 41.713 8.69077 42.0505 8.69077 42.4555C8.69077 42.8605 8.73877 43.198 8.78664 43.198C8.84419 43.198 8.88252 43.3195 8.88252 43.4815C8.88252 43.8326 9.10304 44.1431 9.35234 44.1431C9.46731 44.1431 9.55364 44.2106 9.55364 44.2781C9.55364 44.359 9.63984 44.4131 9.74538 44.4131C9.85081 44.4131 9.93713 44.4806 9.93713 44.548C9.93713 44.629 10.1097 44.6831 10.3205 44.6831C10.5986 44.6831 10.704 44.7371 10.704 44.8856C10.704 45.0476 10.8287 45.0881 11.2313 45.0881C11.5189 45.0881 11.7585 45.1556 11.7585 45.2231C11.7585 45.3041 12.3625 45.3581 13.3884 45.3581C14.4141 45.3581 15.0181 45.3041 15.0181 45.2231C15.0181 45.1421 15.2865 45.0881 15.6412 45.0881C16.1301 45.0881 16.2643 45.0476 16.2643 44.8856C16.2643 44.7235 16.3985 44.6831 16.8875 44.6831C17.2422 44.6831 17.5106 44.629 17.5106 44.548C17.5106 44.4806 17.6448 44.4131 17.7982 44.4131C17.9612 44.4131 18.0858 44.359 18.0858 44.2781C18.0858 44.2106 18.1722 44.1431 18.2776 44.1431C18.383 44.1431 18.4693 44.0891 18.4693 44.0081C18.4693 43.9406 18.5748 43.873 18.709 43.873C18.8432 43.873 18.9487 43.8191 18.9487 43.7381C18.9487 43.495 19.2459 43.603 19.4759 43.9406C19.6101 44.1161 19.7156 44.359 19.7156 44.4806C19.7156 44.5886 19.7636 44.6831 19.8114 44.6831C19.869 44.6831 19.9073 44.7776 19.9073 44.8856C19.9073 44.9936 19.9552 45.0881 20.0032 45.0881C20.0607 45.0881 20.0991 45.6011 20.0991 46.3437C20.0991 47.4371 20.0798 47.6126 19.9073 47.7881C19.8019 47.8961 19.7156 48.0987 19.7156 48.2337C19.7156 48.3686 19.6101 48.6252 19.4759 48.8007C19.2459 49.1382 18.9487 49.2462 18.9487 49.0032C18.9487 48.9356 18.8432 48.8682 18.709 48.8682C18.5748 48.8682 18.4693 48.8142 18.4693 48.7332C18.4693 48.6657 18.3447 48.5982 18.1817 48.5982C18.0283 48.5982 17.8941 48.5442 17.8941 48.4631C17.8941 48.3957 17.7407 48.3282 17.5586 48.3282C17.3285 48.3282 17.223 48.2607 17.223 48.1257C17.223 47.9906 17.1272 47.9232 16.9355 47.9232C16.782 47.9232 16.6478 47.8692 16.6478 47.7881C16.6478 47.7206 16.4081 47.6532 16.1206 47.6532C15.833 47.6532 15.5932 47.5991 15.5932 47.5181C15.5932 47.4371 15.2577 47.3832 14.7784 47.3832C14.2991 47.3832 13.9635 47.3291 13.9635 47.2481C13.9635 47.1807 13.7526 47.1132 13.4842 47.1132C13.2254 47.1132 13.0049 47.1807 13.0049 47.2481C13.0049 47.3291 12.6406 47.3832 12.0941 47.3832C11.5476 47.3832 11.1834 47.4371 11.1834 47.5181C11.1834 47.5991 11.03 47.6532 10.8479 47.6532C10.6657 47.6532 10.5123 47.7206 10.5123 47.7881C10.5123 47.8692 10.3876 47.9232 10.2246 47.9232C10.0329 47.9232 9.93713 47.9906 9.93713 48.1257C9.93713 48.2337 9.85081 48.3282 9.74538 48.3282C9.63984 48.3282 9.55364 48.3957 9.55364 48.4631C9.55364 48.5442 9.46731 48.5982 9.36189 48.5982C9.24679 48.5982 9.05504 48.7466 8.93051 48.9356C8.72909 49.2057 8.69077 49.3947 8.69077 50.0832C8.69077 50.5288 8.72909 50.8932 8.78664 50.8932C8.84419 50.8932 8.88252 50.9607 8.88252 51.0283C8.88252 51.2173 9.32356 51.8383 9.45776 51.8383C9.50564 51.8383 9.55364 51.9057 9.55364 51.9733C9.55364 52.0543 9.63984 52.1082 9.74538 52.1082C9.85081 52.1082 9.93713 52.1758 9.93713 52.2433C9.93713 52.3243 10.1575 52.3783 10.4164 52.3783C10.6848 52.3783 10.8958 52.4458 10.8958 52.5133C10.8958 52.5943 11.1642 52.6483 11.5189 52.6483C12.0078 52.6483 12.142 52.6888 12.142 52.8508C12.142 53.0263 12.3433 53.0533 13.3884 53.0533C14.4333 53.0533 14.6346 53.0263 14.6346 52.8508C14.6346 52.6888 14.7784 52.6483 15.3536 52.6483C15.7659 52.6483 16.0726 52.5943 16.0726 52.5133C16.0726 52.4323 16.3314 52.3783 16.6478 52.3783C16.9642 52.3783 17.223 52.3243 17.223 52.2433C17.223 52.1758 17.3764 52.1082 17.5586 52.1082C17.7407 52.1082 17.8941 52.0543 17.8941 51.9733C17.8941 51.9057 17.9804 51.8383 18.0858 51.8383C18.1913 51.8383 18.2776 51.7843 18.2776 51.7033C18.2776 51.6357 18.3639 51.5683 18.4693 51.5683C18.5748 51.5683 18.6611 51.5143 18.6611 51.4332C18.6611 51.3658 18.7953 51.2983 18.9487 51.2983C19.265 51.2983 19.9073 52.0678 19.9073 52.4458C19.9073 52.5538 19.9552 52.6483 20.0032 52.6483C20.0607 52.6483 20.0991 53.1613 20.0991 53.9308C20.0991 54.7003 20.0607 55.2134 20.0032 55.2134C19.9552 55.2134 19.9073 55.3349 19.9073 55.4834C19.9073 55.8074 19.313 56.6984 19.0925 56.6984C19.0158 56.6984 18.9487 56.6444 18.9487 56.5634C18.9487 56.4958 18.7953 56.4284 18.6131 56.4284C18.431 56.4284 18.2776 56.3744 18.2776 56.2934C18.2776 56.2259 18.1529 56.1584 17.99 56.1584C17.8365 56.1584 17.7023 56.1044 17.7023 56.0233C17.7023 55.9559 17.5489 55.8884 17.3668 55.8884C17.1368 55.8884 17.0313 55.8208 17.0313 55.6859C17.0313 55.5508 16.9355 55.4834 16.7437 55.4834C16.5903 55.4834 16.4561 55.4294 16.4561 55.3483C16.4561 55.2808 16.2165 55.2134 15.9288 55.2134C15.6412 55.2134 15.4015 55.1593 15.4015 55.0783C15.4015 54.9973 14.7017 54.9434 13.4842 54.9434C12.2666 54.9434 11.5669 54.9973 11.5669 55.0783C11.5669 55.1593 11.3751 55.2134 11.1354 55.2134C10.8958 55.2134 10.704 55.2808 10.704 55.3483C10.704 55.4294 10.5794 55.4834 10.4164 55.4834C10.2246 55.4834 10.1288 55.5508 10.1288 55.6859C10.1288 55.7939 10.0426 55.8884 9.93713 55.8884C9.83158 55.8884 9.74538 55.9559 9.74538 56.0233C9.74538 56.1044 9.63984 56.1584 9.50564 56.1584C9.37144 56.1584 9.26601 56.2259 9.26601 56.2934C9.26601 56.3744 9.17969 56.4284 9.07426 56.4284C8.94962 56.4284 8.88252 56.5229 8.88252 56.6984C8.88252 56.8469 8.84419 56.9684 8.78664 56.9684C8.73877 56.9684 8.69077 57.3059 8.69077 57.7109C8.69077 58.116 8.73877 58.4534 8.78664 58.4534C8.84419 58.4534 8.88252 58.575 8.88252 58.7369C8.88252 59.0879 9.10304 59.3985 9.35234 59.3985C9.46731 59.3985 9.55364 59.4659 9.55364 59.5335C9.55364 59.6145 9.63984 59.6684 9.74538 59.6684C9.85081 59.6684 9.93713 59.736 9.93713 59.8035C9.93713 59.8845 10.1097 59.9384 10.3205 59.9384C10.5986 59.9384 10.704 59.9925 10.704 60.141C10.704 60.303 10.8287 60.3435 11.2313 60.3435C11.5189 60.3435 11.7585 60.411 11.7585 60.4785C11.7585 60.5595 12.3625 60.6135 13.3884 60.6135C14.4141 60.6135 15.0181 60.5595 15.0181 60.4785C15.0181 60.3975 15.2865 60.3435 15.6412 60.3435C16.1301 60.3435 16.2643 60.303 16.2643 60.141C16.2643 59.979 16.3985 59.9384 16.8875 59.9384C17.2422 59.9384 17.5106 59.8845 17.5106 59.8035C17.5106 59.736 17.6448 59.6684 17.7982 59.6684C17.9612 59.6684 18.0858 59.6145 18.0858 59.5335C18.0858 59.4659 18.1722 59.3985 18.2776 59.3985C18.383 59.3985 18.4693 59.3445 18.4693 59.2635C18.4693 59.1959 18.5748 59.1285 18.709 59.1285C18.8432 59.1285 18.9487 59.0745 18.9487 58.9934C18.9487 58.7505 19.2459 58.8585 19.4759 59.1959C19.6101 59.3714 19.7156 59.6145 19.7156 59.736C19.7156 59.8439 19.7636 59.9384 19.8114 59.9384C19.869 59.9384 19.9073 60.033 19.9073 60.141C19.9073 60.249 19.9552 60.3435 20.0032 60.3435C20.0607 60.3435 20.0991 60.8565 20.0991 61.599C20.0991 62.6926 20.0798 62.8681 19.9073 63.0436C19.8019 63.1516 19.7156 63.3541 19.7156 63.489C19.7156 63.6241 19.6101 63.8806 19.4759 64.056C19.2459 64.3936 18.9487 64.5016 18.9487 64.2586C18.9487 64.1911 18.8432 64.1236 18.709 64.1236C18.5748 64.1236 18.4693 64.0696 18.4693 63.9886C18.4693 63.9211 18.3447 63.8536 18.1817 63.8536C18.0283 63.8536 17.8941 63.7996 17.8941 63.7186C17.8941 63.6511 17.7407 63.5835 17.5586 63.5835C17.3285 63.5835 17.223 63.5161 17.223 63.3811C17.223 63.2461 17.1272 63.1786 16.9355 63.1786C16.782 63.1786 16.6478 63.1245 16.6478 63.0436C16.6478 62.9761 16.4081 62.9085 16.1206 62.9085C15.833 62.9085 15.5932 62.8546 15.5932 62.7736C15.5932 62.6926 15.2577 62.6385 14.7784 62.6385C14.2991 62.6385 13.9635 62.5846 13.9635 62.5036C13.9635 62.436 13.7526 62.3685 13.4842 62.3685C13.2254 62.3685 13.0049 62.436 13.0049 62.5036C13.0049 62.5846 12.6406 62.6385 12.0941 62.6385C11.5476 62.6385 11.1834 62.6926 11.1834 62.7736C11.1834 62.8546 11.03 62.9085 10.8479 62.9085C10.6657 62.9085 10.5123 62.9761 10.5123 63.0436C10.5123 63.1245 10.3876 63.1786 10.2246 63.1786C10.0329 63.1786 9.93713 63.2461 9.93713 63.3811C9.93713 63.489 9.85081 63.5835 9.74538 63.5835C9.63984 63.5835 9.55364 63.6511 9.55364 63.7186C9.55364 63.7996 9.46731 63.8536 9.36189 63.8536C9.24679 63.8536 9.05504 64.0021 8.93051 64.1911C8.72909 64.4611 8.69077 64.6501 8.69077 65.3386C8.69077 65.7841 8.72909 66.1487 8.78664 66.1487C8.84419 66.1487 8.88252 66.2162 8.88252 66.2836C8.88252 66.4726 9.32356 67.0937 9.45776 67.0937C9.50564 67.0937 9.55364 67.1612 9.55364 67.2286C9.55364 67.3096 9.63984 67.3637 9.74538 67.3637C9.85081 67.3637 9.93713 67.4312 9.93713 67.4986C9.93713 67.5797 10.1575 67.6337 10.4164 67.6337C10.6848 67.6337 10.8958 67.7011 10.8958 67.7687C10.8958 67.8497 11.1642 67.9037 11.5189 67.9037C12.0078 67.9037 12.142 67.9442 12.142 68.1062C12.142 68.2817 12.3433 68.3087 13.3884 68.3087C14.4333 68.3087 14.6346 68.2817 14.6346 68.1062C14.6346 67.9442 14.7784 67.9037 15.3536 67.9037C15.7659 67.9037 16.0726 67.8497 16.0726 67.7687C16.0726 67.6876 16.3314 67.6337 16.6478 67.6337C16.9642 67.6337 17.223 67.5797 17.223 67.4986C17.223 67.4312 17.3764 67.3637 17.5586 67.3637C17.7407 67.3637 17.8941 67.3096 17.8941 67.2286C17.8941 67.1612 17.9804 67.0937 18.0858 67.0937C18.1913 67.0937 18.2776 67.0396 18.2776 66.9587C18.2776 66.8912 18.3639 66.8237 18.4693 66.8237C18.5748 66.8237 18.6611 66.7697 18.6611 66.6887C18.6611 66.6212 18.7953 66.5536 18.9487 66.5536C19.265 66.5536 19.9073 67.3231 19.9073 67.7011C19.9073 67.8092 19.9552 67.9037 20.0032 67.9037C20.0607 67.9037 20.0991 68.4437 20.0991 69.2537C20.0991 70.0638 20.0607 70.6038 20.0032 70.6038C19.9552 70.6038 19.9073 70.7253 19.9073 70.8737C19.9073 71.0223 19.869 71.1437 19.8114 71.1437C19.7636 71.1437 19.7156 71.2248 19.7156 71.3193C19.7156 71.4138 19.6292 71.5758 19.5238 71.6838C19.4184 71.7918 19.3321 71.9808 19.3321 72.1158C19.3321 72.2643 19.265 72.3588 19.1403 72.3588C19.0349 72.3588 18.9487 72.4263 18.9487 72.4938C18.9487 72.5748 18.8815 72.6288 18.8048 72.6288C18.7282 72.6288 18.6611 72.6963 18.6611 72.7638C18.6611 72.8449 18.5748 72.8988 18.4693 72.8988C18.3639 72.8988 18.2776 72.9933 18.2776 73.1013C18.2776 73.2093 18.1913 73.3039 18.0858 73.3039C17.9804 73.3039 17.8941 73.3713 17.8941 73.4388C17.8941 73.5199 17.6257 73.5738 17.271 73.5738C16.9162 73.5738 16.6478 73.6278 16.6478 73.7089C16.6478 73.7975 14.9611 73.8386 11.7459 73.8433C11.4011 72.4961 9.61573 71.4696 7.46511 71.4696C5.06763 71.4696 3.1241 72.7453 3.1241 74.3189C3.1241 75.8925 5.06763 77.1682 7.46511 77.1682C9.32082 77.1682 10.9046 76.4039 11.5256 75.3287C15.013 75.3263 16.8396 75.2854 16.8396 75.1939C16.8396 75.1264 17.0313 75.0588 17.271 75.0588C17.5106 75.0588 17.7023 75.0049 17.7023 74.9239C17.7023 74.8564 17.8365 74.7888 17.99 74.7888C18.1817 74.7888 18.2776 74.7214 18.2776 74.5863C18.2776 74.4783 18.3639 74.3839 18.4693 74.3839C18.5748 74.3839 18.6611 74.3298 18.6611 74.2489C18.6611 74.1814 18.757 74.1138 18.8815 74.1138C18.9966 74.1138 19.1596 73.9924 19.2362 73.8438C19.313 73.6954 19.4472 73.5738 19.543 73.5738C19.6389 73.5738 19.7156 73.5199 19.7156 73.4388C19.7156 73.3713 19.8019 73.3039 19.9073 73.3039C20.0127 73.3039 20.0991 73.2093 20.0991 73.1013C20.0991 72.9933 20.1469 72.8988 20.1949 72.8988C20.2525 72.8988 20.2908 72.8043 20.2908 72.6963C20.2908 72.5748 20.3579 72.4533 20.4346 72.4128C20.5113 72.3588 20.5784 72.2238 20.5784 72.1023C20.5784 71.9808 20.6646 71.7918 20.7702 71.6838C20.8756 71.5758 20.9618 71.3463 20.9618 71.1843C20.9618 71.0088 21.0098 70.8737 21.0577 70.8737C21.1152 70.8737 21.1536 70.2393 21.1536 69.2537C21.1536 68.2682 21.1152 67.6337 21.0577 67.6337C21.0098 67.6337 20.9618 67.5121 20.9618 67.3637C20.9618 67.2151 20.9235 67.0937 20.8659 67.0937C20.8181 67.0937 20.7702 66.9722 20.7702 66.8237C20.7702 66.6751 20.7317 66.5536 20.6743 66.5536C20.6263 66.5536 20.5784 66.4591 20.5784 66.3511C20.5784 66.2432 20.5113 66.1487 20.4346 66.1487C20.3579 66.1487 20.2908 66.0272 20.2908 65.8786C20.2908 65.7301 20.2525 65.6086 20.1949 65.6086C20.1469 65.6086 20.0991 65.4871 20.0991 65.3386C20.0991 65.1902 20.1469 65.0686 20.1949 65.0686C20.2525 65.0686 20.2908 64.9741 20.2908 64.8661C20.2908 64.7581 20.3579 64.6636 20.4346 64.6636C20.5113 64.6636 20.5784 64.5556 20.5784 64.4206C20.5784 64.2856 20.6646 64.0966 20.7702 63.9886C20.8756 63.8806 20.9618 63.6511 20.9618 63.489C20.9618 63.3135 21.0098 63.1786 21.0577 63.1786C21.1152 63.1786 21.1536 62.544 21.1536 61.5586C21.1536 60.573 21.1152 59.9384 21.0577 59.9384C21.0098 59.9384 20.9618 59.817 20.9618 59.6684C20.9618 59.52 20.9235 59.3985 20.8659 59.3985C20.8181 59.3985 20.7702 59.2769 20.7702 59.1285C20.7702 58.9799 20.7317 58.8585 20.6743 58.8585C20.6263 58.8585 20.5784 58.764 20.5784 58.656C20.5784 58.5479 20.5304 58.4534 20.4729 58.4534C20.3196 58.4534 20.0991 58.1025 20.0991 57.8594C20.0991 57.7379 20.1469 57.6434 20.1949 57.6434C20.2525 57.6434 20.2908 57.4949 20.2908 57.3059C20.2908 57.0899 20.3484 56.9684 20.4346 56.9684C20.5113 56.9684 20.5784 56.8604 20.5784 56.7254C20.5784 56.5904 20.6646 56.4013 20.7702 56.2934C20.8756 56.1854 20.9618 55.9559 20.9618 55.7939C20.9618 55.6184 21.0098 55.4834 21.0577 55.4834C21.1152 55.4834 21.1536 54.8758 21.1536 53.9308C21.1536 52.9858 21.1152 52.3783 21.0577 52.3783C21.0098 52.3783 20.9618 52.2568 20.9618 52.1082C20.9618 51.9598 20.9235 51.8383 20.8659 51.8383C20.8181 51.8383 20.7702 51.7167 20.7702 51.5683C20.7702 51.4198 20.7317 51.2983 20.6743 51.2983C20.6263 51.2983 20.5784 51.2038 20.5784 51.0958C20.5784 50.9877 20.5113 50.8932 20.4346 50.8932C20.3579 50.8932 20.2908 50.7717 20.2908 50.6233C20.2908 50.4747 20.2525 50.3533 20.1949 50.3533C20.1469 50.3533 20.0991 50.2317 20.0991 50.0832C20.0991 49.9347 20.1469 49.8132 20.1949 49.8132C20.2525 49.8132 20.2908 49.7187 20.2908 49.6107C20.2908 49.5028 20.3579 49.4082 20.4346 49.4082C20.5113 49.4082 20.5784 49.3002 20.5784 49.1652C20.5784 49.0301 20.6646 48.8411 20.7702 48.7332C20.8756 48.6252 20.9618 48.3957 20.9618 48.2337C20.9618 48.0582 21.0098 47.9232 21.0577 47.9232C21.1152 47.9232 21.1536 47.2887 21.1536 46.3031C21.1536 45.3176 21.1152 44.6831 21.0577 44.6831C21.0098 44.6831 20.9618 44.5616 20.9618 44.4131C20.9618 44.2645 20.9235 44.1431 20.8659 44.1431C20.8181 44.1431 20.7702 44.0216 20.7702 43.873C20.7702 43.7246 20.7317 43.603 20.6743 43.603C20.6263 43.603 20.5784 43.5085 20.5784 43.4005C20.5784 43.2925 20.5304 43.198 20.4729 43.198C20.3196 43.198 20.0991 42.847 20.0991 42.6041C20.0991 42.4825 20.1469 42.388 20.1949 42.388C20.2525 42.388 20.2908 42.2395 20.2908 42.0505C20.2908 41.8345 20.3484 41.713 20.4346 41.713C20.5113 41.713 20.5784 41.605 20.5784 41.47C20.5784 41.335 20.6646 41.146 20.7702 41.038C20.8756 40.93 20.9618 40.7005 20.9618 40.5385C20.9618 40.363 21.0098 40.2279 21.0577 40.2279C21.1152 40.2279 21.1536 39.5934 21.1536 38.6079C21.1536 37.6224 21.1152 36.9879 21.0577 36.9879C21.0098 36.9879 20.9618 36.8798 20.9618 36.7449C20.9618 36.6098 20.8756 36.4208 20.7702 36.3128C20.6646 36.2048 20.5784 35.9754 20.5784 35.8134C20.5784 35.6378 20.5304 35.5029 20.4729 35.5029C20.3196 35.5029 20.0991 35.1518 20.0991 34.9088C20.0991 34.7873 20.1469 34.6928 20.1949 34.6928C20.2525 34.6928 20.2908 34.5443 20.2908 34.3553C20.2908 34.1663 20.3387 34.0178 20.3962 34.0178C20.5497 34.0178 20.7702 33.6668 20.7702 33.4238C20.7702 33.3023 20.8181 33.2078 20.8659 33.2078C20.9235 33.2078 20.9618 33.0863 20.9618 32.9378C20.9618 32.7893 21.0098 32.6677 21.0577 32.6677C21.1152 32.6677 21.1536 32.0873 21.1536 31.1827C21.1536 30.2782 21.1152 29.6977 21.0577 29.6977ZM17.8941 42.658C17.7887 42.658 17.7023 42.7255 17.7023 42.7931C17.7023 42.8741 17.4627 42.928 17.1751 42.928C16.8875 42.928 16.6478 42.9956 16.6478 43.0631C16.6478 43.144 16.5232 43.198 16.3602 43.198C16.1685 43.198 16.0726 43.2656 16.0726 43.4005C16.0726 43.5626 15.9384 43.603 15.4495 43.603C15.0948 43.603 14.8264 43.6571 14.8264 43.7381C14.8264 43.8191 14.184 43.873 13.1007 43.873C12.0173 43.873 11.3751 43.8191 11.3751 43.7381C11.3751 43.6705 11.1834 43.603 10.9436 43.603C10.6274 43.603 10.5123 43.5491 10.5123 43.4005C10.5123 43.2791 10.4164 43.198 10.2631 43.198C10.1288 43.198 9.95623 43.117 9.87958 43.009C9.72616 42.7796 9.69738 42.388 9.84126 42.388C9.89868 42.388 9.93713 42.2395 9.93713 42.0505C9.93713 41.8075 9.98501 41.713 10.1288 41.713C10.2343 41.713 10.3205 41.659 10.3205 41.578C10.3205 41.5105 10.4547 41.443 10.6081 41.443C10.7711 41.443 10.8958 41.389 10.8958 41.308C10.8958 41.227 11.7394 41.173 13.2445 41.173C14.7496 41.173 15.5932 41.227 15.5932 41.308C15.5932 41.389 15.785 41.443 16.0247 41.443C16.2643 41.443 16.4561 41.5105 16.4561 41.578C16.4561 41.659 16.5903 41.713 16.7437 41.713C16.9355 41.713 17.0313 41.7805 17.0313 41.9155C17.0313 42.0505 17.1368 42.118 17.3668 42.118C17.5489 42.118 17.7023 42.1855 17.7023 42.253C17.7023 42.334 17.7887 42.388 17.8941 42.388C17.9995 42.388 18.0858 42.4555 18.0858 42.523C18.0858 42.6041 17.9995 42.658 17.8941 42.658ZM17.7982 50.3533C17.6448 50.3533 17.5106 50.4207 17.5106 50.4882C17.5106 50.5692 17.271 50.6233 16.9833 50.6233C16.6957 50.6233 16.4561 50.6907 16.4561 50.7582C16.4561 50.8393 16.2643 50.8932 16.0247 50.8932C15.7083 50.8932 15.5932 50.9472 15.5932 51.0958C15.5932 51.2577 15.4687 51.2983 15.0181 51.2983C14.7017 51.2983 14.4429 51.3522 14.4429 51.4332C14.4429 51.5143 13.8964 51.5683 13.0049 51.5683C12.1132 51.5683 11.5669 51.5143 11.5669 51.4332C11.5669 51.3658 11.3751 51.2983 11.1354 51.2983C10.8191 51.2983 10.704 51.2442 10.704 51.0958C10.704 50.9607 10.6081 50.8932 10.4164 50.8932C10.2631 50.8932 10.1288 50.8393 10.1288 50.7582C10.1288 50.6907 10.0426 50.6233 9.93713 50.6233C9.78371 50.6233 9.74538 50.5288 9.74538 50.2182C9.74538 50.0022 9.79326 49.8132 9.84126 49.8132C9.89868 49.8132 9.93713 49.7187 9.93713 49.6107C9.93713 49.5028 10.0233 49.4082 10.1288 49.4082C10.2343 49.4082 10.3205 49.3542 10.3205 49.2732C10.3205 49.2057 10.4068 49.1382 10.5123 49.1382C10.6177 49.1382 10.704 49.0842 10.704 49.0032C10.704 48.9356 10.9436 48.8682 11.2313 48.8682C11.5189 48.8682 11.7585 48.8142 11.7585 48.7332C11.7585 48.6521 12.305 48.5982 13.1966 48.5982C14.0881 48.5982 14.6346 48.6521 14.6346 48.7332C14.6346 48.8142 14.903 48.8682 15.2577 48.8682C15.6124 48.8682 15.8808 48.9222 15.8808 49.0032C15.8808 49.0842 16.0535 49.1382 16.2643 49.1382C16.4752 49.1382 16.6478 49.2057 16.6478 49.2732C16.6478 49.3542 16.782 49.4082 16.9355 49.4082C17.1272 49.4082 17.223 49.4757 17.223 49.6107C17.223 49.7322 17.3093 49.8132 17.4627 49.8132C17.5969 49.8132 17.7023 49.8808 17.7023 49.9482C17.7023 50.0292 17.7887 50.0832 17.8941 50.0832C17.9995 50.0832 18.0858 50.1507 18.0858 50.2182C18.0858 50.2992 17.9612 50.3533 17.7982 50.3533ZM17.8941 57.9135C17.7887 57.9135 17.7023 57.9809 17.7023 58.0484C17.7023 58.1294 17.4627 58.1835 17.1751 58.1835C16.8875 58.1835 16.6478 58.2509 16.6478 58.3184C16.6478 58.3995 16.5232 58.4534 16.3602 58.4534C16.1685 58.4534 16.0726 58.5209 16.0726 58.656C16.0726 58.8179 15.9384 58.8585 15.4495 58.8585C15.0948 58.8585 14.8264 58.9124 14.8264 58.9934C14.8264 59.0745 14.184 59.1285 13.1007 59.1285C12.0173 59.1285 11.3751 59.0745 11.3751 58.9934C11.3751 58.9259 11.1834 58.8585 10.9436 58.8585C10.6274 58.8585 10.5123 58.8044 10.5123 58.656C10.5123 58.5344 10.4164 58.4534 10.2631 58.4534C10.1288 58.4534 9.95623 58.3725 9.87958 58.2644C9.72616 58.0349 9.69738 57.6434 9.84126 57.6434C9.89868 57.6434 9.93713 57.4949 9.93713 57.3059C9.93713 57.063 9.98501 56.9684 10.1288 56.9684C10.2343 56.9684 10.3205 56.9144 10.3205 56.8334C10.3205 56.7659 10.4547 56.6984 10.6081 56.6984C10.7711 56.6984 10.8958 56.6444 10.8958 56.5634C10.8958 56.4824 11.7394 56.4284 13.2445 56.4284C14.7496 56.4284 15.5932 56.4824 15.5932 56.5634C15.5932 56.6444 15.785 56.6984 16.0247 56.6984C16.2643 56.6984 16.4561 56.7659 16.4561 56.8334C16.4561 56.9144 16.5903 56.9684 16.7437 56.9684C16.9355 56.9684 17.0313 57.0359 17.0313 57.1709C17.0313 57.3059 17.1368 57.3734 17.3668 57.3734C17.5489 57.3734 17.7023 57.441 17.7023 57.5084C17.7023 57.5894 17.7887 57.6434 17.8941 57.6434C17.9995 57.6434 18.0858 57.7109 18.0858 57.7784C18.0858 57.8594 17.9995 57.9135 17.8941 57.9135ZM17.7982 65.6086C17.6448 65.6086 17.5106 65.6762 17.5106 65.7437C17.5106 65.8246 17.271 65.8786 16.9833 65.8786C16.6957 65.8786 16.4561 65.9462 16.4561 66.0136C16.4561 66.0946 16.2643 66.1487 16.0247 66.1487C15.7083 66.1487 15.5932 66.2026 15.5932 66.3511C15.5932 66.5132 15.4687 66.5536 15.0181 66.5536C14.7017 66.5536 14.4429 66.6077 14.4429 66.6887C14.4429 66.7697 13.8964 66.8237 13.0049 66.8237C12.1132 66.8237 11.5669 66.7697 11.5669 66.6887C11.5669 66.6212 11.3751 66.5536 11.1354 66.5536C10.8191 66.5536 10.704 66.4997 10.704 66.3511C10.704 66.2162 10.6081 66.1487 10.4164 66.1487C10.2631 66.1487 10.1288 66.0946 10.1288 66.0136C10.1288 65.9462 10.0426 65.8786 9.93713 65.8786C9.78371 65.8786 9.74538 65.7841 9.74538 65.4737C9.74538 65.2576 9.79326 65.0686 9.84126 65.0686C9.89868 65.0686 9.93713 64.9741 9.93713 64.8661C9.93713 64.7581 10.0233 64.6636 10.1288 64.6636C10.2343 64.6636 10.3205 64.6096 10.3205 64.5286C10.3205 64.4611 10.4068 64.3936 10.5123 64.3936C10.6177 64.3936 10.704 64.3395 10.704 64.2586C10.704 64.1911 10.9436 64.1236 11.2313 64.1236C11.5189 64.1236 11.7585 64.0696 11.7585 63.9886C11.7585 63.9076 12.305 63.8536 13.1966 63.8536C14.0881 63.8536 14.6346 63.9076 14.6346 63.9886C14.6346 64.0696 14.903 64.1236 15.2577 64.1236C15.6124 64.1236 15.8808 64.1776 15.8808 64.2586C15.8808 64.3395 16.0535 64.3936 16.2643 64.3936C16.4752 64.3936 16.6478 64.4611 16.6478 64.5286C16.6478 64.6096 16.782 64.6636 16.9355 64.6636C17.1272 64.6636 17.223 64.7311 17.223 64.8661C17.223 64.9876 17.3093 65.0686 17.4627 65.0686C17.5969 65.0686 17.7023 65.1361 17.7023 65.2036C17.7023 65.2847 17.7887 65.3386 17.8941 65.3386C17.9995 65.3386 18.0858 65.4061 18.0858 65.4737C18.0858 65.5546 17.9612 65.6086 17.7982 65.6086ZM17.4627 35.2329C17.223 35.2329 17.0313 35.3003 17.0313 35.3678C17.0313 35.4488 16.8587 35.5029 16.6478 35.5029C16.3698 35.5029 16.2643 35.5568 16.2643 35.7054C16.2643 35.8674 16.1397 35.9079 15.7371 35.9079C15.4495 35.9079 15.2099 35.9754 15.2099 36.0428C15.2099 36.1238 14.4236 36.1779 13.0527 36.1779C11.6818 36.1779 10.8958 36.1238 10.8958 36.0428C10.8958 35.9754 10.7711 35.9079 10.6081 35.9079C10.4164 35.9079 10.3205 35.8403 10.3205 35.7054C10.3205 35.5974 10.2534 35.5029 10.1672 35.5029C9.98501 35.5029 9.74538 35.1788 9.74538 34.9359C9.74538 34.8278 9.83158 34.6659 9.93713 34.5578C10.0426 34.4498 10.1288 34.2878 10.1288 34.1933C10.1288 34.0988 10.2151 34.0178 10.3205 34.0178C10.4261 34.0178 10.5123 33.9638 10.5123 33.8828C10.5123 33.8153 10.6657 33.7478 10.8479 33.7478C11.03 33.7478 11.1834 33.6938 11.1834 33.6128C11.1834 33.5317 11.9216 33.4778 13.1966 33.4778C14.4716 33.4778 15.2099 33.5317 15.2099 33.6128C15.2099 33.6938 15.4495 33.7478 15.7371 33.7478C16.0247 33.7478 16.2643 33.8153 16.2643 33.8828C16.2643 33.9638 16.3985 34.0178 16.552 34.0178C16.7437 34.0178 16.8396 34.0853 16.8396 34.2203C16.8396 34.3553 16.945 34.4228 17.1751 34.4228C17.3573 34.4228 17.5106 34.4903 17.5106 34.5578C17.5106 34.6388 17.5969 34.6928 17.7023 34.6928C17.827 34.6928 17.8941 34.7873 17.8941 34.9628C17.8941 35.1923 17.827 35.2329 17.4627 35.2329Z" fill="#116B1D" fill-opacity="0.23"/>
</svg>
