<svg width="150" height="44" viewBox="0 0 150 44" fill="none" xmlns="http://www.w3.org/2000/svg">
<path fill-rule="evenodd" clip-rule="evenodd" d="M0.961227 1.18621C-0.159795 2.10461 -0.210747 2.41075 0.349764 3.07399C0.961227 3.8393 1.11411 3.8393 2.2351 3.07399C4.01853 1.95152 6.66823 2.05358 11.509 3.63523C13.853 4.34951 16.7064 4.96173 17.8275 4.96173C20.5281 4.96173 24.3498 3.176 24.3498 1.90054C24.3498 0.369906 23.4835 0.216844 21.802 1.44131C19.7638 2.97193 16.6045 2.9209 10.9485 1.18621C5.75102 -0.395403 2.79561 -0.395403 0.961227 1.18621ZM0.4586 7.80611C-0.101906 7.14286 -0.0509535 6.83672 1.07007 5.91837C2.90446 4.33673 5.85987 4.33673 11.0573 5.91837C16.7134 7.65307 19.8726 7.7041 21.9108 6.17348C23.5924 4.94899 24.4586 5.10203 24.4586 6.63265C24.4586 7.90817 20.637 9.69389 17.9363 9.69389C16.8153 9.69389 13.9618 9.08162 11.6179 8.36734C6.77708 6.78569 4.12738 6.68368 2.34395 7.80611C1.22291 8.57142 1.07007 8.57142 0.4586 7.80611ZM0.101914 27.3469C0.0509561 18.1122 0.203823 11.4286 0.4586 11.2755C1.07007 10.8673 9.42674 11.0204 10.0892 11.4286C10.3949 11.5816 10.5987 17.9082 10.6497 27.551L10.7516 43.4184L5.50317 43.2653L0.254781 43.1122L0.101914 27.3469ZM16.4586 11.1224L14.2675 11.2755V27.3469V43.3673H19.6179H24.9682V27.0918V10.8673L21.758 10.9184C21.451 10.9274 21.1233 10.9365 20.7851 10.9457L20.7843 10.9458L20.7808 10.9459L20.7807 10.9459C19.2118 10.9892 17.422 11.0385 16.4586 11.1224ZM33.2739 41.5306C33.4267 40.7143 34.6497 33.4694 35.9746 25.3571L38.4204 10.7143H39.7452C41.0191 10.7143 41.121 10.9184 41.7325 14.1327C42.0383 16.0714 42.7516 19.6429 43.3121 22.1939C43.6865 23.8636 44.2654 26.5803 44.8212 29.1887L44.8215 29.1901L44.827 29.2158L44.8271 29.2162L44.8271 29.2163L44.8273 29.2174L44.8284 29.2225C45.1023 30.5078 45.3703 31.7654 45.6051 32.8571C46.3185 36.2245 46.7262 39.0816 46.5223 39.3367C46.3185 39.5408 45.4013 39.8469 44.535 40L42.9554 40.3571L42.5987 37.551C42.1401 33.4694 41.9363 33.1633 40.1019 33.5204C37.9108 33.9286 37.758 34.1327 37.4013 36.7857C36.7453 42.0907 36.7389 42.0923 34.5121 42.6369L34.4459 42.6531C33.0191 43.0102 32.9682 42.9592 33.2739 41.5306ZM47.8472 10.9184C47.6944 11.0714 47.745 12.602 47.8983 14.3878C48.0511 16.1735 48.1527 22.3469 48.1527 28.1633C48.1527 29.0918 48.1507 29.9427 48.1481 30.7218V30.7219V30.722C48.1326 36.0879 48.1269 38.0524 48.9971 38.5822C49.4998 38.8883 50.2947 38.7156 51.5483 38.4432H51.5489C51.8787 38.3715 52.2405 38.2929 52.6369 38.2143C54.7773 37.7551 55.5416 37.398 55.5416 36.7857C55.5416 36.3265 55.8472 34.7449 56.2549 33.2653C56.6116 31.7857 56.8154 30.6122 56.7132 30.6122C56.6116 30.6122 55.745 31.1735 54.8278 31.8878C52.0763 33.9796 51.5158 33.6735 51.5158 30.102C51.5669 26.8878 52.0252 26.0204 53.2996 27.0918L53.3326 27.1178V27.1179C53.6583 27.3716 53.8585 27.5274 54.0191 27.4941C54.2745 27.441 54.4309 26.9083 54.8351 25.5275V25.5274L54.8732 25.397L54.93 25.2041C55.8983 21.8367 55.7961 21.5306 53.6562 21.6327L51.7197 21.6837V18.8775V16.0714L53.2996 16.2245C54.7262 16.3776 54.93 16.1735 55.1845 14.898C55.3378 14.0816 55.6433 12.8061 55.8472 12.0408L56.1527 10.7143H52.1274C49.8854 10.7143 47.9489 10.8163 47.8472 10.9184ZM57.8854 17.2959C57.6815 17.0918 58.3948 12.8571 58.8536 11.3265C59.0064 10.9184 60.3824 10.7143 63.4394 10.7143C65.8343 10.7143 67.7708 10.8163 67.7708 10.9184C67.7708 11.0714 66.6498 15.6122 65.2232 21.0714C63.8472 26.5306 62.6751 31.2755 62.6751 31.5816C62.6751 32.398 65.0699 31.7347 66.9047 30.5102C67.6686 29.949 68.2802 29.6429 68.2802 29.7959C68.2802 31.0714 67.0064 35.5102 66.5987 35.8163C66.2931 36.0204 64.5094 36.3265 62.6751 36.4796C60.8407 36.6837 58.9553 36.9388 58.4459 37.0918C57.4265 37.3469 57.4776 36.7857 58.8536 32.1429C59.7708 29.0306 62.6751 16.6327 62.6751 15.8673C62.6751 15.102 60.1785 15.6633 58.9553 16.7347C58.497 17.1429 57.9871 17.398 57.8854 17.2959ZM73.376 11.8367C73.376 12.9082 71.7961 20.2551 69.2485 31.0714C68.688 33.4184 68.3313 35.4592 68.4841 35.5612C68.6369 35.7143 69.5034 35.7143 70.4712 35.5102C72.1527 35.2041 72.2549 35.051 72.5094 32.551C72.9171 29.3878 73.2738 28.9796 75.4142 29.1837C76.8918 29.3367 77.1463 29.5918 77.7068 31.3775C78.0129 32.5 78.2167 33.7245 78.064 34.0816C77.9618 34.4898 78.5223 34.6939 79.9489 34.6939C81.121 34.6939 82.0382 34.5408 82.0382 34.3367C82.0382 34.1837 81.4776 31.8367 80.7644 29.1327C79.0317 22.1939 77.0446 13.7245 76.8407 12.2449C76.7391 11.2245 76.3824 10.9184 75.0575 10.8163C73.5798 10.6633 73.376 10.8163 73.376 11.8367ZM82.5987 13.0102C81.9871 11.9898 81.5287 11.0714 81.5287 10.9184C81.5287 10.8163 82.6498 10.7143 84.0764 10.7143C86.4206 10.7143 86.6245 10.8163 86.93 12.0918C87.5922 14.7449 90.242 20.051 90.6498 19.5918C90.8536 19.3367 91.8219 17.2449 92.7896 14.949L92.8469 14.8114L92.847 14.8113C94.5228 10.7642 94.5435 10.7143 96.4077 10.7143H98.242L97.7837 12.5C97.5287 13.4694 97.3249 18.7245 97.4266 24.2347L97.5798 34.1837H95.5416H93.5035L93.6562 28.3163C93.809 24.5918 93.6562 22.449 93.3502 22.449C93.0446 22.449 92.3313 23.7245 91.6686 25.2551C91.0575 26.7857 90.3948 27.9592 90.242 27.8061C90.1404 27.6531 89.376 26.1735 88.6627 24.4388L87.2867 21.3775L86.9811 23.1122C86.8278 24.1327 86.8278 27.0918 86.93 29.7959L87.1845 34.6939H85.2485H83.312L83.5158 24.7449C83.6686 15.3571 83.618 14.6939 82.5987 13.0102ZM105.223 11.1735C105.376 11.4796 105.529 16.8367 105.529 23.1633V34.6939L106.904 34.7449C107.669 34.7449 109.248 34.8469 110.37 35L112.509 35.3061L113.07 32.6531C113.834 29.1837 113.784 28.9286 112.764 29.3367C112.256 29.5404 111.189 29.8965 110.425 30.1515L110.421 30.1529V30.1531L108.943 30.5612L109.146 20.6633L109.3 10.7143H107.108C105.885 10.7143 105.019 10.9184 105.223 11.1735ZM111.745 15.8163L112.255 13.2653L112.764 10.7143H117.758L117.925 10.7143L118.208 10.7141H118.208C121.017 10.7127 122.243 10.712 122.662 11.2924C122.986 11.7421 122.826 12.5406 122.542 13.9578L122.497 14.1837C122.191 15.6122 122.038 15.7143 120.663 15.4592L119.134 15.1531L119.338 25.4592C119.439 32.8061 119.338 35.7143 118.93 35.7143C118.624 35.7143 117.707 35.5612 116.892 35.4082L115.414 35.1531L115.567 25.1531L115.72 15.1531L113.733 15.5102L111.745 15.8163ZM124.229 23.3163C124.331 32.449 124.535 36.0714 124.994 36.3265C125.35 36.5306 126.93 36.7347 128.509 36.7347C131.21 36.7347 131.516 36.6327 132.688 35.051C134.471 32.7041 135.032 30.051 135.032 24.1327C135.032 18.0102 133.86 14.0816 131.414 11.9898C130.14 10.9694 129.325 10.7143 126.981 10.7143H124.076L124.229 23.3163ZM129.58 16.2245C132.229 19.1327 132.535 27.9592 130.038 30.7143C128.153 32.9082 127.898 32.0408 127.898 23.4694C127.898 18.9796 128.102 15.3061 128.306 15.3061C128.56 15.3061 129.121 15.7143 129.58 16.2245ZM139.611 16.3793L139.612 16.3717L139.663 16.0974C140.077 13.8419 140.376 12.2098 140.433 11.8367C140.586 11.0204 140.994 10.7143 142.063 10.7143C143.43 10.7143 143.439 10.7646 144.636 17.108L144.637 17.1107L144.663 17.2449C145.274 20.8163 146.599 27.602 147.567 32.3469C148.535 37.0918 149.248 41.0714 149.146 41.1224C149.096 41.1735 148.229 41.0714 147.261 40.8673C145.885 40.6122 145.427 40.2551 145.325 39.2857C145.223 38.5714 144.968 36.8367 144.663 35.3571C144.153 32.8571 144.051 32.6531 142.318 32.3469C140.127 31.9388 139.771 32.398 139.312 36.1224L139.006 38.8265L137.376 38.4694C136.509 38.3163 135.643 38.0612 135.491 37.9592C135.287 37.8571 135.542 36.3265 136.051 34.5918C136.509 32.8061 137.682 27.2449 138.548 22.1939C138.923 20.1286 139.289 18.1316 139.598 16.4469L139.61 16.383L139.611 16.3793ZM16.3655 37.7048C16.3655 37.5558 16.3491 37.4388 16.3328 37.4388C16.3132 37.4388 16.3 36.9813 16.3 36.2685C16.3 35.5556 16.3132 35.0981 16.3328 35.0981C16.3491 35.0981 16.3655 35.0024 16.3655 34.8853C16.3655 34.7683 16.3786 34.6725 16.3982 34.6725C16.4146 34.6725 16.431 34.5981 16.431 34.5023C16.431 34.3108 16.5062 34.0342 16.5586 34.0342C16.5782 34.0342 16.5946 33.9172 16.5946 33.7682C16.5946 33.6192 16.6077 33.5022 16.6273 33.5022C16.6437 33.5022 16.6601 33.4277 16.6601 33.332C16.6601 33.1405 16.5848 32.8638 16.5324 32.8638C16.5128 32.8638 16.4964 32.7574 16.4964 32.6191C16.4964 32.4914 16.467 32.3106 16.431 32.2255C16.395 32.1404 16.3655 31.9914 16.3655 31.885C16.3655 31.7786 16.3491 31.6935 16.3328 31.6935C16.3132 31.6935 16.3 31.1935 16.3 30.4168C16.3 29.6401 16.3132 29.14 16.3328 29.14C16.3491 29.14 16.3655 29.0336 16.3655 28.8953C16.3655 28.7676 16.395 28.5868 16.431 28.5016C16.467 28.4165 16.4964 28.2676 16.4964 28.1612C16.4964 28.0548 16.5194 27.9697 16.5455 27.9697C16.575 27.9697 16.5946 27.8739 16.5946 27.7037C16.5946 27.5547 16.6077 27.4377 16.6273 27.4377C16.6437 27.4377 16.6601 27.3632 16.6601 27.2675C16.6601 27.076 16.5848 26.7993 16.5324 26.7993C16.5128 26.7993 16.4964 26.7248 16.4964 26.6397C16.4964 26.5546 16.4801 26.4802 16.4637 26.4802C16.444 26.4802 16.431 26.3844 16.431 26.2674C16.431 26.1503 16.4146 26.0546 16.3982 26.0546C16.3786 26.0546 16.3655 25.9588 16.3655 25.8418C16.3655 25.7247 16.3491 25.629 16.3328 25.629C16.3132 25.629 16.3 25.1289 16.3 24.3523C16.3 23.5756 16.3132 23.0755 16.3328 23.0755C16.3491 23.0755 16.3655 22.9691 16.3655 22.8308C16.3655 22.7031 16.395 22.5223 16.431 22.4372C16.467 22.3521 16.4964 22.2031 16.4964 22.0967C16.4964 21.9903 16.5194 21.9052 16.5455 21.9052C16.5717 21.9052 16.5946 21.8307 16.5946 21.7456C16.5946 21.6605 16.6077 21.586 16.6273 21.586C16.6437 21.586 16.6601 21.4903 16.6601 21.3732C16.6601 21.2562 16.6437 21.1604 16.6273 21.1604C16.6077 21.1604 16.5946 21.0647 16.5946 20.9476C16.5946 20.8306 16.5717 20.7348 16.5455 20.7348C16.5194 20.7348 16.4964 20.6604 16.4964 20.5753C16.4964 20.4902 16.4801 20.4157 16.4637 20.4157C16.444 20.4157 16.431 20.3199 16.431 20.2029C16.431 20.0858 16.4146 19.9901 16.3982 19.9901C16.3786 19.9901 16.3655 19.8943 16.3655 19.7773C16.3655 19.6603 16.3491 19.5645 16.3328 19.5645C16.3132 19.5645 16.3 19.0644 16.3 18.2878C16.3 17.5111 16.3132 17.011 16.3328 17.011C16.3491 17.011 16.3655 16.9046 16.3655 16.7663C16.3655 16.6387 16.395 16.4578 16.431 16.3727C16.467 16.2875 16.4964 16.1386 16.4964 16.0428C16.4964 15.9471 16.5194 15.8407 16.5455 15.7981C16.5717 15.7662 16.5946 15.6705 16.5946 15.5747C16.5946 15.4896 16.6077 15.4151 16.6273 15.4151C16.6437 15.4151 16.6601 15.3406 16.6601 15.2555C16.6601 15.1704 16.6895 15.0959 16.7255 15.0959C16.7615 15.0959 16.791 15.0427 16.791 14.9895C16.791 14.9257 16.8172 14.8831 16.8499 14.8831C16.8827 14.8831 16.9285 14.7874 16.9547 14.6704C16.9808 14.5533 17.0365 14.4576 17.0757 14.4576C17.1183 14.4576 17.151 14.4044 17.151 14.3512C17.151 14.2873 17.1805 14.2447 17.2165 14.2447C17.2525 14.2447 17.2819 14.1703 17.2819 14.0852C17.2819 13.9788 17.3147 13.9256 17.3802 13.9256C17.4325 13.9256 17.4783 13.8724 17.4783 13.8192C17.4783 13.7554 17.5438 13.7128 17.6256 13.7128C17.7074 13.7128 17.7729 13.6596 17.7729 13.6064C17.7729 13.5319 18.4373 13.5 19.704 13.5H20.5127C20.7706 12.9156 21.4302 12.5 22.2032 12.5C23.2009 12.5 24.0096 13.1923 24.0096 14.0464C24.0096 14.9004 23.2009 15.5928 22.2032 15.5928C21.4649 15.5928 20.83 15.2136 20.5498 14.6704H19.7367C18.493 14.6704 17.8384 14.7023 17.8384 14.7768C17.8384 14.8406 17.7467 14.8831 17.6256 14.8831C17.5045 14.8831 17.4129 14.9257 17.4129 14.9895C17.4129 15.0427 17.3834 15.0959 17.3474 15.0959C17.3114 15.0959 17.2819 15.1704 17.2819 15.2555C17.2819 15.3406 17.2525 15.4151 17.2165 15.4151C17.1805 15.4151 17.151 15.4577 17.151 15.5215C17.151 15.5747 17.1281 15.6279 17.102 15.6279C17.0757 15.6279 17.0528 15.6705 17.0528 15.7343C17.0528 15.7875 17.0234 15.8407 16.9874 15.8407C16.9448 15.8407 16.9219 15.9152 16.9219 16.0322C16.9219 16.1386 16.8925 16.2875 16.8564 16.3727C16.8205 16.4578 16.791 16.5855 16.791 16.6599C16.791 16.7344 16.7746 16.7982 16.7583 16.7982C16.7386 16.7982 16.7255 16.894 16.7255 17.011C16.7255 17.128 16.7092 17.2238 16.6928 17.2238C16.6732 17.2238 16.6601 17.6494 16.6601 18.2878C16.6601 18.9261 16.6732 19.3517 16.6928 19.3517C16.7092 19.3517 16.7255 19.4262 16.7255 19.5113C16.7255 19.8092 16.9448 20.4157 17.0528 20.4157C17.1052 20.4157 17.151 20.3625 17.151 20.3093C17.151 20.2454 17.1805 20.2029 17.2165 20.2029C17.2525 20.2029 17.2819 20.1497 17.2819 20.0965C17.2819 20.0326 17.3114 19.9901 17.3474 19.9901C17.3834 19.9901 17.4129 19.9369 17.4129 19.8837C17.4129 19.8198 17.4653 19.7773 17.5274 19.7773C17.5896 19.7773 17.642 19.7241 17.642 19.6709C17.642 19.6071 17.7303 19.5645 17.8384 19.5645C17.9463 19.5645 18.0348 19.522 18.0348 19.4581C18.0348 19.3943 18.1395 19.3517 18.2802 19.3517C18.4766 19.3517 18.5257 19.3198 18.5257 19.1921C18.5257 19.0538 18.5944 19.0325 18.9512 19.0325C19.3079 19.0325 19.3767 19.0538 19.3767 19.1921C19.3767 19.3198 19.4225 19.3517 19.5894 19.3517C19.7105 19.3517 19.8022 19.3943 19.8022 19.4581C19.8022 19.5113 19.8742 19.5645 19.9658 19.5645C20.0542 19.5645 20.1295 19.6071 20.1295 19.6709C20.1295 19.7241 20.1589 19.7773 20.1949 19.7773C20.2309 19.7773 20.2604 19.8198 20.2604 19.8837C20.2604 19.9369 20.2768 19.9901 20.2931 19.9901C20.339 19.9901 20.4895 20.4795 20.4895 20.6285C20.4895 20.6817 20.5026 20.7348 20.5222 20.7348C20.5419 20.7348 20.555 21.0221 20.555 21.3732C20.555 21.9158 20.5419 22.0648 20.4732 22.2776C20.4306 22.4265 20.3651 22.5436 20.3259 22.5436C20.2898 22.5436 20.2604 22.5861 20.2604 22.65C20.2604 22.7031 20.2309 22.7563 20.1949 22.7563C20.1589 22.7563 20.1295 22.8308 20.1295 22.9159C20.1295 23.0223 20.0967 23.0755 20.0313 23.0755C19.9757 23.0755 19.9331 23.1181 19.9331 23.1819C19.9331 23.2351 19.8807 23.2883 19.8186 23.2883C19.7564 23.2883 19.704 23.3309 19.704 23.3947C19.704 23.4586 19.5796 23.5011 19.3931 23.5011C19.2065 23.5011 19.0821 23.5437 19.0821 23.6075C19.0821 23.6607 19.0068 23.7139 18.9185 23.7139C18.8268 23.7139 18.7548 23.6607 18.7548 23.6075C18.7548 23.5437 18.6402 23.5011 18.4766 23.5011C18.313 23.5011 18.1984 23.4586 18.1984 23.3947C18.1984 23.3309 18.1166 23.2883 18.0184 23.2883C17.9202 23.2883 17.8384 23.2351 17.8384 23.1819C17.8384 23.1181 17.7925 23.0755 17.7402 23.0755C17.6747 23.0755 17.642 23.0223 17.642 22.9159C17.642 22.8095 17.606 22.7563 17.5274 22.7563C17.4653 22.7563 17.4129 22.7031 17.4129 22.65C17.4129 22.5861 17.367 22.5436 17.3147 22.5436C17.259 22.5436 17.2165 22.4904 17.2165 22.4372C17.2165 22.3733 17.1805 22.3308 17.1347 22.3308C17.0888 22.3308 17.0528 22.2776 17.0528 22.2244C17.0528 22.0328 16.9514 22.118 16.8728 22.384C16.827 22.5223 16.791 22.7244 16.791 22.8308C16.791 22.9372 16.7615 23.0968 16.7255 23.1819C16.6666 23.3203 16.6601 23.4586 16.6601 24.3204C16.6601 24.9055 16.6732 25.3098 16.6928 25.3098C16.7092 25.3098 16.7255 25.3843 16.7255 25.4694C16.7255 25.5545 16.7386 25.629 16.7583 25.629C16.7746 25.629 16.791 25.7035 16.791 25.7886C16.791 25.8843 16.827 26.0759 16.8728 26.2142C16.9514 26.4802 17.0528 26.5653 17.0528 26.3738C17.0528 26.3099 17.0888 26.2674 17.1347 26.2674C17.1805 26.2674 17.2165 26.2142 17.2165 26.161C17.2165 26.0971 17.246 26.0546 17.2819 26.0546C17.318 26.0546 17.3474 26.0014 17.3474 25.9482C17.3474 25.8843 17.39 25.8418 17.4456 25.8418C17.498 25.8418 17.5438 25.7886 17.5438 25.7354C17.5438 25.6715 17.6354 25.629 17.7565 25.629C17.9235 25.629 17.9693 25.5971 17.9693 25.4694C17.9693 25.3418 18.0151 25.3098 18.182 25.3098C18.3031 25.3098 18.3948 25.2673 18.3948 25.2034C18.3948 25.1396 18.601 25.097 18.9512 25.097C19.3014 25.097 19.5076 25.1396 19.5076 25.2034C19.5076 25.2566 19.5894 25.3098 19.6876 25.3098C19.8251 25.3098 19.8676 25.3418 19.8676 25.4694C19.8676 25.5864 19.9036 25.629 19.9985 25.629C20.0706 25.629 20.1295 25.6715 20.1295 25.7354C20.1295 25.7886 20.1589 25.8418 20.1949 25.8418C20.2309 25.8418 20.2604 25.8843 20.2604 25.9482C20.2604 26.0014 20.2898 26.0546 20.3291 26.0546C20.4142 26.0546 20.4895 26.2993 20.4895 26.5759C20.4895 26.7036 20.5026 26.7993 20.5222 26.7993C20.5386 26.7993 20.555 27.0653 20.555 27.3845C20.555 27.7037 20.5386 27.9697 20.5222 27.9697C20.5026 27.9697 20.4895 28.0654 20.4895 28.1825C20.4895 28.3208 20.4666 28.3953 20.424 28.3953C20.388 28.3953 20.3586 28.4378 20.3586 28.5016C20.3586 28.5548 20.3226 28.608 20.2768 28.608C20.2309 28.608 20.1949 28.6506 20.1949 28.7144C20.1949 28.7676 20.1655 28.8208 20.1295 28.8208C20.0934 28.8208 20.064 28.8953 20.064 28.9804C20.064 29.0868 20.0313 29.14 19.9658 29.14C19.9102 29.14 19.8676 29.1826 19.8676 29.2464C19.8676 29.2996 19.8022 29.3528 19.7203 29.3528C19.6385 29.3528 19.5731 29.3954 19.5731 29.4592C19.5731 29.523 19.3341 29.5656 18.9185 29.5656C18.5028 29.5656 18.2639 29.523 18.2639 29.4592C18.2639 29.3954 18.182 29.3528 18.0838 29.3528C17.9856 29.3528 17.9038 29.2996 17.9038 29.2464C17.9038 29.1826 17.858 29.14 17.8056 29.14C17.7402 29.14 17.7074 29.0868 17.7074 28.9804C17.7074 28.874 17.6715 28.8208 17.5929 28.8208C17.5307 28.8208 17.4783 28.7676 17.4783 28.7144C17.4783 28.6506 17.4325 28.608 17.3802 28.608C17.3245 28.608 17.2819 28.5548 17.2819 28.5016C17.2819 28.4378 17.2296 28.3953 17.1674 28.3953C17.1052 28.3953 17.0528 28.3421 17.0528 28.2889C17.0528 28.2251 17.0299 28.1825 17.0037 28.1825C16.9285 28.1825 16.7255 28.8847 16.7255 29.14C16.7255 29.2571 16.7092 29.3528 16.6928 29.3528C16.6732 29.3528 16.6601 29.7571 16.6601 30.3636C16.6601 30.97 16.6732 31.3743 16.6928 31.3743C16.7092 31.3743 16.7255 31.4381 16.7255 31.5126C16.7255 31.5871 16.755 31.7148 16.791 31.7999C16.827 31.885 16.8564 32.0127 16.8564 32.0978C16.8564 32.1723 16.8761 32.3106 16.9023 32.3957C16.9579 32.5659 17.0528 32.5978 17.0528 32.4382C17.0528 32.3744 17.0888 32.3319 17.1347 32.3319C17.1805 32.3319 17.2165 32.2787 17.2165 32.2255C17.2165 32.1617 17.246 32.1191 17.2819 32.1191C17.318 32.1191 17.3474 32.0659 17.3474 32.0127C17.3474 31.9489 17.3768 31.9063 17.4129 31.9063C17.4488 31.9063 17.4783 31.8531 17.4783 31.7999C17.4783 31.736 17.5602 31.6935 17.6583 31.6935C17.7958 31.6935 17.8384 31.6616 17.8384 31.5339C17.8384 31.4062 17.8842 31.3743 18.0511 31.3743C18.1722 31.3743 18.2639 31.3318 18.2639 31.2679C18.2639 31.2041 18.5159 31.1615 18.9512 31.1615C19.3865 31.1615 19.6385 31.2041 19.6385 31.2679C19.6385 31.3211 19.7171 31.3743 19.8152 31.3743C19.9429 31.3743 19.9953 31.4169 20.0116 31.5339C20.0214 31.619 20.0673 31.6935 20.1131 31.6935C20.1589 31.6935 20.1949 31.736 20.1949 31.7999C20.1949 31.8531 20.2244 31.9063 20.2604 31.9063C20.2997 31.9063 20.3782 32.0765 20.4404 32.2787C20.5452 32.6191 20.555 32.6936 20.555 33.2894C20.555 33.832 20.5419 33.981 20.4732 34.1938C20.4306 34.3427 20.3651 34.4597 20.3259 34.4597C20.2898 34.4597 20.2604 34.5023 20.2604 34.5661C20.2604 34.6193 20.2309 34.6725 20.1949 34.6725C20.1589 34.6725 20.1295 34.7151 20.1295 34.7789C20.1295 34.8321 20.1 34.8853 20.064 34.8853C20.028 34.8853 19.9985 34.9279 19.9985 34.9918C19.9985 35.0449 19.9527 35.0981 19.9004 35.0981C19.8349 35.0981 19.8022 35.1513 19.8022 35.2577C19.8022 35.3854 19.7596 35.4173 19.6222 35.4173C19.5239 35.4173 19.4421 35.4598 19.4421 35.5237C19.4421 35.5875 19.2458 35.6301 18.9185 35.6301C18.5911 35.6301 18.3948 35.5875 18.3948 35.5237C18.3948 35.4598 18.3031 35.4173 18.182 35.4173C18.0151 35.4173 17.9693 35.3854 17.9693 35.2577C17.9693 35.1513 17.9365 35.0981 17.8711 35.0981C17.8155 35.0981 17.7729 35.0449 17.7729 34.9918C17.7729 34.9279 17.7205 34.8853 17.6583 34.8853C17.5962 34.8853 17.5438 34.8321 17.5438 34.7789C17.5438 34.7151 17.498 34.6725 17.4456 34.6725C17.39 34.6725 17.3474 34.6193 17.3474 34.5661C17.3474 34.5023 17.3016 34.4597 17.2492 34.4597C17.1936 34.4597 17.151 34.4065 17.151 34.3534C17.151 34.2895 17.1052 34.247 17.0528 34.247C16.935 34.247 16.7255 34.8534 16.7255 35.2045C16.7255 35.3215 16.7092 35.4173 16.6928 35.4173C16.6732 35.4173 16.6601 35.8216 16.6601 36.428C16.6601 37.0345 16.6732 37.4388 16.6928 37.4388C16.7092 37.4388 16.7255 37.5026 16.7255 37.5771C16.7255 37.6516 16.755 37.7793 16.791 37.8644C16.827 37.9495 16.8564 38.0772 16.8564 38.1517C16.8564 38.3538 17.0332 38.9284 17.0987 38.9284C17.1281 38.9284 17.151 38.9709 17.151 39.0347C17.151 39.0879 17.1936 39.1411 17.2492 39.1411C17.3016 39.1411 17.3474 39.1837 17.3474 39.2475C17.3474 39.3007 17.39 39.3539 17.4456 39.3539C17.498 39.3539 17.5438 39.3964 17.5438 39.4603C17.5438 39.5135 17.5962 39.5667 17.6583 39.5667C17.7205 39.5667 17.7729 39.6093 17.7729 39.6731C17.7729 39.7476 18.4373 39.7795 19.704 39.7795H20.5168C20.7775 39.1999 21.4343 38.7887 22.2032 38.7887C23.2009 38.7887 24.0096 39.481 24.0096 40.3351C24.0096 41.1891 23.2009 41.8815 22.2032 41.8815C21.4607 41.8815 20.8229 41.498 20.5451 40.9498H19.704C18.4373 40.9498 17.7729 40.9179 17.7729 40.8435C17.7729 40.7796 17.7205 40.7371 17.6583 40.7371C17.5962 40.7371 17.5438 40.6839 17.5438 40.6307C17.5438 40.5668 17.4849 40.5242 17.4129 40.5242C17.3409 40.5242 17.2819 40.471 17.2819 40.4178C17.2819 40.354 17.2296 40.3114 17.1674 40.3114C17.1052 40.3114 17.0528 40.2582 17.0528 40.2051C17.0528 40.1412 17.0234 40.0987 16.9874 40.0987C16.9514 40.0987 16.9219 40.0455 16.9219 39.9923C16.9219 39.8327 16.7681 39.3539 16.719 39.3539C16.6928 39.3539 16.6535 39.2581 16.6273 39.1411C16.6012 39.0241 16.5619 38.9284 16.539 38.9284C16.516 38.9284 16.4964 38.8113 16.4964 38.6623C16.4964 38.5134 16.4801 38.3963 16.4637 38.3963C16.444 38.3963 16.431 38.3006 16.431 38.1836C16.431 38.0665 16.4146 37.9708 16.3982 37.9708C16.3786 37.9708 16.3655 37.8538 16.3655 37.7048ZM17.4783 27.1185C17.4783 27.1717 17.4488 27.2249 17.4129 27.2249C17.3768 27.2249 17.3474 27.2675 17.3474 27.3313C17.3474 27.3845 17.3768 27.4377 17.4129 27.4377C17.4488 27.4377 17.4783 27.4803 17.4783 27.5441C17.4783 27.5973 17.5307 27.6505 17.5929 27.6505C17.6715 27.6505 17.7074 27.7037 17.7074 27.8101C17.7074 27.9165 17.7402 27.9697 17.8056 27.9697C17.858 27.9697 17.9038 28.0122 17.9038 28.0761C17.9038 28.1293 17.9693 28.1825 18.0511 28.1825C18.1329 28.1825 18.1984 28.2251 18.1984 28.2889C18.1984 28.3527 18.4864 28.3953 19.0003 28.3953C19.5141 28.3953 19.8022 28.3527 19.8022 28.2889C19.8022 28.2251 19.8447 28.1825 19.9004 28.1825C19.9527 28.1825 19.9985 28.1293 19.9985 28.0761C19.9985 28.0122 20.028 27.9697 20.064 27.9697C20.1131 27.9697 20.1295 27.8952 20.1295 27.7037C20.1295 27.5547 20.1426 27.4377 20.1622 27.4377C20.2113 27.4377 20.2015 27.1292 20.1491 26.9483C20.1229 26.8632 20.064 26.7993 20.0182 26.7993C19.9658 26.7993 19.9331 26.7355 19.9331 26.6397C19.9331 26.5227 19.8938 26.4802 19.7858 26.4802C19.704 26.4802 19.6385 26.427 19.6385 26.3738C19.6385 26.3099 19.4192 26.2674 19.0494 26.2674C18.6795 26.2674 18.4603 26.3099 18.4603 26.3738C18.4603 26.4376 18.3686 26.4802 18.2475 26.4802C18.0805 26.4802 18.0348 26.5121 18.0348 26.6397C18.0348 26.7461 18.002 26.7993 17.9365 26.7993C17.8809 26.7993 17.8384 26.8419 17.8384 26.9057C17.8384 26.9589 17.7565 27.0121 17.6583 27.0121C17.5602 27.0121 17.4783 27.0547 17.4783 27.1185ZM17.5438 21.054C17.5438 21.1072 17.498 21.1604 17.4456 21.1604C17.39 21.1604 17.3474 21.203 17.3474 21.2668C17.3474 21.32 17.3768 21.3732 17.4129 21.3732C17.4488 21.3732 17.4783 21.4158 17.4783 21.4796C17.4783 21.5328 17.5143 21.586 17.5602 21.586C17.6125 21.586 17.642 21.6498 17.642 21.7456C17.642 21.852 17.6747 21.9052 17.7402 21.9052C17.7925 21.9052 17.8384 21.9477 17.8384 22.0116C17.8384 22.0648 17.8973 22.118 17.9693 22.118C18.0413 22.118 18.1002 22.1605 18.1002 22.2244C18.1002 22.2882 18.1919 22.3308 18.313 22.3308C18.434 22.3308 18.5257 22.3733 18.5257 22.4372C18.5257 22.501 18.7123 22.5436 19.0166 22.5436C19.3211 22.5436 19.5076 22.501 19.5076 22.4372C19.5076 22.3733 19.5894 22.3308 19.6876 22.3308C19.7858 22.3308 19.8676 22.2776 19.8676 22.2244C19.8676 22.1605 19.8971 22.118 19.9331 22.118C19.9691 22.118 19.9985 22.0648 19.9985 22.0116C19.9985 21.9477 20.028 21.9052 20.064 21.9052C20.1 21.9052 20.1295 21.8307 20.1295 21.7456C20.1295 21.6605 20.1426 21.586 20.1622 21.586C20.1785 21.586 20.1949 21.4371 20.1949 21.2668C20.1949 21.0221 20.1819 20.9476 20.1295 20.9476C20.0934 20.9476 20.064 20.8944 20.064 20.8412C20.064 20.7774 20.0182 20.7348 19.9658 20.7348C19.9004 20.7348 19.8676 20.6817 19.8676 20.5753C19.8676 20.4582 19.8284 20.4157 19.7203 20.4157C19.6385 20.4157 19.5731 20.3625 19.5731 20.3093C19.5731 20.2454 19.3865 20.2029 19.0821 20.2029C18.7777 20.2029 18.5911 20.2454 18.5911 20.3093C18.5911 20.3731 18.5028 20.4157 18.3948 20.4157C18.2409 20.4157 18.1984 20.4476 18.1984 20.5753C18.1984 20.6923 18.1591 20.7348 18.0511 20.7348C17.9693 20.7348 17.9038 20.7774 17.9038 20.8412C17.9038 20.8944 17.822 20.9476 17.7238 20.9476C17.6256 20.9476 17.5438 20.9902 17.5438 21.054ZM17.7074 32.9702C17.7074 33.0234 17.642 33.0766 17.5602 33.0766C17.4358 33.0766 17.4129 33.1086 17.4129 33.2894C17.4129 33.4277 17.4358 33.5022 17.4783 33.5022C17.5143 33.5022 17.5438 33.5447 17.5438 33.6086C17.5438 33.6618 17.5962 33.715 17.6583 33.715C17.7369 33.715 17.7729 33.7682 17.7729 33.8746C17.7729 33.981 17.8056 34.0342 17.8711 34.0342C17.9235 34.0342 17.9693 34.0768 17.9693 34.1406C17.9693 34.1938 18.0511 34.247 18.1493 34.247C18.2475 34.247 18.3293 34.2895 18.3293 34.3534C18.3293 34.4172 18.5813 34.4597 19.0166 34.4597C19.4519 34.4597 19.704 34.4172 19.704 34.3534C19.704 34.2895 19.7564 34.247 19.8186 34.247C19.8807 34.247 19.9331 34.1938 19.9331 34.1406C19.9331 34.0768 19.9625 34.0342 19.9985 34.0342C20.0345 34.0342 20.064 33.9704 20.064 33.8959C20.064 33.8214 20.0934 33.6937 20.1295 33.6086C20.1655 33.5235 20.1949 33.3958 20.1949 33.3107C20.1949 33.1192 20.1131 32.8638 20.0509 32.8638C20.0214 32.8638 19.9985 32.7894 19.9985 32.7042C19.9985 32.5978 19.9658 32.5446 19.9004 32.5446C19.8447 32.5446 19.8022 32.4914 19.8022 32.4382C19.8022 32.3744 19.5338 32.3319 19.0657 32.3319C18.5977 32.3319 18.3293 32.3744 18.3293 32.4382C18.3293 32.4914 18.2475 32.5446 18.1493 32.5446C18.0118 32.5446 17.9693 32.5765 17.9693 32.7042C17.9693 32.8213 17.9333 32.8638 17.8384 32.8638C17.7664 32.8638 17.7074 32.9064 17.7074 32.9702ZM8.72296 15.9347C8.72296 16.0373 8.74294 16.1179 8.76286 16.1179C8.78681 16.1179 8.80276 16.433 8.80276 16.9239C8.80276 17.4148 8.78681 17.7298 8.76286 17.7298C8.74294 17.7298 8.72296 17.7958 8.72296 17.8764C8.72296 17.957 8.70702 18.0229 8.68307 18.0229C8.66315 18.0229 8.64322 18.0742 8.64322 18.1402C8.64322 18.2721 8.55145 18.4626 8.48761 18.4626C8.46366 18.4626 8.44374 18.5431 8.44374 18.6457C8.44374 18.7483 8.42779 18.8289 8.40384 18.8289C8.38387 18.8289 8.36394 18.8802 8.36394 18.9461C8.36394 19.078 8.45571 19.2686 8.51951 19.2686C8.54345 19.2686 8.56343 19.3418 8.56343 19.4371C8.56343 19.525 8.5993 19.6495 8.64322 19.7081C8.68709 19.7667 8.72296 19.8693 8.72296 19.9426C8.72296 20.0159 8.74294 20.0745 8.76286 20.0745C8.78681 20.0745 8.80276 20.4189 8.80276 20.9538C8.80276 21.4886 8.78681 21.833 8.76286 21.833C8.74294 21.833 8.72296 21.9063 8.72296 22.0015C8.72296 22.0894 8.68709 22.214 8.64322 22.2726C8.5993 22.3312 8.56343 22.4338 8.56343 22.5071C8.56343 22.5804 8.53551 22.639 8.50356 22.639C8.46769 22.639 8.44374 22.7049 8.44374 22.8222C8.44374 22.9247 8.42779 23.0053 8.40384 23.0053C8.38387 23.0053 8.36394 23.0566 8.36394 23.1226C8.36394 23.2544 8.45571 23.4449 8.51951 23.4449C8.54345 23.4449 8.56343 23.4962 8.56343 23.5548C8.56343 23.6135 8.58335 23.6647 8.60332 23.6647C8.62722 23.6647 8.64322 23.7307 8.64322 23.8113C8.64322 23.8919 8.66315 23.9578 8.68307 23.9578C8.70702 23.9578 8.72296 24.0238 8.72296 24.1044C8.72296 24.185 8.74294 24.2509 8.76286 24.2509C8.78681 24.2509 8.80276 24.5953 8.80276 25.1301C8.80276 25.665 8.78681 26.0094 8.76286 26.0094C8.74294 26.0094 8.72296 26.0827 8.72296 26.1779C8.72296 26.2659 8.68709 26.3904 8.64322 26.449C8.5993 26.5076 8.56343 26.6102 8.56343 26.6835C8.56343 26.7567 8.53551 26.8154 8.50356 26.8154C8.47166 26.8154 8.44374 26.8667 8.44374 26.9253C8.44374 26.9839 8.42779 27.0352 8.40384 27.0352C8.38387 27.0352 8.36394 27.1011 8.36394 27.1817C8.36394 27.2623 8.38387 27.3283 8.40384 27.3283C8.42779 27.3283 8.44374 27.3942 8.44374 27.4748C8.44374 27.5554 8.47166 27.6213 8.50356 27.6213C8.53551 27.6213 8.56343 27.6726 8.56343 27.7313C8.56343 27.7899 8.58335 27.8412 8.60332 27.8412C8.62722 27.8412 8.64322 27.9071 8.64322 27.9877C8.64322 28.0683 8.66315 28.1343 8.68307 28.1343C8.70702 28.1343 8.72296 28.2002 8.72296 28.2808C8.72296 28.3614 8.74294 28.4273 8.76286 28.4273C8.78681 28.4273 8.80276 28.7571 8.80276 29.2699C8.80276 29.7828 8.78681 30.1126 8.76286 30.1126C8.74294 30.1126 8.72296 30.1858 8.72296 30.2811C8.72296 30.369 8.68709 30.4936 8.64322 30.5522C8.5993 30.6108 8.56343 30.7133 8.56343 30.7866C8.56343 30.8599 8.53551 30.9186 8.50356 30.9186C8.46769 30.9186 8.44374 30.9845 8.44374 31.1017C8.44374 31.2043 8.42779 31.2849 8.40384 31.2849C8.38387 31.2849 8.36394 31.3362 8.36394 31.4021C8.36394 31.534 8.45571 31.7245 8.51951 31.7245C8.54345 31.7245 8.56343 31.7758 8.56343 31.8344C8.56343 31.893 8.58335 31.9443 8.60332 31.9443C8.62722 31.9443 8.64322 32.0103 8.64322 32.0909C8.64322 32.1714 8.66315 32.2374 8.68307 32.2374C8.70702 32.2374 8.72296 32.3033 8.72296 32.3839C8.72296 32.4645 8.74294 32.5305 8.76286 32.5305C8.78681 32.5305 8.80276 32.8748 8.80276 33.4097C8.80276 33.9446 8.78681 34.289 8.76286 34.289C8.74294 34.289 8.72296 34.3622 8.72296 34.4575C8.72296 34.5454 8.68709 34.67 8.64322 34.7286C8.5993 34.7872 8.56343 34.8898 8.56343 34.963C8.56343 35.0363 8.53551 35.0949 8.50356 35.0949C8.47166 35.0949 8.44374 35.1462 8.44374 35.2048C8.44374 35.2634 8.42779 35.3147 8.40384 35.3147C8.38387 35.3147 8.36394 35.3807 8.36394 35.4613C8.36394 35.5419 8.38387 35.6078 8.40384 35.6078C8.42779 35.6078 8.44374 35.6738 8.44374 35.7544C8.44374 35.835 8.47166 35.9009 8.50356 35.9009C8.53551 35.9009 8.56343 35.9522 8.56343 36.0108C8.56343 36.0694 8.58335 36.1207 8.60332 36.1207C8.62722 36.1207 8.64322 36.1866 8.64322 36.2673C8.64322 36.3479 8.66315 36.4138 8.68307 36.4138C8.70702 36.4138 8.72296 36.4797 8.72296 36.5604C8.72296 36.6409 8.74294 36.7069 8.76286 36.7069C8.78681 36.7069 8.80276 37.0513 8.80276 37.5861C8.80276 38.121 8.78681 38.4654 8.76286 38.4654C8.74294 38.4654 8.72296 38.5387 8.72296 38.6339C8.72296 38.7219 8.68709 38.8464 8.64322 38.905C8.5993 38.9636 8.56343 39.0662 8.56343 39.1322C8.56343 39.1981 8.53551 39.2713 8.50356 39.3007C8.47166 39.3226 8.44374 39.3886 8.44374 39.4545C8.44374 39.5131 8.42779 39.5644 8.40384 39.5644C8.38387 39.5644 8.36394 39.6157 8.36394 39.6743C8.36394 39.7329 8.32802 39.7843 8.28415 39.7843C8.24028 39.7843 8.20436 39.8209 8.20436 39.8575C8.20436 39.9015 8.17246 39.9308 8.13256 39.9308C8.09267 39.9308 8.03682 39.9967 8.00487 40.0773C7.97298 40.1579 7.90516 40.2239 7.85726 40.2239C7.80544 40.2239 7.76554 40.2605 7.76554 40.2972C7.76554 40.3411 7.72962 40.3704 7.68575 40.3704C7.64188 40.3704 7.60596 40.4217 7.60596 40.4803C7.60596 40.5536 7.56606 40.5902 7.48627 40.5902C7.42242 40.5902 7.36658 40.6269 7.36658 40.6635C7.36658 40.7075 7.28678 40.7367 7.18707 40.7367C7.08735 40.7367 7.00756 40.7734 7.00756 40.81C7.00756 40.8597 6.24745 40.8819 4.79616 40.8832C4.53771 41.4667 3.87869 41.8815 3.1065 41.8815C2.10882 41.8815 1.30005 41.1891 1.30005 40.3351C1.30005 39.481 2.10882 38.7887 3.1065 38.7887C4.00149 38.7887 4.74445 39.3458 4.88791 40.0771C6.22587 40.0745 6.92776 40.0522 6.92776 40.0041C6.92776 39.9601 7.03945 39.9308 7.18707 39.9308C7.33468 39.9308 7.44637 39.9015 7.44637 39.8575C7.44637 39.8209 7.48229 39.7843 7.52616 39.7843C7.57003 39.7843 7.60596 39.7329 7.60596 39.6743C7.60596 39.6157 7.64188 39.5644 7.68575 39.5644C7.72962 39.5644 7.76554 39.5351 7.76554 39.4912C7.76554 39.4545 7.79347 39.4179 7.82536 39.4179C7.85726 39.4179 7.88523 39.3886 7.88523 39.3446C7.88523 39.308 7.92111 39.2713 7.96498 39.2713C8.01685 39.2713 8.04477 39.22 8.04477 39.1395C8.04477 39.0662 8.08069 38.9636 8.12456 38.905C8.16844 38.8464 8.20436 38.7584 8.20436 38.7072C8.20436 38.6559 8.22433 38.6119 8.24425 38.6119C8.2682 38.6119 8.28415 38.546 8.28415 38.4654C8.28415 38.3848 8.30407 38.3189 8.32405 38.3189C8.348 38.3189 8.36394 38.0258 8.36394 37.5861C8.36394 37.1465 8.348 36.8535 8.32405 36.8535C8.30407 36.8535 8.28415 36.8022 8.28415 36.7435C8.28415 36.5383 8.01685 36.1207 7.88523 36.1207C7.82139 36.1207 7.76554 36.1574 7.76554 36.194C7.76554 36.238 7.72962 36.2673 7.68575 36.2673C7.64188 36.2673 7.60596 36.3039 7.60596 36.3406C7.60596 36.3845 7.57003 36.4138 7.52616 36.4138C7.48229 36.4138 7.44637 36.4505 7.44637 36.4871C7.44637 36.531 7.38253 36.5604 7.30676 36.5604C7.23094 36.5604 7.16709 36.597 7.16709 36.6336C7.16709 36.6776 7.05943 36.7069 6.92776 36.7069C6.7961 36.7069 6.68838 36.7362 6.68838 36.7801C6.68838 36.8241 6.56074 36.8535 6.38918 36.8535C6.1498 36.8535 6.08998 36.8754 6.08998 36.9633C6.08998 37.0586 6.00622 37.0732 5.57138 37.0732C5.13649 37.0732 5.05272 37.0586 5.05272 36.9633C5.05272 36.8754 4.99687 36.8535 4.79342 36.8535C4.6458 36.8535 4.53411 36.8241 4.53411 36.7801C4.53411 36.7435 4.44632 36.7069 4.33463 36.7069C4.22691 36.7069 4.1352 36.6776 4.1352 36.6336C4.1352 36.597 4.09927 36.5604 4.0554 36.5604C4.01148 36.5604 3.97561 36.531 3.97561 36.4871C3.97561 36.4505 3.95564 36.4138 3.93571 36.4138C3.87987 36.4138 3.69633 36.0767 3.69633 35.9742C3.69633 35.9376 3.68038 35.9009 3.65644 35.9009C3.63249 35.9009 3.61654 35.7031 3.61654 35.4613C3.61654 35.0876 3.63249 34.985 3.71631 34.8385C3.76813 34.7359 3.84792 34.6553 3.89582 34.6553C3.93969 34.6553 3.97561 34.626 3.97561 34.5821C3.97561 34.5454 4.01148 34.5088 4.0554 34.5088C4.09927 34.5088 4.1352 34.4575 4.1352 34.3989C4.1352 34.3256 4.17504 34.289 4.25484 34.289C4.32266 34.289 4.37453 34.2596 4.37453 34.2157C4.37453 34.1791 4.43837 34.1424 4.51419 34.1424C4.58996 34.1424 4.6538 34.1131 4.6538 34.0692C4.6538 34.0252 4.80539 33.9959 5.0328 33.9959C5.2602 33.9959 5.41179 33.9666 5.41179 33.9226C5.41179 33.886 5.50356 33.8493 5.61127 33.8493C5.72296 33.8493 5.81071 33.886 5.81071 33.9226C5.81071 33.9666 5.95037 33.9959 6.1498 33.9959C6.34929 33.9959 6.4889 34.0252 6.4889 34.0692C6.4889 34.1131 6.58867 34.1424 6.70836 34.1424C6.828 34.1424 6.92776 34.1791 6.92776 34.2157C6.92776 34.2596 6.98361 34.289 7.04745 34.289C7.12725 34.289 7.16709 34.3256 7.16709 34.3989C7.16709 34.4722 7.21102 34.5088 7.30676 34.5088C7.38253 34.5088 7.44637 34.5454 7.44637 34.5821C7.44637 34.626 7.50222 34.6553 7.56606 34.6553C7.63388 34.6553 7.68575 34.692 7.68575 34.7286C7.68575 34.7726 7.72962 34.8018 7.78547 34.8018C7.84131 34.8018 7.88523 34.8385 7.88523 34.8751C7.88523 35.007 8.0089 34.9484 8.10464 34.7652C8.16049 34.67 8.20436 34.5308 8.20436 34.4575C8.20436 34.3842 8.24028 34.2743 8.28415 34.2157C8.35594 34.1205 8.36394 34.0252 8.36394 33.4317C8.36394 33.0287 8.348 32.7503 8.32405 32.7503C8.30407 32.7503 8.28415 32.699 8.28415 32.6404C8.28415 32.5817 8.2682 32.5305 8.24425 32.5305C8.22433 32.5305 8.20436 32.4792 8.20436 32.4206C8.20436 32.3546 8.16049 32.2227 8.10464 32.1275C8.0089 31.9443 7.88523 31.8857 7.88523 32.0176C7.88523 32.0615 7.84131 32.0909 7.78547 32.0909C7.72962 32.0909 7.68575 32.1275 7.68575 32.1641C7.68575 32.2081 7.64983 32.2374 7.60596 32.2374C7.56209 32.2374 7.52616 32.274 7.52616 32.3107C7.52616 32.3546 7.47429 32.3839 7.40647 32.3839C7.34263 32.3839 7.28678 32.4206 7.28678 32.4572C7.28678 32.5012 7.17509 32.5305 7.02748 32.5305C6.82402 32.5305 6.76818 32.5525 6.76818 32.6404C6.76818 32.7283 6.71233 32.7503 6.50887 32.7503C6.36126 32.7503 6.24957 32.7796 6.24957 32.8236C6.24957 32.8675 5.99822 32.8969 5.57138 32.8969C5.14449 32.8969 4.89313 32.8675 4.89313 32.8236C4.89313 32.7869 4.79342 32.7503 4.67373 32.7503C4.50619 32.7503 4.45432 32.7283 4.45432 32.6404C4.45432 32.5598 4.41045 32.5305 4.29473 32.5305C4.20699 32.5305 4.1352 32.5012 4.1352 32.4572C4.1352 32.4206 4.09927 32.3839 4.0554 32.3839C4.01148 32.3839 3.97561 32.3546 3.97561 32.3107C3.97561 32.274 3.93969 32.2374 3.89184 32.2374C3.7881 32.2374 3.69633 32.0689 3.69633 31.8783C3.69633 31.7905 3.68038 31.7245 3.65644 31.7245C3.63651 31.7245 3.61654 31.5413 3.61654 31.3215C3.61654 31.1017 3.63651 30.9186 3.65644 30.9186C3.68038 30.9186 3.69633 30.8526 3.69633 30.772C3.69633 30.6767 3.72426 30.6255 3.77613 30.6255C3.82 30.6255 3.85592 30.5961 3.85592 30.5522C3.85592 30.5156 3.89979 30.4789 3.95564 30.4789C4.01148 30.4789 4.0554 30.4496 4.0554 30.4056C4.0554 30.369 4.09127 30.3324 4.1352 30.3324C4.17907 30.3324 4.21494 30.2811 4.21494 30.2225C4.21494 30.1492 4.25484 30.1126 4.33463 30.1126C4.40245 30.1126 4.45432 30.0832 4.45432 30.0393C4.45432 30.0026 4.53411 29.966 4.63383 29.966C4.7336 29.966 4.81339 29.9367 4.81339 29.8927C4.81339 29.8488 5.10459 29.8195 5.61127 29.8195C6.11791 29.8195 6.40911 29.8488 6.40911 29.8927C6.40911 29.9367 6.50887 29.966 6.62856 29.966C6.74825 29.966 6.84797 30.0026 6.84797 30.0393C6.84797 30.0832 6.90382 30.1126 6.96766 30.1126C7.04745 30.1126 7.08735 30.1492 7.08735 30.2225C7.08735 30.2957 7.13122 30.3324 7.22696 30.3324C7.30273 30.3324 7.36658 30.369 7.36658 30.4056C7.36658 30.4496 7.42242 30.4789 7.48627 30.4789C7.55409 30.4789 7.60596 30.5156 7.60596 30.5522C7.60596 30.5961 7.6698 30.6255 7.74557 30.6255C7.82139 30.6255 7.88523 30.6621 7.88523 30.6987C7.88523 30.7427 7.91316 30.772 7.94505 30.772C8.03682 30.772 8.28415 30.2884 8.28415 30.1126C8.28415 30.032 8.30407 29.966 8.32405 29.966C8.348 29.966 8.36394 29.6876 8.36394 29.2699C8.36394 28.8523 8.348 28.5739 8.32405 28.5739C8.30407 28.5739 8.28415 28.5226 8.28415 28.464C8.28415 28.2588 8.01685 27.8412 7.88523 27.8412C7.82139 27.8412 7.76554 27.8778 7.76554 27.9144C7.76554 27.9584 7.72962 27.9877 7.68575 27.9877C7.64188 27.9877 7.60596 28.0243 7.60596 28.061C7.60596 28.1049 7.57003 28.1343 7.52616 28.1343C7.48229 28.1343 7.44637 28.1709 7.44637 28.2075C7.44637 28.2515 7.38253 28.2808 7.30676 28.2808C7.23094 28.2808 7.16709 28.3174 7.16709 28.3541C7.16709 28.398 7.05943 28.4273 6.92776 28.4273C6.7961 28.4273 6.68838 28.4566 6.68838 28.5006C6.68838 28.5446 6.56074 28.5739 6.38918 28.5739C6.1498 28.5739 6.08998 28.5959 6.08998 28.6838C6.08998 28.779 6.00622 28.7937 5.57138 28.7937C5.13649 28.7937 5.05272 28.779 5.05272 28.6838C5.05272 28.5959 4.99687 28.5739 4.79342 28.5739C4.6458 28.5739 4.53411 28.5446 4.53411 28.5006C4.53411 28.464 4.44632 28.4273 4.33463 28.4273C4.22691 28.4273 4.1352 28.398 4.1352 28.3541C4.1352 28.3174 4.09927 28.2808 4.0554 28.2808C4.01148 28.2808 3.97561 28.2515 3.97561 28.2075C3.97561 28.1709 3.95564 28.1343 3.93571 28.1343C3.87987 28.1343 3.69633 27.7972 3.69633 27.6946C3.69633 27.658 3.68038 27.6213 3.65644 27.6213C3.63249 27.6213 3.61654 27.4236 3.61654 27.1817C3.61654 26.808 3.63249 26.7055 3.71631 26.5589C3.76813 26.4563 3.84792 26.3758 3.89582 26.3758C3.93969 26.3758 3.97561 26.3464 3.97561 26.3025C3.97561 26.2659 4.01148 26.2292 4.0554 26.2292C4.09927 26.2292 4.1352 26.1779 4.1352 26.1193C4.1352 26.046 4.17504 26.0094 4.25484 26.0094C4.32266 26.0094 4.37453 25.9801 4.37453 25.9361C4.37453 25.8995 4.43837 25.8629 4.51419 25.8629C4.58996 25.8629 4.6538 25.8336 4.6538 25.7896C4.6538 25.7456 4.80539 25.7163 5.0328 25.7163C5.2602 25.7163 5.41179 25.687 5.41179 25.643C5.41179 25.6064 5.50356 25.5698 5.61127 25.5698C5.72296 25.5698 5.81071 25.6064 5.81071 25.643C5.81071 25.687 5.95037 25.7163 6.1498 25.7163C6.34929 25.7163 6.4889 25.7456 6.4889 25.7896C6.4889 25.8336 6.58867 25.8629 6.70836 25.8629C6.828 25.8629 6.92776 25.8995 6.92776 25.9361C6.92776 25.9801 6.98361 26.0094 7.04745 26.0094C7.12725 26.0094 7.16709 26.046 7.16709 26.1193C7.16709 26.1926 7.21102 26.2292 7.30676 26.2292C7.38253 26.2292 7.44637 26.2659 7.44637 26.3025C7.44637 26.3464 7.50222 26.3758 7.56606 26.3758C7.63388 26.3758 7.68575 26.4124 7.68575 26.449C7.68575 26.493 7.72962 26.5223 7.78547 26.5223C7.84131 26.5223 7.88523 26.5589 7.88523 26.5956C7.88523 26.7275 8.0089 26.6689 8.10464 26.4857C8.16049 26.3904 8.20436 26.2512 8.20436 26.1779C8.20436 26.1047 8.24028 25.9947 8.28415 25.9361C8.35594 25.8409 8.36394 25.7456 8.36394 25.1522C8.36394 24.7492 8.348 24.4707 8.32405 24.4707C8.30407 24.4707 8.28415 24.4194 8.28415 24.3608C8.28415 24.3022 8.2682 24.2509 8.24425 24.2509C8.22433 24.2509 8.20436 24.1996 8.20436 24.141C8.20436 24.075 8.16049 23.9432 8.10464 23.8479C8.0089 23.6647 7.88523 23.6061 7.88523 23.738C7.88523 23.782 7.84131 23.8113 7.78547 23.8113C7.72962 23.8113 7.68575 23.8479 7.68575 23.8846C7.68575 23.9286 7.64983 23.9578 7.60596 23.9578C7.56209 23.9578 7.52616 23.9945 7.52616 24.0311C7.52616 24.075 7.47429 24.1044 7.40647 24.1044C7.34263 24.1044 7.28678 24.141 7.28678 24.1776C7.28678 24.2216 7.17509 24.2509 7.02748 24.2509C6.82402 24.2509 6.76818 24.2729 6.76818 24.3608C6.76818 24.4488 6.71233 24.4707 6.50887 24.4707C6.36126 24.4707 6.24957 24.5 6.24957 24.544C6.24957 24.588 5.99822 24.6173 5.57138 24.6173C5.14449 24.6173 4.89313 24.588 4.89313 24.544C4.89313 24.5074 4.79342 24.4707 4.67373 24.4707C4.50619 24.4707 4.45432 24.4488 4.45432 24.3608C4.45432 24.2803 4.41045 24.2509 4.29473 24.2509C4.20699 24.2509 4.1352 24.2216 4.1352 24.1776C4.1352 24.141 4.09927 24.1044 4.0554 24.1044C4.01148 24.1044 3.97561 24.075 3.97561 24.0311C3.97561 23.9945 3.93969 23.9578 3.89184 23.9578C3.7881 23.9578 3.69633 23.7893 3.69633 23.5988C3.69633 23.5109 3.68038 23.4449 3.65644 23.4449C3.63651 23.4449 3.61654 23.2617 3.61654 23.042C3.61654 22.8222 3.63651 22.639 3.65644 22.639C3.68038 22.639 3.69633 22.573 3.69633 22.4924C3.69633 22.3972 3.72426 22.3459 3.77613 22.3459C3.82 22.3459 3.85592 22.3166 3.85592 22.2726C3.85592 22.236 3.89979 22.1993 3.95564 22.1993C4.01148 22.1993 4.0554 22.17 4.0554 22.1261C4.0554 22.0894 4.09127 22.0528 4.1352 22.0528C4.17907 22.0528 4.21494 22.0015 4.21494 21.9429C4.21494 21.8696 4.25484 21.833 4.33463 21.833C4.40245 21.833 4.45432 21.8037 4.45432 21.7597C4.45432 21.7231 4.53411 21.6864 4.63383 21.6864C4.7336 21.6864 4.81339 21.6572 4.81339 21.6132C4.81339 21.5692 5.10459 21.5399 5.61127 21.5399C6.11791 21.5399 6.40911 21.5692 6.40911 21.6132C6.40911 21.6572 6.50887 21.6864 6.62856 21.6864C6.74825 21.6864 6.84797 21.7231 6.84797 21.7597C6.84797 21.8037 6.90382 21.833 6.96766 21.833C7.04745 21.833 7.08735 21.8696 7.08735 21.9429C7.08735 22.0162 7.13122 22.0528 7.22696 22.0528C7.30273 22.0528 7.36658 22.0894 7.36658 22.1261C7.36658 22.17 7.42242 22.1993 7.48627 22.1993C7.55409 22.1993 7.60596 22.236 7.60596 22.2726C7.60596 22.3166 7.6698 22.3459 7.74557 22.3459C7.82139 22.3459 7.88523 22.3825 7.88523 22.4192C7.88523 22.4631 7.91316 22.4924 7.94505 22.4924C8.03682 22.4924 8.28415 22.0089 8.28415 21.833C8.28415 21.7524 8.30407 21.6864 8.32405 21.6864C8.348 21.6864 8.36394 21.408 8.36394 20.9904C8.36394 20.5727 8.348 20.2943 8.32405 20.2943C8.30407 20.2943 8.28415 20.2504 8.28415 20.1991C8.28415 20.1478 8.24823 20.0598 8.20436 20.0012C8.16049 19.9426 8.12456 19.8547 8.12456 19.7961C8.12456 19.7448 8.10062 19.6495 8.06872 19.5909C8.0009 19.4737 7.88523 19.4517 7.88523 19.5616C7.88523 19.6056 7.84131 19.6349 7.78547 19.6349C7.72962 19.6349 7.68575 19.6715 7.68575 19.7081C7.68575 19.7521 7.64983 19.7814 7.60596 19.7814C7.56209 19.7814 7.52616 19.818 7.52616 19.8547C7.52616 19.8987 7.49024 19.928 7.44637 19.928C7.4025 19.928 7.36658 19.9646 7.36658 20.0012C7.36658 20.0452 7.26686 20.0745 7.14717 20.0745C6.97963 20.0745 6.92776 20.0965 6.92776 20.1844C6.92776 20.2723 6.87192 20.2943 6.66846 20.2943C6.52085 20.2943 6.40911 20.3236 6.40911 20.3676C6.40911 20.4115 6.10196 20.4409 5.57138 20.4409C5.04075 20.4409 4.7336 20.4115 4.7336 20.3676C4.7336 20.331 4.63786 20.2943 4.51817 20.2943C4.36255 20.2943 4.29876 20.265 4.27878 20.1844C4.26681 20.1258 4.21096 20.0745 4.15512 20.0745C4.09927 20.0745 4.0554 20.0452 4.0554 20.0012C4.0554 19.9646 4.01948 19.928 3.97561 19.928C3.92771 19.928 3.83197 19.8107 3.7562 19.6715C3.62851 19.4371 3.61654 19.3858 3.61654 18.9755C3.61654 18.6017 3.63249 18.4992 3.71631 18.3527C3.76813 18.25 3.84792 18.1695 3.89582 18.1695C3.93969 18.1695 3.97561 18.1402 3.97561 18.0962C3.97561 18.0596 4.01148 18.0229 4.0554 18.0229C4.09927 18.0229 4.1352 17.9936 4.1352 17.9497C4.1352 17.913 4.17107 17.8764 4.21494 17.8764C4.25886 17.8764 4.29473 17.8471 4.29473 17.8031C4.29473 17.7665 4.35058 17.7298 4.41442 17.7298C4.49422 17.7298 4.53411 17.6932 4.53411 17.6199C4.53411 17.532 4.58598 17.51 4.75352 17.51C4.87321 17.51 4.97293 17.4807 4.97293 17.4367C4.97293 17.3928 5.21231 17.3635 5.61127 17.3635C6.01019 17.3635 6.24957 17.3928 6.24957 17.4367C6.24957 17.4807 6.36126 17.51 6.50887 17.51C6.71233 17.51 6.76818 17.532 6.76818 17.6199C6.76818 17.6932 6.80807 17.7298 6.88787 17.7298C6.95569 17.7298 7.00756 17.7665 7.00756 17.8031C7.00756 17.8471 7.07135 17.8764 7.14717 17.8764C7.22299 17.8764 7.28678 17.913 7.28678 17.9497C7.28678 17.9936 7.34263 18.0229 7.40647 18.0229C7.47429 18.0229 7.52616 18.0596 7.52616 18.0962C7.52616 18.1402 7.58201 18.1695 7.64585 18.1695C7.71367 18.1695 7.76554 18.2061 7.76554 18.2427C7.76554 18.2867 7.82139 18.316 7.88523 18.316C8.02882 18.316 8.28415 17.8984 8.28415 17.6566C8.28415 17.576 8.30407 17.51 8.32405 17.51C8.348 17.51 8.36394 17.2316 8.36394 16.814C8.36394 16.3963 8.348 16.1179 8.32405 16.1179C8.30407 16.1179 8.28415 16.074 8.28415 16.0227C8.28415 15.9714 8.24823 15.8835 8.20436 15.8248C8.16049 15.7662 8.12456 15.6783 8.12456 15.627C8.12456 15.4878 7.90913 15.0921 7.82934 15.0921C7.79347 15.0921 7.76554 15.0628 7.76554 15.0189C7.76554 14.9822 7.71367 14.9456 7.64585 14.9456C7.58201 14.9456 7.52616 14.9163 7.52616 14.8723C7.52616 14.8357 7.47429 14.799 7.40647 14.799C7.34263 14.799 7.28678 14.7697 7.28678 14.7258C7.28678 14.6891 7.22299 14.6525 7.14717 14.6525C7.07135 14.6525 7.00756 14.6232 7.00756 14.5792C7.00756 14.5299 6.25988 14.5077 4.8318 14.5061C4.60314 15.1356 3.91718 15.5928 3.1065 15.5928C2.10882 15.5928 1.30005 14.9004 1.30005 14.0464C1.30005 13.1923 2.10882 12.5 3.1065 12.5C3.96512 12.5 4.68383 13.0128 4.8675 13.7001C6.27234 13.7021 7.00756 13.7244 7.00756 13.7732C7.00756 13.8172 7.07135 13.8465 7.14717 13.8465C7.22299 13.8465 7.28678 13.8831 7.28678 13.9198C7.28678 13.9638 7.35863 13.993 7.44637 13.993C7.53416 13.993 7.60596 14.0297 7.60596 14.0663C7.60596 14.1103 7.6698 14.1396 7.74557 14.1396C7.82139 14.1396 7.88523 14.1762 7.88523 14.2129C7.88523 14.2569 7.92111 14.2861 7.96498 14.2861C8.0089 14.2861 8.04477 14.3228 8.04477 14.3594C8.04477 14.4693 8.23228 14.799 8.29215 14.799C8.32405 14.799 8.37189 14.865 8.40384 14.9456C8.43574 15.0262 8.48363 15.0921 8.51156 15.0921C8.53948 15.0921 8.56343 15.1727 8.56343 15.2753C8.56343 15.3779 8.58335 15.4585 8.60332 15.4585C8.62722 15.4585 8.64322 15.5244 8.64322 15.605C8.64322 15.6856 8.66315 15.7515 8.68307 15.7515C8.70702 15.7515 8.72296 15.8322 8.72296 15.9347ZM7.36658 23.2251C7.36658 23.1885 7.4025 23.1519 7.44637 23.1519C7.49024 23.1519 7.52616 23.1226 7.52616 23.0786C7.52616 23.042 7.49024 23.0053 7.44637 23.0053C7.4025 23.0053 7.36658 22.976 7.36658 22.9321C7.36658 22.8954 7.30273 22.8588 7.22696 22.8588C7.13122 22.8588 7.08735 22.8222 7.08735 22.7489C7.08735 22.6756 7.04745 22.639 6.96766 22.639C6.90382 22.639 6.84797 22.6097 6.84797 22.5657C6.84797 22.5291 6.76818 22.4924 6.66846 22.4924C6.56869 22.4924 6.4889 22.4631 6.4889 22.4192C6.4889 22.3752 6.13783 22.3459 5.51151 22.3459C4.88518 22.3459 4.53411 22.3752 4.53411 22.4192C4.53411 22.4631 4.48224 22.4924 4.41442 22.4924C4.35058 22.4924 4.29473 22.5291 4.29473 22.5657C4.29473 22.6097 4.25886 22.639 4.21494 22.639C4.15512 22.639 4.1352 22.6903 4.1352 22.8222C4.1352 22.9247 4.1192 23.0053 4.0953 23.0053C4.03543 23.0053 4.0474 23.2178 4.11125 23.3424C4.14315 23.401 4.21494 23.4449 4.27084 23.4449C4.33463 23.4449 4.37453 23.4889 4.37453 23.5548C4.37453 23.6355 4.42242 23.6647 4.55404 23.6647C4.6538 23.6647 4.7336 23.7014 4.7336 23.738C4.7336 23.782 5.00085 23.8113 5.45169 23.8113C5.90247 23.8113 6.16978 23.782 6.16978 23.738C6.16978 23.6941 6.28147 23.6647 6.42908 23.6647C6.63254 23.6647 6.68838 23.6428 6.68838 23.5548C6.68838 23.4816 6.72828 23.4449 6.80807 23.4449C6.87589 23.4449 6.92776 23.4156 6.92776 23.3717C6.92776 23.335 7.02748 23.2984 7.14717 23.2984C7.26686 23.2984 7.36658 23.2691 7.36658 23.2251ZM7.28678 27.4015C7.28678 27.3649 7.34263 27.3283 7.40647 27.3283C7.47429 27.3283 7.52616 27.299 7.52616 27.255C7.52616 27.2183 7.49024 27.1817 7.44637 27.1817C7.4025 27.1817 7.36658 27.1524 7.36658 27.1084C7.36658 27.0718 7.32271 27.0352 7.26686 27.0352C7.20302 27.0352 7.16709 26.9912 7.16709 26.9253C7.16709 26.852 7.12725 26.8154 7.04745 26.8154C6.98361 26.8154 6.92776 26.7861 6.92776 26.7421C6.92776 26.7055 6.85592 26.6689 6.76818 26.6689C6.68044 26.6689 6.60859 26.6395 6.60859 26.5956C6.60859 26.5516 6.4969 26.5223 6.34929 26.5223C6.20167 26.5223 6.08998 26.493 6.08998 26.449C6.08998 26.405 5.86258 26.3758 5.49158 26.3758C5.12054 26.3758 4.89313 26.405 4.89313 26.449C4.89313 26.493 4.79342 26.5223 4.67373 26.5223C4.55404 26.5223 4.45432 26.5589 4.45432 26.5956C4.45432 26.6395 4.4184 26.6689 4.37453 26.6689C4.33065 26.6689 4.29473 26.7055 4.29473 26.7421C4.29473 26.7861 4.25886 26.8154 4.21494 26.8154C4.17107 26.8154 4.1352 26.8667 4.1352 26.9253C4.1352 26.9839 4.1192 27.0352 4.0953 27.0352C4.07533 27.0352 4.0554 27.1378 4.0554 27.255C4.0554 27.4236 4.07135 27.4748 4.1352 27.4748C4.17907 27.4748 4.21494 27.5114 4.21494 27.5481C4.21494 27.5921 4.27084 27.6213 4.33463 27.6213C4.41442 27.6213 4.45432 27.658 4.45432 27.7313C4.45432 27.8119 4.50222 27.8412 4.63383 27.8412C4.7336 27.8412 4.81339 27.8778 4.81339 27.9144C4.81339 27.9584 5.04075 27.9877 5.41179 27.9877C5.78278 27.9877 6.01019 27.9584 6.01019 27.9144C6.01019 27.8705 6.11791 27.8412 6.24957 27.8412C6.43708 27.8412 6.4889 27.8192 6.4889 27.7313C6.4889 27.6507 6.5368 27.6213 6.66846 27.6213C6.76818 27.6213 6.84797 27.5921 6.84797 27.5481C6.84797 27.5114 6.94769 27.4748 7.06738 27.4748C7.18707 27.4748 7.28678 27.4455 7.28678 27.4015ZM7.36658 31.5047C7.36658 31.468 7.4025 31.4314 7.44637 31.4314C7.49024 31.4314 7.52616 31.4021 7.52616 31.3581C7.52616 31.3215 7.49024 31.2849 7.44637 31.2849C7.4025 31.2849 7.36658 31.2556 7.36658 31.2116C7.36658 31.175 7.30273 31.1383 7.22696 31.1383C7.13122 31.1383 7.08735 31.1017 7.08735 31.0285C7.08735 30.9552 7.04745 30.9186 6.96766 30.9186C6.90382 30.9186 6.84797 30.8892 6.84797 30.8453C6.84797 30.8086 6.76818 30.772 6.66846 30.772C6.56869 30.772 6.4889 30.7427 6.4889 30.6987C6.4889 30.6547 6.13783 30.6255 5.51151 30.6255C4.88518 30.6255 4.53411 30.6547 4.53411 30.6987C4.53411 30.7427 4.48224 30.772 4.41442 30.772C4.35058 30.772 4.29473 30.8086 4.29473 30.8453C4.29473 30.8892 4.25886 30.9186 4.21494 30.9186C4.15512 30.9186 4.1352 30.9698 4.1352 31.1017C4.1352 31.2043 4.1192 31.2849 4.0953 31.2849C4.03543 31.2849 4.0474 31.4974 4.11125 31.6219C4.14315 31.6806 4.21494 31.7245 4.27084 31.7245C4.33463 31.7245 4.37453 31.7684 4.37453 31.8344C4.37453 31.915 4.42242 31.9443 4.55404 31.9443C4.6538 31.9443 4.7336 31.9809 4.7336 32.0176C4.7336 32.0615 5.00085 32.0909 5.45169 32.0909C5.90247 32.0909 6.16978 32.0615 6.16978 32.0176C6.16978 31.9736 6.28147 31.9443 6.42908 31.9443C6.63254 31.9443 6.68838 31.9223 6.68838 31.8344C6.68838 31.7611 6.72828 31.7245 6.80807 31.7245C6.87589 31.7245 6.92776 31.6952 6.92776 31.6512C6.92776 31.6146 7.02748 31.578 7.14717 31.578C7.26686 31.578 7.36658 31.5487 7.36658 31.5047ZM7.28678 35.6811C7.28678 35.6445 7.34263 35.6078 7.40647 35.6078C7.47429 35.6078 7.52616 35.5785 7.52616 35.5346C7.52616 35.4979 7.49024 35.4613 7.44637 35.4613C7.4025 35.4613 7.36658 35.432 7.36658 35.388C7.36658 35.3514 7.32271 35.3147 7.26686 35.3147C7.20302 35.3147 7.16709 35.2708 7.16709 35.2048C7.16709 35.1316 7.12725 35.0949 7.04745 35.0949C6.98361 35.0949 6.92776 35.0656 6.92776 35.0217C6.92776 34.985 6.85592 34.9484 6.76818 34.9484C6.68044 34.9484 6.60859 34.9191 6.60859 34.8751C6.60859 34.8312 6.4969 34.8018 6.34929 34.8018C6.20167 34.8018 6.08998 34.7726 6.08998 34.7286C6.08998 34.6846 5.86258 34.6553 5.49158 34.6553C5.12054 34.6553 4.89313 34.6846 4.89313 34.7286C4.89313 34.7726 4.79342 34.8018 4.67373 34.8018C4.55404 34.8018 4.45432 34.8385 4.45432 34.8751C4.45432 34.9191 4.4184 34.9484 4.37453 34.9484C4.33065 34.9484 4.29473 34.985 4.29473 35.0217C4.29473 35.0656 4.25886 35.0949 4.21494 35.0949C4.17107 35.0949 4.1352 35.1462 4.1352 35.2048C4.1352 35.2634 4.1192 35.3147 4.0953 35.3147C4.07533 35.3147 4.0554 35.4173 4.0554 35.5346C4.0554 35.7031 4.07135 35.7544 4.1352 35.7544C4.17907 35.7544 4.21494 35.791 4.21494 35.8276C4.21494 35.8716 4.27084 35.9009 4.33463 35.9009C4.41442 35.9009 4.45432 35.9376 4.45432 36.0108C4.45432 36.0914 4.50222 36.1207 4.63383 36.1207C4.7336 36.1207 4.81339 36.1574 4.81339 36.194C4.81339 36.238 5.04075 36.2673 5.41179 36.2673C5.78278 36.2673 6.01019 36.238 6.01019 36.194C6.01019 36.15 6.11791 36.1207 6.24957 36.1207C6.43708 36.1207 6.4889 36.0988 6.4889 36.0108C6.4889 35.9302 6.5368 35.9009 6.66846 35.9009C6.76818 35.9009 6.84797 35.8716 6.84797 35.8276C6.84797 35.791 6.94769 35.7544 7.06738 35.7544C7.18707 35.7544 7.28678 35.725 7.28678 35.6811ZM7.08735 19.1953C7.08735 19.1586 7.16709 19.122 7.26686 19.122C7.41845 19.122 7.44637 19.1 7.44637 18.9755C7.44637 18.8802 7.41845 18.8289 7.36658 18.8289C7.32271 18.8289 7.28678 18.7996 7.28678 18.7556C7.28678 18.719 7.22299 18.6824 7.14717 18.6824C7.05143 18.6824 7.00756 18.6457 7.00756 18.5725C7.00756 18.4992 6.96766 18.4626 6.88787 18.4626C6.82402 18.4626 6.76818 18.4332 6.76818 18.3893C6.76818 18.3527 6.66846 18.316 6.54877 18.316C6.42908 18.316 6.32936 18.2867 6.32936 18.2427C6.32936 18.1988 6.02216 18.1695 5.49158 18.1695C4.961 18.1695 4.6538 18.1988 4.6538 18.2427C4.6538 18.2867 4.58996 18.316 4.51419 18.316C4.43837 18.316 4.37453 18.3527 4.37453 18.3893C4.37453 18.4332 4.33865 18.4626 4.29473 18.4626C4.25086 18.4626 4.21494 18.5065 4.21494 18.5578C4.21494 18.6091 4.17907 18.697 4.1352 18.7556C4.09127 18.8143 4.0554 18.9022 4.0554 18.9608C4.0554 19.0927 4.15512 19.2686 4.23094 19.2686C4.26681 19.2686 4.29473 19.3198 4.29473 19.3785C4.29473 19.4517 4.33463 19.4883 4.41442 19.4883C4.48224 19.4883 4.53411 19.525 4.53411 19.5616C4.53411 19.6056 4.86124 19.6349 5.43171 19.6349C6.00219 19.6349 6.32936 19.6056 6.32936 19.5616C6.32936 19.525 6.42908 19.4883 6.54877 19.4883C6.71631 19.4883 6.76818 19.4664 6.76818 19.3785C6.76818 19.2978 6.81205 19.2686 6.92776 19.2686C7.01551 19.2686 7.08735 19.2392 7.08735 19.1953ZM40.1291 21.8041L41.6936 29.5361H38.5647L40.1291 21.8041ZM76.7902 25.4124L75.2258 17.6804L73.6614 25.4124H76.7902ZM142.323 20.2577L143.887 27.9897H140.758L142.323 20.2577Z" fill="#075611"/>
</svg>
