<svg width="125" height="30" viewBox="0 0 125 30" fill="none" xmlns="http://www.w3.org/2000/svg">
<path fill-rule="evenodd" clip-rule="evenodd" d="M0.805555 0.819614C-0.133916 1.45419 -0.176616 1.66571 0.293119 2.12398C0.805555 2.65277 0.933682 2.65277 1.87312 2.12398C3.36772 1.34841 5.5883 1.41893 9.64511 2.51177C11.6094 3.0053 14.0008 3.42831 14.9403 3.42831C17.2035 3.42831 20.4063 2.19447 20.4063 1.31318C20.4063 0.255587 19.6803 0.149829 18.2711 0.995878C16.563 2.05346 13.9154 2.0182 9.17537 0.819614C4.81963 -0.273205 2.34286 -0.273205 0.805555 0.819614ZM0.384329 5.39364C-0.085402 4.93537 -0.0427015 4.72385 0.896769 4.08931C2.43408 2.99647 4.91086 2.99647 9.26659 4.08931C14.0066 5.2879 16.6542 5.32316 18.3623 4.26557C19.7715 3.41952 20.4975 3.52526 20.4975 4.58284C20.4975 5.46416 17.2948 6.69801 15.0315 6.69801C14.092 6.69801 11.7007 6.27496 9.73633 5.78143C5.67952 4.68859 3.45894 4.6181 1.96434 5.39364C1.02486 5.92243 0.896769 5.92243 0.384329 5.39364ZM0.0854085 18.8954C0.0427037 12.5147 0.170814 7.8966 0.384329 7.79082C0.896769 7.50881 7.90006 7.61455 8.45523 7.8966C8.71142 8.00234 8.88223 12.3737 8.92497 19.0364L9.01035 30L4.61193 29.8943L0.213518 29.7885L0.0854085 18.8954ZM13.7931 7.68507L11.9569 7.79082V18.8954V29.9647H16.4407H20.9245V18.7191V7.50881L18.2342 7.54407C17.977 7.5503 17.7023 7.55657 17.419 7.56298L17.4182 7.56302L17.4153 7.56308C16.1005 7.59298 14.6005 7.6271 13.7931 7.68507ZM27.8852 28.6956C28.0132 28.1316 29.0381 23.1257 30.1484 17.5206L32.1982 7.40306H33.3084C34.376 7.40306 34.4614 7.54407 34.9739 9.76498C35.2301 11.1046 35.8279 13.5723 36.2976 15.3349C36.6115 16.489 37.0969 18.3671 37.5629 20.17L37.5629 20.17L37.5672 20.1867L37.5672 20.187L37.5673 20.187L37.5675 20.1878L37.5684 20.1914C37.7979 21.0794 38.0225 21.9483 38.2193 22.7027C38.8172 25.0294 39.1588 27.0035 38.988 27.1798C38.8172 27.3208 38.0485 27.5323 37.3225 27.6381L35.9987 27.8848L35.6998 25.9459C35.3155 23.1257 35.1447 22.9142 33.6074 23.161C31.7711 23.443 31.643 23.584 31.3441 25.4171C30.7943 29.0827 30.789 29.0837 28.9228 29.46L28.8673 29.4712C27.6716 29.718 27.6289 29.6827 27.8852 28.6956ZM40.0983 7.54407C39.9702 7.64981 40.0126 8.7074 40.1411 9.94124C40.2691 11.1751 40.3543 15.4406 40.3543 19.4595C40.3543 20.101 40.3526 20.689 40.3504 21.2273V21.2273V21.2274V21.2274V21.2275V21.2275V21.2275C40.3374 24.935 40.3327 26.2924 41.062 26.6585C41.4833 26.8699 42.1494 26.7506 43.2 26.5624H43.2004C43.4768 26.5128 43.78 26.4585 44.1122 26.4042C45.906 26.0869 46.5466 25.8402 46.5466 25.4171C46.5466 25.0999 46.8026 24.007 47.1443 22.9847C47.4432 21.9624 47.6141 21.1516 47.5284 21.1516C47.4432 21.1516 46.717 21.5394 45.9484 22.0329C43.6425 23.4783 43.1728 23.2667 43.1728 20.799C43.2156 18.5781 43.5997 17.9788 44.6676 18.7191L44.6953 18.7371V18.7371C44.9682 18.9124 45.1361 19.0201 45.2706 18.9971C45.4847 18.9604 45.6157 18.5924 45.9544 17.6383V17.6382L45.9864 17.5481L46.034 17.4148C46.8455 15.0881 46.7598 14.8766 44.9665 14.9471L43.3436 14.9824V13.0435V11.1046L44.6676 11.2104C45.8632 11.3161 46.034 11.1751 46.2473 10.2938C46.3757 9.72972 46.6318 8.8484 46.8026 8.31961L47.0587 7.40306H43.6853C41.8064 7.40306 40.1835 7.47355 40.0983 7.54407ZM48.5107 11.9506C48.3399 11.8096 48.9377 8.88366 49.3222 7.82608C49.4502 7.54407 50.6034 7.40306 53.1653 7.40306C55.1723 7.40306 56.7952 7.47355 56.7952 7.54407C56.7952 7.64981 55.8557 10.7873 54.6602 14.5593C53.507 18.3314 52.5247 21.6098 52.5247 21.8214C52.5247 22.3854 54.5317 21.9272 56.0694 21.0811C56.7096 20.6933 57.2221 20.4818 57.2221 20.5875C57.2221 21.4688 56.1546 24.5358 55.8129 24.7473C55.5568 24.8883 54.062 25.0999 52.5247 25.2056C50.9875 25.3467 49.4074 25.5229 48.9805 25.6287C48.1262 25.8049 48.169 25.4171 49.3222 22.2092C50.0908 20.0587 52.5247 11.4924 52.5247 10.9636C52.5247 10.4348 50.4325 10.8226 49.4074 11.5629C49.0233 11.8449 48.596 12.0212 48.5107 11.9506ZM61.4926 8.17861C61.4926 8.91892 60.1686 13.9953 58.0336 21.4688C57.5638 23.0905 57.2649 24.5006 57.393 24.5711C57.521 24.6769 58.2473 24.6769 59.0583 24.5358C60.4675 24.3243 60.5531 24.2185 60.7664 22.4912C61.1081 20.3055 61.407 20.0235 63.2007 20.1645C64.4391 20.2703 64.6523 20.4465 65.1221 21.6804C65.3786 22.4559 65.5494 23.302 65.4214 23.5488C65.3357 23.8308 65.8055 23.9718 67.001 23.9718C67.9833 23.9718 68.7519 23.866 68.7519 23.725C68.7519 23.6193 68.2822 21.9976 67.6844 20.1293C66.2324 15.3349 64.5671 9.48297 64.3963 8.46065C64.311 7.75559 64.0122 7.54407 62.9018 7.47355C61.6635 7.36781 61.4926 7.47355 61.4926 8.17861ZM69.2217 8.9894C68.7091 8.28438 68.325 7.64981 68.325 7.54407C68.325 7.47355 69.2645 7.40306 70.4601 7.40306C72.4247 7.40306 72.5955 7.47355 72.8516 8.35487C73.4065 10.188 75.6272 13.8543 75.9689 13.537C76.1397 13.3607 76.9512 11.9154 77.7622 10.329L77.8102 10.234L77.8102 10.2339C79.2147 7.43754 79.232 7.40306 80.7943 7.40306H82.3316L81.9475 8.63691C81.7338 9.30671 81.563 12.9377 81.6482 16.745L81.7766 23.6193H80.0685H78.3604L78.4884 19.5652C78.6165 16.9918 78.4884 15.5112 78.232 15.5112C77.9759 15.5112 77.3781 16.3925 76.8227 17.45C76.3106 18.5076 75.7552 19.3185 75.6272 19.2127C75.542 19.1069 74.9014 18.0846 74.3036 16.886L73.1505 14.7709L72.8944 15.9694C72.7659 16.6745 72.7659 18.7191 72.8516 20.5875L73.0648 23.9718H71.4424H69.8195L69.9903 17.0975C70.1183 10.611 70.076 10.1528 69.2217 8.9894ZM88.1821 7.72033C88.3102 7.93186 88.4382 11.6334 88.4382 16.0047V23.9718L89.5909 24.007C90.2315 24.007 91.5555 24.0775 92.495 24.1833L94.2883 24.3948L94.758 22.5617C95.3986 20.1645 95.3563 19.9882 94.502 20.2703C94.0759 20.411 93.1818 20.657 92.5414 20.8332L92.5411 20.8333L92.5378 20.8342V20.8343L91.2995 21.1163L91.4699 14.2773L91.5983 7.40306H89.7618C88.7371 7.40306 88.0113 7.54407 88.1821 7.72033ZM93.6477 10.9283L94.0751 9.16567L94.502 7.40306H98.6868L98.8265 7.40303L99.064 7.40296H99.0642C101.418 7.40193 102.446 7.40147 102.796 7.80254C103.068 8.11325 102.934 8.66498 102.696 9.64417L102.658 9.80024C102.402 10.7873 102.274 10.8578 101.121 10.6816L99.84 10.47L100.011 17.5911C100.096 22.6674 100.011 24.6769 99.6691 24.6769C99.4126 24.6769 98.644 24.5711 97.961 24.4653L96.7227 24.2891L96.8507 17.3796L96.9787 10.47L95.3134 10.7168L93.6477 10.9283ZM104.11 16.1104C104.196 22.4207 104.367 24.9236 104.751 25.0999C105.05 25.2409 106.374 25.3819 107.697 25.3819C109.961 25.3819 110.217 25.3114 111.199 24.2185C112.693 22.5969 113.163 20.7638 113.163 16.6745C113.163 12.4442 112.181 9.72972 110.131 8.28438C109.064 7.57933 108.381 7.40306 106.416 7.40306H103.982L104.11 16.1104ZM108.594 11.2104C110.814 13.2197 111.071 19.3185 108.978 21.2221C107.398 22.738 107.185 22.1386 107.185 16.2162C107.185 13.114 107.356 10.5758 107.526 10.5758C107.74 10.5758 108.21 10.8578 108.594 11.2104ZM117.001 11.3173L117.002 11.312L117.043 11.1252L117.044 11.1247L117.044 11.124L117.044 11.1227C117.391 9.56414 117.642 8.4364 117.69 8.17861C117.818 7.61455 118.159 7.40306 119.056 7.40306C120.201 7.40306 120.209 7.43782 121.212 11.8207L121.213 11.8227L121.234 11.9154C121.746 14.3831 122.857 19.0717 123.668 22.3502C124.48 25.6287 125.077 28.3784 124.992 28.4136C124.949 28.4489 124.223 28.3784 123.412 28.2374C122.259 28.0611 121.874 27.8143 121.789 27.1445C121.704 26.651 121.49 25.4524 121.234 24.4301C120.807 22.7027 120.722 22.5617 119.27 22.3502C117.434 22.0682 117.135 22.3854 116.75 24.9589L116.494 26.8272L115.128 26.5805C114.401 26.4747 113.676 26.2985 113.548 26.228C113.377 26.1575 113.59 25.0999 114.017 23.9013C114.401 22.6674 115.384 18.8249 116.11 15.3349C116.424 13.9079 116.731 12.528 116.99 11.364L117 11.3199L117.001 11.3173ZM13.7151 26.0522C13.7151 25.9493 13.7014 25.8684 13.6877 25.8684C13.6712 25.8684 13.6602 25.5523 13.6602 25.0597C13.6602 24.5672 13.6712 24.2511 13.6877 24.2511C13.7014 24.2511 13.7151 24.1849 13.7151 24.1041C13.7151 24.0232 13.7261 23.957 13.7425 23.957C13.7562 23.957 13.77 23.9056 13.77 23.8394C13.77 23.7071 13.833 23.516 13.8769 23.516C13.8934 23.516 13.9071 23.4351 13.9071 23.3322C13.9071 23.2293 13.9181 23.1484 13.9345 23.1484C13.9482 23.1484 13.962 23.0969 13.962 23.0308C13.962 22.8985 13.8989 22.7073 13.855 22.7073C13.8385 22.7073 13.8248 22.6338 13.8248 22.5382C13.8248 22.45 13.8001 22.325 13.77 22.2662C13.7398 22.2074 13.7151 22.1045 13.7151 22.031C13.7151 21.9575 13.7014 21.8987 13.6877 21.8987C13.6712 21.8987 13.6602 21.5532 13.6602 21.0165C13.6602 20.4798 13.6712 20.1343 13.6877 20.1343C13.7014 20.1343 13.7151 20.0608 13.7151 19.9653C13.7151 19.877 13.7398 19.7521 13.77 19.6933C13.8001 19.6345 13.8248 19.5315 13.8248 19.458C13.8248 19.3845 13.844 19.3257 13.8659 19.3257C13.8906 19.3257 13.9071 19.2595 13.9071 19.1419C13.9071 19.039 13.9181 18.9581 13.9345 18.9581C13.9482 18.9581 13.962 18.9067 13.962 18.8405C13.962 18.7082 13.8989 18.517 13.855 18.517C13.8385 18.517 13.8248 18.4656 13.8248 18.4068C13.8248 18.348 13.8111 18.2965 13.7974 18.2965C13.7809 18.2965 13.77 18.2303 13.77 18.1495C13.77 18.0686 13.7562 18.0025 13.7425 18.0025C13.7261 18.0025 13.7151 17.9363 13.7151 17.8554C13.7151 17.7746 13.7014 17.7084 13.6877 17.7084C13.6712 17.7084 13.6602 17.3629 13.6602 16.8262C13.6602 16.2896 13.6712 15.9441 13.6877 15.9441C13.7014 15.9441 13.7151 15.8706 13.7151 15.775C13.7151 15.6868 13.7398 15.5618 13.77 15.503C13.8001 15.4442 13.8248 15.3413 13.8248 15.2678C13.8248 15.1942 13.844 15.1354 13.8659 15.1354C13.8879 15.1354 13.9071 15.084 13.9071 15.0251C13.9071 14.9663 13.9181 14.9149 13.9345 14.9149C13.9482 14.9149 13.962 14.8487 13.962 14.7678C13.962 14.687 13.9482 14.6208 13.9345 14.6208C13.9181 14.6208 13.9071 14.5547 13.9071 14.4738C13.9071 14.393 13.8879 14.3268 13.8659 14.3268C13.844 14.3268 13.8248 14.2753 13.8248 14.2165C13.8248 14.1577 13.8111 14.1062 13.7974 14.1062C13.7809 14.1062 13.77 14.0401 13.77 13.9592C13.77 13.8783 13.7562 13.8122 13.7425 13.8122C13.7261 13.8122 13.7151 13.746 13.7151 13.6651C13.7151 13.5843 13.7014 13.5181 13.6877 13.5181C13.6712 13.5181 13.6602 13.1726 13.6602 12.636C13.6602 12.0993 13.6712 11.7538 13.6877 11.7538C13.7014 11.7538 13.7151 11.6803 13.7151 11.5847C13.7151 11.4965 13.7398 11.3715 13.77 11.3127C13.8001 11.2539 13.8248 11.151 13.8248 11.0848C13.8248 11.0187 13.844 10.9451 13.8659 10.9158C13.8879 10.8937 13.9071 10.8275 13.9071 10.7614C13.9071 10.7026 13.9181 10.6511 13.9345 10.6511C13.9482 10.6511 13.962 10.5996 13.962 10.5408C13.962 10.482 13.9866 10.4306 14.0168 10.4306C14.047 10.4306 14.0717 10.3938 14.0717 10.357C14.0717 10.3129 14.0936 10.2835 14.1211 10.2835C14.1485 10.2835 14.1869 10.2174 14.2088 10.1365C14.2308 10.0556 14.2774 9.98949 14.3103 9.98949C14.346 9.98949 14.3734 9.95273 14.3734 9.91598C14.3734 9.87185 14.3981 9.84243 14.4283 9.84243C14.4584 9.84243 14.4831 9.791 14.4831 9.73216C14.4831 9.65865 14.5105 9.62189 14.5654 9.62189C14.6093 9.62189 14.6477 9.58514 14.6477 9.54838C14.6477 9.50429 14.7025 9.47487 14.7711 9.47487C14.8397 9.47487 14.8946 9.43812 14.8946 9.40136C14.8946 9.3499 15.4514 9.32785 16.5129 9.32785H17.1907C17.4068 8.92405 17.9596 8.6369 18.6073 8.6369C19.4434 8.6369 20.1212 9.11527 20.1212 9.70538C20.1212 10.2955 19.4434 10.7739 18.6073 10.7739C17.9886 10.7739 17.4566 10.5119 17.2217 10.1365H16.5403C15.498 10.1365 14.9494 10.1586 14.9494 10.21C14.9494 10.2541 14.8726 10.2835 14.7711 10.2835C14.6697 10.2835 14.5928 10.3129 14.5928 10.357C14.5928 10.3938 14.5681 10.4306 14.538 10.4306C14.5078 10.4306 14.4831 10.482 14.4831 10.5408C14.4831 10.5996 14.4584 10.6511 14.4283 10.6511C14.3981 10.6511 14.3734 10.6805 14.3734 10.7246C14.3734 10.7614 14.3542 10.7981 14.3323 10.7981C14.3103 10.7981 14.2911 10.8275 14.2911 10.8716C14.2911 10.9084 14.2664 10.9451 14.2362 10.9451C14.2006 10.9451 14.1814 10.9966 14.1814 11.0775C14.1814 11.151 14.1567 11.2539 14.1265 11.3127C14.0964 11.3715 14.0717 11.4598 14.0717 11.5112C14.0717 11.5626 14.058 11.6068 14.0442 11.6068C14.0278 11.6068 14.0168 11.6729 14.0168 11.7538C14.0168 11.8347 14.0031 11.9008 13.9894 11.9008C13.9729 11.9008 13.962 12.1949 13.962 12.636C13.962 13.077 13.9729 13.3711 13.9894 13.3711C14.0031 13.3711 14.0168 13.4226 14.0168 13.4814C14.0168 13.6872 14.2006 14.1062 14.2911 14.1062C14.335 14.1062 14.3734 14.0695 14.3734 14.0327C14.3734 13.9886 14.3981 13.9592 14.4283 13.9592C14.4584 13.9592 14.4831 13.9225 14.4831 13.8857C14.4831 13.8416 14.5078 13.8122 14.538 13.8122C14.5681 13.8122 14.5928 13.7754 14.5928 13.7386C14.5928 13.6946 14.6367 13.6651 14.6888 13.6651C14.7409 13.6651 14.7848 13.6284 14.7848 13.5916C14.7848 13.5475 14.8589 13.5181 14.9494 13.5181C15.0399 13.5181 15.114 13.4887 15.114 13.4446C15.114 13.4005 15.2018 13.3711 15.3197 13.3711C15.4843 13.3711 15.5254 13.349 15.5254 13.2608C15.5254 13.1653 15.583 13.1506 15.882 13.1506C16.181 13.1506 16.2386 13.1653 16.2386 13.2608C16.2386 13.349 16.277 13.3711 16.4169 13.3711C16.5184 13.3711 16.5952 13.4005 16.5952 13.4446C16.5952 13.4814 16.6555 13.5181 16.7323 13.5181C16.8064 13.5181 16.8695 13.5475 16.8695 13.5916C16.8695 13.6284 16.8942 13.6651 16.9243 13.6651C16.9545 13.6651 16.9792 13.6946 16.9792 13.7386C16.9792 13.7754 16.9929 13.8122 17.0066 13.8122C17.045 13.8122 17.1712 14.1503 17.1712 14.2533C17.1712 14.29 17.1822 14.3268 17.1986 14.3268C17.2151 14.3268 17.2261 14.5253 17.2261 14.7678C17.2261 15.1428 17.2151 15.2457 17.1575 15.3927C17.1218 15.4956 17.067 15.5765 17.034 15.5765C17.0039 15.5765 16.9792 15.6059 16.9792 15.65C16.9792 15.6868 16.9545 15.7235 16.9243 15.7235C16.8942 15.7235 16.8695 15.775 16.8695 15.8338C16.8695 15.9073 16.842 15.9441 16.7872 15.9441C16.7406 15.9441 16.7049 15.9735 16.7049 16.0176C16.7049 16.0543 16.661 16.0911 16.6089 16.0911C16.5568 16.0911 16.5129 16.1205 16.5129 16.1646C16.5129 16.2087 16.4086 16.2381 16.2523 16.2381C16.096 16.2381 15.9917 16.2675 15.9917 16.3116C15.9917 16.3484 15.9286 16.3852 15.8546 16.3852C15.7778 16.3852 15.7174 16.3484 15.7174 16.3116C15.7174 16.2675 15.6214 16.2381 15.4843 16.2381C15.3471 16.2381 15.2511 16.2087 15.2511 16.1646C15.2511 16.1205 15.1826 16.0911 15.1003 16.0911C15.018 16.0911 14.9494 16.0543 14.9494 16.0176C14.9494 15.9735 14.911 15.9441 14.8671 15.9441C14.8123 15.9441 14.7848 15.9073 14.7848 15.8338C14.7848 15.7603 14.7546 15.7235 14.6888 15.7235C14.6367 15.7235 14.5928 15.6868 14.5928 15.65C14.5928 15.6059 14.5544 15.5765 14.5105 15.5765C14.4639 15.5765 14.4283 15.5398 14.4283 15.503C14.4283 15.4589 14.3981 15.4295 14.3597 15.4295C14.3213 15.4295 14.2911 15.3927 14.2911 15.356C14.2911 15.2236 14.2061 15.2825 14.1402 15.4662C14.1019 15.5618 14.0717 15.7015 14.0717 15.775C14.0717 15.8485 14.047 15.9588 14.0168 16.0176C13.9674 16.1132 13.962 16.2087 13.962 16.8042C13.962 17.2085 13.9729 17.4878 13.9894 17.4878C14.0031 17.4878 14.0168 17.5393 14.0168 17.5981C14.0168 17.6569 14.0278 17.7084 14.0442 17.7084C14.058 17.7084 14.0717 17.7598 14.0717 17.8187C14.0717 17.8848 14.1019 18.0172 14.1402 18.1127C14.2061 18.2965 14.2911 18.3553 14.2911 18.223C14.2911 18.1789 14.3213 18.1495 14.3597 18.1495C14.3981 18.1495 14.4283 18.1127 14.4283 18.076C14.4283 18.0318 14.4529 18.0025 14.4831 18.0025C14.5133 18.0025 14.538 17.9657 14.538 17.929C14.538 17.8848 14.5736 17.8554 14.6203 17.8554C14.6642 17.8554 14.7025 17.8187 14.7025 17.7819C14.7025 17.7378 14.7793 17.7084 14.8808 17.7084C15.0207 17.7084 15.0591 17.6863 15.0591 17.5981C15.0591 17.5099 15.0975 17.4878 15.2374 17.4878C15.3389 17.4878 15.4157 17.4585 15.4157 17.4143C15.4157 17.3702 15.5885 17.3408 15.882 17.3408C16.1755 17.3408 16.3483 17.3702 16.3483 17.4143C16.3483 17.4511 16.4169 17.4878 16.4992 17.4878C16.6144 17.4878 16.65 17.5099 16.65 17.5981C16.65 17.679 16.6802 17.7084 16.7597 17.7084C16.8201 17.7084 16.8695 17.7378 16.8695 17.7819C16.8695 17.8187 16.8942 17.8554 16.9243 17.8554C16.9545 17.8554 16.9792 17.8848 16.9792 17.929C16.9792 17.9657 17.0039 18.0025 17.0368 18.0025C17.1081 18.0025 17.1712 18.1715 17.1712 18.3627C17.1712 18.4509 17.1822 18.517 17.1986 18.517C17.2123 18.517 17.2261 18.7008 17.2261 18.9214C17.2261 19.1419 17.2123 19.3257 17.1986 19.3257C17.1822 19.3257 17.1712 19.3918 17.1712 19.4727C17.1712 19.5683 17.152 19.6198 17.1163 19.6198C17.0862 19.6198 17.0615 19.6492 17.0615 19.6933C17.0615 19.73 17.0313 19.7668 16.9929 19.7668C16.9545 19.7668 16.9243 19.7962 16.9243 19.8403C16.9243 19.877 16.8997 19.9138 16.8695 19.9138C16.8393 19.9138 16.8146 19.9653 16.8146 20.0241C16.8146 20.0976 16.7872 20.1343 16.7323 20.1343C16.6857 20.1343 16.65 20.1637 16.65 20.2078C16.65 20.2446 16.5952 20.2814 16.5266 20.2814C16.458 20.2814 16.4032 20.3108 16.4032 20.3549C16.4032 20.399 16.2029 20.4284 15.8546 20.4284C15.5062 20.4284 15.306 20.399 15.306 20.3549C15.306 20.3108 15.2374 20.2814 15.1551 20.2814C15.0728 20.2814 15.0043 20.2446 15.0043 20.2078C15.0043 20.1637 14.9659 20.1343 14.922 20.1343C14.8671 20.1343 14.8397 20.0976 14.8397 20.0241C14.8397 19.9506 14.8095 19.9138 14.7437 19.9138C14.6916 19.9138 14.6477 19.877 14.6477 19.8403C14.6477 19.7962 14.6093 19.7668 14.5654 19.7668C14.5188 19.7668 14.4831 19.73 14.4831 19.6933C14.4831 19.6492 14.4392 19.6198 14.3871 19.6198C14.335 19.6198 14.2911 19.583 14.2911 19.5462C14.2911 19.5021 14.2719 19.4727 14.25 19.4727C14.1869 19.4727 14.0168 19.9579 14.0168 20.1343C14.0168 20.2152 14.0031 20.2814 13.9894 20.2814C13.9729 20.2814 13.962 20.5607 13.962 20.9798C13.962 21.3988 13.9729 21.6781 13.9894 21.6781C14.0031 21.6781 14.0168 21.7222 14.0168 21.7737C14.0168 21.8252 14.0415 21.9134 14.0717 21.9722C14.1019 22.031 14.1265 22.1192 14.1265 22.178C14.1265 22.2295 14.143 22.325 14.1649 22.3839C14.2115 22.5015 14.2911 22.5235 14.2911 22.4133C14.2911 22.3692 14.3213 22.3398 14.3597 22.3398C14.3981 22.3398 14.4283 22.303 14.4283 22.2662C14.4283 22.2221 14.4529 22.1927 14.4831 22.1927C14.5133 22.1927 14.538 22.156 14.538 22.1192C14.538 22.0751 14.5626 22.0457 14.5928 22.0457C14.623 22.0457 14.6477 22.0089 14.6477 21.9722C14.6477 21.9281 14.7163 21.8987 14.7985 21.8987C14.9137 21.8987 14.9494 21.8766 14.9494 21.7884C14.9494 21.7002 14.9878 21.6781 15.1277 21.6781C15.2292 21.6781 15.306 21.6487 15.306 21.6046C15.306 21.5605 15.5172 21.5311 15.882 21.5311C16.2468 21.5311 16.458 21.5605 16.458 21.6046C16.458 21.6414 16.5239 21.6781 16.6061 21.6781C16.7131 21.6781 16.757 21.7075 16.7707 21.7884C16.7789 21.8472 16.8173 21.8987 16.8558 21.8987C16.8942 21.8987 16.9243 21.9281 16.9243 21.9722C16.9243 22.0089 16.949 22.0457 16.9792 22.0457C17.0121 22.0457 17.078 22.1633 17.13 22.303C17.2178 22.5382 17.2261 22.5897 17.2261 23.0014C17.2261 23.3763 17.2151 23.4792 17.1575 23.6262C17.1218 23.7292 17.067 23.81 17.034 23.81C17.0039 23.81 16.9792 23.8394 16.9792 23.8835C16.9792 23.9203 16.9545 23.957 16.9243 23.957C16.8942 23.957 16.8695 23.9865 16.8695 24.0306C16.8695 24.0673 16.8448 24.1041 16.8146 24.1041C16.7844 24.1041 16.7597 24.1335 16.7597 24.1776C16.7597 24.2144 16.7214 24.2511 16.6775 24.2511C16.6226 24.2511 16.5952 24.2879 16.5952 24.3614C16.5952 24.4496 16.5595 24.4717 16.4443 24.4717C16.362 24.4717 16.2935 24.501 16.2935 24.5452C16.2935 24.5893 16.1289 24.6187 15.8546 24.6187C15.5803 24.6187 15.4157 24.5893 15.4157 24.5452C15.4157 24.501 15.3389 24.4717 15.2374 24.4717C15.0975 24.4717 15.0591 24.4496 15.0591 24.3614C15.0591 24.2879 15.0317 24.2511 14.9768 24.2511C14.9302 24.2511 14.8946 24.2144 14.8946 24.1776C14.8946 24.1335 14.8507 24.1041 14.7985 24.1041C14.7464 24.1041 14.7025 24.0673 14.7025 24.0306C14.7025 23.9865 14.6642 23.957 14.6203 23.957C14.5736 23.957 14.538 23.9203 14.538 23.8835C14.538 23.8394 14.4996 23.81 14.4557 23.81C14.409 23.81 14.3734 23.7733 14.3734 23.7365C14.3734 23.6924 14.335 23.663 14.2911 23.663C14.1923 23.663 14.0168 24.082 14.0168 24.3246C14.0168 24.4055 14.0031 24.4717 13.9894 24.4717C13.9729 24.4717 13.962 24.751 13.962 25.17C13.962 25.589 13.9729 25.8684 13.9894 25.8684C14.0031 25.8684 14.0168 25.9125 14.0168 25.964C14.0168 26.0154 14.0415 26.1037 14.0717 26.1625C14.1019 26.2213 14.1265 26.3095 14.1265 26.3609C14.1265 26.5006 14.2747 26.8976 14.3295 26.8976C14.3542 26.8976 14.3734 26.927 14.3734 26.9711C14.3734 27.0079 14.409 27.0446 14.4557 27.0446C14.4996 27.0446 14.538 27.074 14.538 27.1181C14.538 27.1549 14.5736 27.1917 14.6203 27.1917C14.6642 27.1917 14.7025 27.221 14.7025 27.2652C14.7025 27.3019 14.7464 27.3387 14.7985 27.3387C14.8507 27.3387 14.8946 27.3681 14.8946 27.4122C14.8946 27.4637 15.4514 27.4857 16.5129 27.4857H17.1941C17.4126 27.0852 17.963 26.8011 18.6073 26.8011C19.4434 26.8011 20.1212 27.2795 20.1212 27.8696C20.1212 28.4597 19.4434 28.9381 18.6073 28.9381C17.9851 28.9381 17.4506 28.6731 17.2178 28.2944H16.5129C15.4514 28.2944 14.8946 28.2723 14.8946 28.2209C14.8946 28.1767 14.8507 28.1473 14.7985 28.1473C14.7464 28.1473 14.7025 28.1106 14.7025 28.0738C14.7025 28.0297 14.6532 28.0003 14.5928 28.0003C14.5325 28.0003 14.4831 27.9635 14.4831 27.9268C14.4831 27.8827 14.4392 27.8533 14.3871 27.8533C14.335 27.8533 14.2911 27.8165 14.2911 27.7797C14.2911 27.7357 14.2664 27.7062 14.2362 27.7062C14.2061 27.7062 14.1814 27.6695 14.1814 27.6327C14.1814 27.5225 14.0525 27.1917 14.0113 27.1917C13.9894 27.1917 13.9565 27.1255 13.9345 27.0446C13.9126 26.9637 13.8797 26.8976 13.8605 26.8976C13.8412 26.8976 13.8248 26.8167 13.8248 26.7138C13.8248 26.6109 13.8111 26.53 13.7974 26.53C13.7809 26.53 13.77 26.4639 13.77 26.383C13.77 26.3021 13.7562 26.236 13.7425 26.236C13.7261 26.236 13.7151 26.1551 13.7151 26.0522ZM14.6477 18.7376C14.6477 18.7743 14.623 18.8111 14.5928 18.8111C14.5626 18.8111 14.538 18.8405 14.538 18.8846C14.538 18.9214 14.5626 18.9581 14.5928 18.9581C14.623 18.9581 14.6477 18.9875 14.6477 19.0317C14.6477 19.0684 14.6916 19.1052 14.7437 19.1052C14.8095 19.1052 14.8397 19.1419 14.8397 19.2154C14.8397 19.2889 14.8671 19.3257 14.922 19.3257C14.9659 19.3257 15.0043 19.3551 15.0043 19.3992C15.0043 19.436 15.0591 19.4727 15.1277 19.4727C15.1963 19.4727 15.2511 19.5021 15.2511 19.5462C15.2511 19.5903 15.4925 19.6198 15.9232 19.6198C16.3538 19.6198 16.5952 19.5903 16.5952 19.5462C16.5952 19.5021 16.6308 19.4727 16.6775 19.4727C16.7214 19.4727 16.7597 19.436 16.7597 19.3992C16.7597 19.3551 16.7844 19.3257 16.8146 19.3257C16.8558 19.3257 16.8695 19.2742 16.8695 19.1419C16.8695 19.039 16.8805 18.9581 16.8969 18.9581C16.938 18.9581 16.9298 18.7449 16.8859 18.62C16.864 18.5612 16.8146 18.517 16.7762 18.517C16.7323 18.517 16.7049 18.4729 16.7049 18.4068C16.7049 18.3259 16.672 18.2965 16.5815 18.2965C16.5129 18.2965 16.458 18.2598 16.458 18.223C16.458 18.1789 16.2742 18.1495 15.9643 18.1495C15.6543 18.1495 15.4706 18.1789 15.4706 18.223C15.4706 18.2671 15.3938 18.2965 15.2923 18.2965C15.1524 18.2965 15.114 18.3186 15.114 18.4068C15.114 18.4803 15.0866 18.517 15.0317 18.517C14.9851 18.517 14.9494 18.5465 14.9494 18.5906C14.9494 18.6273 14.8808 18.6641 14.7985 18.6641C14.7163 18.6641 14.6477 18.6935 14.6477 18.7376ZM14.7025 14.5473C14.7025 14.5841 14.6642 14.6208 14.6203 14.6208C14.5736 14.6208 14.538 14.6502 14.538 14.6943C14.538 14.7311 14.5626 14.7678 14.5928 14.7678C14.623 14.7678 14.6477 14.7973 14.6477 14.8414C14.6477 14.8781 14.6779 14.9149 14.7163 14.9149C14.7601 14.9149 14.7848 14.959 14.7848 15.0251C14.7848 15.0987 14.8123 15.1354 14.8671 15.1354C14.911 15.1354 14.9494 15.1648 14.9494 15.209C14.9494 15.2457 14.9988 15.2825 15.0591 15.2825C15.1195 15.2825 15.1688 15.3118 15.1688 15.356C15.1688 15.4001 15.2457 15.4295 15.3471 15.4295C15.4486 15.4295 15.5254 15.4589 15.5254 15.503C15.5254 15.5471 15.6818 15.5765 15.9369 15.5765C16.192 15.5765 16.3483 15.5471 16.3483 15.503C16.3483 15.4589 16.4169 15.4295 16.4992 15.4295C16.5815 15.4295 16.65 15.3927 16.65 15.356C16.65 15.3118 16.6747 15.2825 16.7049 15.2825C16.7351 15.2825 16.7597 15.2457 16.7597 15.209C16.7597 15.1648 16.7844 15.1354 16.8146 15.1354C16.8448 15.1354 16.8695 15.084 16.8695 15.0251C16.8695 14.9663 16.8805 14.9149 16.8969 14.9149C16.9106 14.9149 16.9243 14.812 16.9243 14.6943C16.9243 14.5253 16.9134 14.4738 16.8695 14.4738C16.8393 14.4738 16.8146 14.437 16.8146 14.4003C16.8146 14.3562 16.7762 14.3268 16.7323 14.3268C16.6775 14.3268 16.65 14.29 16.65 14.2165C16.65 14.1356 16.6171 14.1062 16.5266 14.1062C16.458 14.1062 16.4032 14.0695 16.4032 14.0327C16.4032 13.9886 16.2468 13.9592 15.9917 13.9592C15.7366 13.9592 15.5803 13.9886 15.5803 14.0327C15.5803 14.0768 15.5062 14.1062 15.4157 14.1062C15.2868 14.1062 15.2511 14.1283 15.2511 14.2165C15.2511 14.2974 15.2182 14.3268 15.1277 14.3268C15.0591 14.3268 15.0043 14.3562 15.0043 14.4003C15.0043 14.437 14.9357 14.4738 14.8534 14.4738C14.7711 14.4738 14.7025 14.5032 14.7025 14.5473ZM14.8397 22.7808C14.8397 22.8176 14.7848 22.8544 14.7163 22.8544C14.612 22.8544 14.5928 22.8764 14.5928 23.0014C14.5928 23.0969 14.612 23.1484 14.6477 23.1484C14.6779 23.1484 14.7025 23.1778 14.7025 23.2219C14.7025 23.2587 14.7464 23.2954 14.7985 23.2954C14.8644 23.2954 14.8946 23.3322 14.8946 23.4057C14.8946 23.4792 14.922 23.516 14.9768 23.516C15.0207 23.516 15.0591 23.5454 15.0591 23.5895C15.0591 23.6262 15.1277 23.663 15.21 23.663C15.2923 23.663 15.3609 23.6924 15.3609 23.7365C15.3609 23.7806 15.5721 23.81 15.9369 23.81C16.3017 23.81 16.5129 23.7806 16.5129 23.7365C16.5129 23.6924 16.5568 23.663 16.6089 23.663C16.661 23.663 16.7049 23.6262 16.7049 23.5895C16.7049 23.5454 16.7296 23.516 16.7597 23.516C16.7899 23.516 16.8146 23.4719 16.8146 23.4204C16.8146 23.3689 16.8393 23.2807 16.8695 23.2219C16.8997 23.1631 16.9243 23.0749 16.9243 23.0161C16.9243 22.8838 16.8558 22.7073 16.8036 22.7073C16.7789 22.7073 16.7597 22.6559 16.7597 22.597C16.7597 22.5235 16.7323 22.4868 16.6775 22.4868C16.6308 22.4868 16.5952 22.45 16.5952 22.4133C16.5952 22.3692 16.3703 22.3398 15.978 22.3398C15.5858 22.3398 15.3609 22.3692 15.3609 22.4133C15.3609 22.45 15.2923 22.4868 15.21 22.4868C15.0948 22.4868 15.0591 22.5088 15.0591 22.597C15.0591 22.6779 15.029 22.7073 14.9494 22.7073C14.8891 22.7073 14.8397 22.7367 14.8397 22.7808ZM7.31027 11.0101C7.31027 11.081 7.32701 11.1367 7.3437 11.1367C7.36377 11.1367 7.37714 11.3544 7.37714 11.6936C7.37714 12.0328 7.36377 12.2505 7.3437 12.2505C7.32701 12.2505 7.31027 12.296 7.31027 12.3517C7.31027 12.4074 7.2969 12.453 7.27683 12.453C7.26014 12.453 7.24344 12.4884 7.24344 12.534C7.24344 12.6251 7.16653 12.7567 7.11303 12.7567C7.09296 12.7567 7.07626 12.8124 7.07626 12.8833C7.07626 12.9542 7.0629 13.0099 7.04283 13.0099C7.02609 13.0099 7.00939 13.0453 7.00939 13.0909C7.00939 13.182 7.0863 13.3136 7.13976 13.3136C7.15983 13.3136 7.17657 13.3642 7.17657 13.4301C7.17657 13.4908 7.20663 13.5769 7.24344 13.6174C7.28021 13.6579 7.31027 13.7287 7.31027 13.7794C7.31027 13.83 7.32701 13.8705 7.3437 13.8705C7.36377 13.8705 7.37714 14.1084 7.37714 14.478C7.37714 14.8476 7.36377 15.0855 7.3437 15.0855C7.32701 15.0855 7.31027 15.1362 7.31027 15.202C7.31027 15.2627 7.28021 15.3488 7.24344 15.3893C7.20663 15.4298 7.17657 15.5007 7.17657 15.5513C7.17657 15.6019 7.15317 15.6424 7.12639 15.6424C7.09633 15.6424 7.07626 15.688 7.07626 15.769C7.07626 15.8399 7.0629 15.8955 7.04283 15.8955C7.02609 15.8955 7.00939 15.931 7.00939 15.9766C7.00939 16.0677 7.0863 16.1993 7.13976 16.1993C7.15983 16.1993 7.17657 16.2348 7.17657 16.2753C7.17657 16.3157 7.19326 16.3512 7.21 16.3512C7.23003 16.3512 7.24344 16.3968 7.24344 16.4524C7.24344 16.5081 7.26014 16.5537 7.27683 16.5537C7.2969 16.5537 7.31027 16.5993 7.31027 16.655C7.31027 16.7107 7.32701 16.7562 7.3437 16.7562C7.36377 16.7562 7.37714 16.9942 7.37714 17.3637C7.37714 17.7333 7.36377 17.9713 7.3437 17.9713C7.32701 17.9713 7.31027 18.0219 7.31027 18.0877C7.31027 18.1484 7.28021 18.2345 7.24344 18.275C7.20663 18.3155 7.17657 18.3864 7.17657 18.437C7.17657 18.4876 7.15317 18.5281 7.12639 18.5281C7.09966 18.5281 7.07626 18.5636 7.07626 18.6041C7.07626 18.6446 7.0629 18.68 7.04283 18.68C7.02609 18.68 7.00939 18.7256 7.00939 18.7813C7.00939 18.8369 7.02609 18.8825 7.04283 18.8825C7.0629 18.8825 7.07626 18.9281 7.07626 18.9838C7.07626 19.0394 7.09966 19.085 7.12639 19.085C7.15317 19.085 7.17657 19.1204 7.17657 19.161C7.17657 19.2015 7.19326 19.2369 7.21 19.2369C7.23003 19.2369 7.24344 19.2825 7.24344 19.3382C7.24344 19.3938 7.26014 19.4394 7.27683 19.4394C7.2969 19.4394 7.31027 19.485 7.31027 19.5406C7.31027 19.5963 7.32701 19.6419 7.3437 19.6419C7.36377 19.6419 7.37714 19.8697 7.37714 20.2241C7.37714 20.5785 7.36377 20.8063 7.3437 20.8063C7.32701 20.8063 7.31027 20.8569 7.31027 20.9228C7.31027 20.9835 7.28021 21.0696 7.24344 21.1101C7.20663 21.1506 7.17657 21.2214 7.17657 21.2721C7.17657 21.3227 7.15317 21.3632 7.12639 21.3632C7.09633 21.3632 7.07626 21.4088 7.07626 21.4898C7.07626 21.5606 7.0629 21.6163 7.04283 21.6163C7.02609 21.6163 7.00939 21.6518 7.00939 21.6973C7.00939 21.7885 7.0863 21.9201 7.13976 21.9201C7.15983 21.9201 7.17657 21.9555 7.17657 21.996C7.17657 22.0365 7.19326 22.072 7.21 22.072C7.23003 22.072 7.24344 22.1175 7.24344 22.1732C7.24344 22.2289 7.26014 22.2745 7.27683 22.2745C7.2969 22.2745 7.31027 22.32 7.31027 22.3757C7.31027 22.4314 7.32701 22.477 7.3437 22.477C7.36377 22.477 7.37714 22.7149 7.37714 23.0845C7.37714 23.4541 7.36377 23.692 7.3437 23.692C7.32701 23.692 7.31027 23.7426 7.31027 23.8084C7.31027 23.8692 7.28021 23.9553 7.24344 23.9958C7.20663 24.0363 7.17657 24.1072 7.17657 24.1578C7.17657 24.2084 7.15317 24.2489 7.12639 24.2489C7.09966 24.2489 7.07626 24.2843 7.07626 24.3248C7.07626 24.3653 7.0629 24.4008 7.04283 24.4008C7.02609 24.4008 7.00939 24.4464 7.00939 24.502C7.00939 24.5577 7.02609 24.6033 7.04283 24.6033C7.0629 24.6033 7.07626 24.6488 7.07626 24.7045C7.07626 24.7602 7.09966 24.8058 7.12639 24.8058C7.15317 24.8058 7.17657 24.8412 7.17657 24.8817C7.17657 24.9222 7.19326 24.9577 7.21 24.9577C7.23003 24.9577 7.24344 25.0032 7.24344 25.0589C7.24344 25.1146 7.26014 25.1602 7.27683 25.1602C7.2969 25.1602 7.31027 25.2057 7.31027 25.2614C7.31027 25.3171 7.32701 25.3627 7.3437 25.3627C7.36377 25.3627 7.37714 25.6006 7.37714 25.9702C7.37714 26.3398 7.36377 26.5777 7.3437 26.5777C7.32701 26.5777 7.31027 26.6283 7.31027 26.6942C7.31027 26.7549 7.28021 26.841 7.24344 26.8815C7.20663 26.922 7.17657 26.9928 7.17657 27.0384C7.17657 27.084 7.15317 27.1346 7.12639 27.1549C7.09966 27.17 7.07626 27.2156 7.07626 27.2612C7.07626 27.3017 7.0629 27.3371 7.04283 27.3371C7.02609 27.3371 7.00939 27.3725 7.00939 27.413C7.00939 27.4535 6.97929 27.489 6.94252 27.489C6.90575 27.489 6.87565 27.5143 6.87565 27.5396C6.87565 27.57 6.84892 27.5902 6.81548 27.5902C6.78205 27.5902 6.73525 27.6358 6.70847 27.6915C6.68174 27.7472 6.62491 27.7927 6.58477 27.7927C6.54134 27.7927 6.5079 27.8181 6.5079 27.8434C6.5079 27.8737 6.4778 27.894 6.44103 27.894C6.40427 27.894 6.37416 27.9294 6.37416 27.9699C6.37416 28.0206 6.34073 28.0459 6.27386 28.0459C6.22035 28.0459 6.17355 28.0712 6.17355 28.0965C6.17355 28.1269 6.10668 28.1471 6.02311 28.1471C5.93954 28.1471 5.87267 28.1724 5.87267 28.1978C5.87267 28.2321 5.23566 28.2474 4.01942 28.2483C3.80283 28.6515 3.25053 28.9381 2.6034 28.9381C1.7673 28.9381 1.0895 28.4597 1.0895 27.8696C1.0895 27.2795 1.7673 26.8011 2.6034 26.8011C3.35344 26.8011 3.97607 27.1861 4.09631 27.6913C5.21758 27.6895 5.8058 27.6741 5.8058 27.6409C5.8058 27.6105 5.89941 27.5902 6.02311 27.5902C6.14682 27.5902 6.24042 27.57 6.24042 27.5396C6.24042 27.5143 6.27052 27.489 6.30729 27.489C6.34406 27.489 6.37416 27.4535 6.37416 27.413C6.37416 27.3725 6.40427 27.3371 6.44103 27.3371C6.4778 27.3371 6.5079 27.3169 6.5079 27.2865C6.5079 27.2612 6.5313 27.2358 6.55804 27.2358C6.58477 27.2358 6.60821 27.2156 6.60821 27.1852C6.60821 27.1599 6.63827 27.1346 6.67504 27.1346C6.71851 27.1346 6.74191 27.0992 6.74191 27.0435C6.74191 26.9928 6.77201 26.922 6.80878 26.8815C6.84555 26.841 6.87565 26.7802 6.87565 26.7448C6.87565 26.7093 6.89239 26.679 6.90909 26.679C6.92916 26.679 6.94252 26.6334 6.94252 26.5777C6.94252 26.522 6.95922 26.4765 6.97596 26.4765C6.99603 26.4765 7.00939 26.274 7.00939 25.9702C7.00939 25.6664 6.99603 25.4639 6.97596 25.4639C6.95922 25.4639 6.94252 25.4285 6.94252 25.388C6.94252 25.2462 6.71851 24.9577 6.60821 24.9577C6.5547 24.9577 6.5079 24.983 6.5079 25.0083C6.5079 25.0387 6.4778 25.0589 6.44103 25.0589C6.40427 25.0589 6.37416 25.0842 6.37416 25.1096C6.37416 25.1399 6.34406 25.1602 6.30729 25.1602C6.27052 25.1602 6.24042 25.1855 6.24042 25.2108C6.24042 25.2412 6.18691 25.2614 6.12342 25.2614C6.05988 25.2614 6.00637 25.2868 6.00637 25.312C6.00637 25.3424 5.91614 25.3627 5.8058 25.3627C5.69546 25.3627 5.60519 25.3829 5.60519 25.4133C5.60519 25.4437 5.49822 25.4639 5.35445 25.4639C5.15383 25.4639 5.1037 25.4791 5.1037 25.5399C5.1037 25.6057 5.0335 25.6158 4.66909 25.6158C4.30463 25.6158 4.23442 25.6057 4.23442 25.5399C4.23442 25.4791 4.18762 25.4639 4.01712 25.4639C3.89341 25.4639 3.79981 25.4437 3.79981 25.4133C3.79981 25.388 3.72623 25.3627 3.63263 25.3627C3.54236 25.3627 3.4655 25.3424 3.4655 25.312C3.4655 25.2868 3.43539 25.2614 3.39862 25.2614C3.36182 25.2614 3.33175 25.2412 3.33175 25.2108C3.33175 25.1855 3.31501 25.1602 3.29832 25.1602C3.25152 25.1602 3.09771 24.9273 3.09771 24.8564C3.09771 24.8311 3.08434 24.8058 3.06427 24.8058C3.0442 24.8058 3.03084 24.6691 3.03084 24.502C3.03084 24.2438 3.0442 24.173 3.11445 24.0717C3.15787 24.0008 3.22474 23.9451 3.26488 23.9451C3.30165 23.9451 3.33175 23.9249 3.33175 23.8945C3.33175 23.8692 3.36182 23.8439 3.39862 23.8439C3.43539 23.8439 3.4655 23.8084 3.4655 23.7679C3.4655 23.7173 3.49889 23.692 3.56576 23.692C3.62259 23.692 3.66606 23.6717 3.66606 23.6414C3.66606 23.6161 3.71957 23.5908 3.78311 23.5908C3.84661 23.5908 3.90011 23.5705 3.90011 23.5401C3.90011 23.5098 4.02715 23.4895 4.21773 23.4895C4.40831 23.4895 4.53534 23.4693 4.53534 23.4389C4.53534 23.4136 4.61225 23.3882 4.70252 23.3882C4.79612 23.3882 4.86965 23.4136 4.86965 23.4389C4.86965 23.4693 4.9867 23.4895 5.15383 23.4895C5.32101 23.4895 5.43801 23.5098 5.43801 23.5401C5.43801 23.5705 5.52162 23.5908 5.62193 23.5908C5.72219 23.5908 5.8058 23.6161 5.8058 23.6414C5.8058 23.6717 5.8526 23.692 5.90611 23.692C5.97298 23.692 6.00637 23.7173 6.00637 23.7679C6.00637 23.8186 6.04318 23.8439 6.12342 23.8439C6.18691 23.8439 6.24042 23.8692 6.24042 23.8945C6.24042 23.9249 6.28722 23.9451 6.34073 23.9451C6.39756 23.9451 6.44103 23.9705 6.44103 23.9958C6.44103 24.0262 6.4778 24.0464 6.5246 24.0464C6.5714 24.0464 6.60821 24.0717 6.60821 24.097C6.60821 24.1881 6.71185 24.1476 6.79208 24.0211C6.83888 23.9553 6.87565 23.8591 6.87565 23.8084C6.87565 23.7578 6.90575 23.6819 6.94252 23.6414C7.00269 23.5756 7.00939 23.5098 7.00939 23.0997C7.00939 22.8212 6.99603 22.6289 6.97596 22.6289C6.95922 22.6289 6.94252 22.5934 6.94252 22.5529C6.94252 22.5124 6.92916 22.477 6.90909 22.477C6.89239 22.477 6.87565 22.4415 6.87565 22.401C6.87565 22.3555 6.83888 22.2643 6.79208 22.1985C6.71185 22.072 6.60821 22.0315 6.60821 22.1226C6.60821 22.153 6.5714 22.1732 6.5246 22.1732C6.4778 22.1732 6.44103 22.1985 6.44103 22.2238C6.44103 22.2542 6.41093 22.2745 6.37416 22.2745C6.3374 22.2745 6.30729 22.2998 6.30729 22.3251C6.30729 22.3555 6.26382 22.3757 6.20698 22.3757C6.15348 22.3757 6.10668 22.401 6.10668 22.4264C6.10668 22.4567 6.01308 22.477 5.88937 22.477C5.71886 22.477 5.67206 22.4922 5.67206 22.5529C5.67206 22.6137 5.62526 22.6289 5.45475 22.6289C5.33105 22.6289 5.23744 22.6491 5.23744 22.6795C5.23744 22.7099 5.0268 22.7301 4.66909 22.7301C4.31133 22.7301 4.10068 22.7099 4.10068 22.6795C4.10068 22.6542 4.01712 22.6289 3.91681 22.6289C3.77641 22.6289 3.73294 22.6137 3.73294 22.5529C3.73294 22.4972 3.69617 22.477 3.59919 22.477C3.52566 22.477 3.4655 22.4567 3.4655 22.4264C3.4655 22.401 3.43539 22.3757 3.39862 22.3757C3.36182 22.3757 3.33175 22.3555 3.33175 22.3251C3.33175 22.2998 3.30165 22.2745 3.26155 22.2745C3.17461 22.2745 3.09771 22.158 3.09771 22.0264C3.09771 21.9657 3.08434 21.9201 3.06427 21.9201C3.04757 21.9201 3.03084 21.7935 3.03084 21.6416C3.03084 21.4898 3.04757 21.3632 3.06427 21.3632C3.08434 21.3632 3.09771 21.3176 3.09771 21.262C3.09771 21.1961 3.12111 21.1607 3.16458 21.1607C3.20134 21.1607 3.23145 21.1404 3.23145 21.1101C3.23145 21.0848 3.26821 21.0595 3.31501 21.0595C3.36182 21.0595 3.39862 21.0392 3.39862 21.0088C3.39862 20.9835 3.42869 20.9582 3.4655 20.9582C3.50226 20.9582 3.53232 20.9228 3.53232 20.8823C3.53232 20.8316 3.56576 20.8063 3.63263 20.8063C3.68947 20.8063 3.73294 20.7861 3.73294 20.7557C3.73294 20.7304 3.79981 20.7051 3.88337 20.7051C3.96698 20.7051 4.03385 20.6848 4.03385 20.6544C4.03385 20.624 4.27789 20.6038 4.70252 20.6038C5.1271 20.6038 5.37114 20.624 5.37114 20.6544C5.37114 20.6848 5.45475 20.7051 5.55506 20.7051C5.65537 20.7051 5.73893 20.7304 5.73893 20.7557C5.73893 20.7861 5.78573 20.8063 5.83924 20.8063C5.90611 20.8063 5.93954 20.8316 5.93954 20.8823C5.93954 20.9329 5.97631 20.9582 6.05655 20.9582C6.12004 20.9582 6.17355 20.9835 6.17355 21.0088C6.17355 21.0392 6.22035 21.0595 6.27386 21.0595C6.33069 21.0595 6.37416 21.0848 6.37416 21.1101C6.37416 21.1404 6.42767 21.1607 6.49116 21.1607C6.5547 21.1607 6.60821 21.186 6.60821 21.2113C6.60821 21.2417 6.63161 21.262 6.65834 21.262C6.73525 21.262 6.94252 20.9278 6.94252 20.8063C6.94252 20.7506 6.95922 20.7051 6.97596 20.7051C6.99603 20.7051 7.00939 20.5127 7.00939 20.2241C7.00939 19.9356 6.99603 19.7432 6.97596 19.7432C6.95922 19.7432 6.94252 19.7077 6.94252 19.6672C6.94252 19.5255 6.71851 19.2369 6.60821 19.2369C6.5547 19.2369 6.5079 19.2622 6.5079 19.2875C6.5079 19.3179 6.4778 19.3382 6.44103 19.3382C6.40427 19.3382 6.37416 19.3634 6.37416 19.3888C6.37416 19.4192 6.34406 19.4394 6.30729 19.4394C6.27052 19.4394 6.24042 19.4647 6.24042 19.49C6.24042 19.5204 6.18691 19.5406 6.12342 19.5406C6.05988 19.5406 6.00637 19.566 6.00637 19.5913C6.00637 19.6217 5.91614 19.6419 5.8058 19.6419C5.69546 19.6419 5.60519 19.6622 5.60519 19.6925C5.60519 19.7229 5.49822 19.7432 5.35445 19.7432C5.15383 19.7432 5.1037 19.7584 5.1037 19.8191C5.1037 19.8849 5.0335 19.8951 4.66909 19.8951C4.30463 19.8951 4.23442 19.8849 4.23442 19.8191C4.23442 19.7584 4.18762 19.7432 4.01712 19.7432C3.89341 19.7432 3.79981 19.7229 3.79981 19.6925C3.79981 19.6672 3.72623 19.6419 3.63263 19.6419C3.54236 19.6419 3.4655 19.6217 3.4655 19.5913C3.4655 19.566 3.43539 19.5406 3.39862 19.5406C3.36182 19.5406 3.33175 19.5204 3.33175 19.49C3.33175 19.4647 3.31501 19.4394 3.29832 19.4394C3.25152 19.4394 3.09771 19.2065 3.09771 19.1357C3.09771 19.1103 3.08434 19.085 3.06427 19.085C3.0442 19.085 3.03084 18.9483 3.03084 18.7813C3.03084 18.5231 3.0442 18.4522 3.11445 18.3509C3.15787 18.28 3.22474 18.2244 3.26488 18.2244C3.30165 18.2244 3.33175 18.2041 3.33175 18.1737C3.33175 18.1484 3.36182 18.1231 3.39862 18.1231C3.43539 18.1231 3.4655 18.0877 3.4655 18.0472C3.4655 17.9965 3.49889 17.9713 3.56576 17.9713C3.62259 17.9713 3.66606 17.951 3.66606 17.9206C3.66606 17.8953 3.71957 17.87 3.78311 17.87C3.84661 17.87 3.90011 17.8497 3.90011 17.8194C3.90011 17.789 4.02715 17.7687 4.21773 17.7687C4.40831 17.7687 4.53534 17.7485 4.53534 17.7181C4.53534 17.6928 4.61225 17.6675 4.70252 17.6675C4.79612 17.6675 4.86965 17.6928 4.86965 17.7181C4.86965 17.7485 4.9867 17.7687 5.15383 17.7687C5.32101 17.7687 5.43801 17.789 5.43801 17.8194C5.43801 17.8497 5.52162 17.87 5.62193 17.87C5.72219 17.87 5.8058 17.8953 5.8058 17.9206C5.8058 17.951 5.8526 17.9713 5.90611 17.9713C5.97298 17.9713 6.00637 17.9965 6.00637 18.0472C6.00637 18.0978 6.04318 18.1231 6.12342 18.1231C6.18691 18.1231 6.24042 18.1484 6.24042 18.1737C6.24042 18.2041 6.28722 18.2244 6.34073 18.2244C6.39756 18.2244 6.44103 18.2497 6.44103 18.275C6.44103 18.3054 6.4778 18.3256 6.5246 18.3256C6.5714 18.3256 6.60821 18.3509 6.60821 18.3762C6.60821 18.4674 6.71185 18.4269 6.79208 18.3003C6.83888 18.2345 6.87565 18.1383 6.87565 18.0877C6.87565 18.0371 6.90575 17.9611 6.94252 17.9206C7.00269 17.8548 7.00939 17.789 7.00939 17.3789C7.00939 17.1005 6.99603 16.9081 6.97596 16.9081C6.95922 16.9081 6.94252 16.8726 6.94252 16.8321C6.94252 16.7917 6.92916 16.7562 6.90909 16.7562C6.89239 16.7562 6.87565 16.7208 6.87565 16.6803C6.87565 16.6347 6.83888 16.5436 6.79208 16.4778C6.71185 16.3512 6.60821 16.3107 6.60821 16.4018C6.60821 16.4322 6.5714 16.4524 6.5246 16.4524C6.4778 16.4524 6.44103 16.4778 6.44103 16.5031C6.44103 16.5335 6.41093 16.5537 6.37416 16.5537C6.3374 16.5537 6.30729 16.579 6.30729 16.6043C6.30729 16.6347 6.26382 16.655 6.20698 16.655C6.15348 16.655 6.10668 16.6803 6.10668 16.7056C6.10668 16.7359 6.01308 16.7562 5.88937 16.7562C5.71886 16.7562 5.67206 16.7714 5.67206 16.8321C5.67206 16.8929 5.62526 16.9081 5.45475 16.9081C5.33105 16.9081 5.23744 16.9283 5.23744 16.9587C5.23744 16.9891 5.0268 17.0093 4.66909 17.0093C4.31133 17.0093 4.10068 16.9891 4.10068 16.9587C4.10068 16.9334 4.01712 16.9081 3.91681 16.9081C3.77641 16.9081 3.73294 16.8929 3.73294 16.8321C3.73294 16.7765 3.69617 16.7562 3.59919 16.7562C3.52566 16.7562 3.4655 16.7359 3.4655 16.7056C3.4655 16.6803 3.43539 16.655 3.39862 16.655C3.36182 16.655 3.33175 16.6347 3.33175 16.6043C3.33175 16.579 3.30165 16.5537 3.26155 16.5537C3.17461 16.5537 3.09771 16.4373 3.09771 16.3056C3.09771 16.2449 3.08434 16.1993 3.06427 16.1993C3.04757 16.1993 3.03084 16.0727 3.03084 15.9209C3.03084 15.769 3.04757 15.6424 3.06427 15.6424C3.08434 15.6424 3.09771 15.5969 3.09771 15.5412C3.09771 15.4754 3.12111 15.4399 3.16458 15.4399C3.20134 15.4399 3.23145 15.4197 3.23145 15.3893C3.23145 15.364 3.26821 15.3387 3.31501 15.3387C3.36182 15.3387 3.39862 15.3184 3.39862 15.288C3.39862 15.2627 3.42869 15.2374 3.4655 15.2374C3.50226 15.2374 3.53232 15.202 3.53232 15.1615C3.53232 15.1109 3.56576 15.0855 3.63263 15.0855C3.68947 15.0855 3.73294 15.0653 3.73294 15.0349C3.73294 15.0096 3.79981 14.9843 3.88337 14.9843C3.96698 14.9843 4.03385 14.964 4.03385 14.9337C4.03385 14.9033 4.27789 14.883 4.70252 14.883C5.1271 14.883 5.37114 14.9033 5.37114 14.9337C5.37114 14.964 5.45475 14.9843 5.55506 14.9843C5.65537 14.9843 5.73893 15.0096 5.73893 15.0349C5.73893 15.0653 5.78573 15.0855 5.83924 15.0855C5.90611 15.0855 5.93954 15.1109 5.93954 15.1615C5.93954 15.2121 5.97631 15.2374 6.05655 15.2374C6.12004 15.2374 6.17355 15.2627 6.17355 15.288C6.17355 15.3184 6.22035 15.3387 6.27386 15.3387C6.33069 15.3387 6.37416 15.364 6.37416 15.3893C6.37416 15.4197 6.42767 15.4399 6.49116 15.4399C6.5547 15.4399 6.60821 15.4652 6.60821 15.4906C6.60821 15.5209 6.63161 15.5412 6.65834 15.5412C6.73525 15.5412 6.94252 15.2071 6.94252 15.0855C6.94252 15.0299 6.95922 14.9843 6.97596 14.9843C6.99603 14.9843 7.00939 14.7919 7.00939 14.5034C7.00939 14.2148 6.99603 14.0224 6.97596 14.0224C6.95922 14.0224 6.94252 13.992 6.94252 13.9566C6.94252 13.9211 6.91242 13.8604 6.87565 13.8199C6.83888 13.7794 6.80878 13.7186 6.80878 13.6781C6.80878 13.6427 6.78871 13.5769 6.76198 13.5364C6.70514 13.4554 6.60821 13.4402 6.60821 13.5161C6.60821 13.5465 6.5714 13.5668 6.5246 13.5668C6.4778 13.5668 6.44103 13.5921 6.44103 13.6174C6.44103 13.6477 6.41093 13.668 6.37416 13.668C6.3374 13.668 6.30729 13.6933 6.30729 13.7186C6.30729 13.749 6.27719 13.7693 6.24042 13.7693C6.20365 13.7693 6.17355 13.7946 6.17355 13.8199C6.17355 13.8503 6.08998 13.8705 5.98968 13.8705C5.84927 13.8705 5.8058 13.8857 5.8058 13.9465C5.8058 14.0072 5.759 14.0224 5.58849 14.0224C5.46479 14.0224 5.37114 14.0426 5.37114 14.073C5.37114 14.1034 5.11374 14.1237 4.66909 14.1237C4.22439 14.1237 3.96698 14.1034 3.96698 14.073C3.96698 14.0477 3.88675 14.0224 3.78644 14.0224C3.65603 14.0224 3.60257 14.0021 3.58583 13.9465C3.57579 13.906 3.52899 13.8705 3.48219 13.8705C3.43539 13.8705 3.39862 13.8503 3.39862 13.8199C3.39862 13.7946 3.36852 13.7693 3.33175 13.7693C3.29161 13.7693 3.21138 13.6882 3.14788 13.5921C3.04087 13.4301 3.03084 13.3946 3.03084 13.1111C3.03084 12.8529 3.0442 12.782 3.11445 12.6808C3.15787 12.6099 3.22474 12.5542 3.26488 12.5542C3.30165 12.5542 3.33175 12.534 3.33175 12.5036C3.33175 12.4783 3.36182 12.453 3.39862 12.453C3.43539 12.453 3.4655 12.4327 3.4655 12.4024C3.4655 12.377 3.49556 12.3517 3.53232 12.3517C3.56913 12.3517 3.59919 12.3315 3.59919 12.3011C3.59919 12.2758 3.646 12.2505 3.6995 12.2505C3.76637 12.2505 3.79981 12.2252 3.79981 12.1745C3.79981 12.1138 3.84328 12.0986 3.98368 12.0986C4.08399 12.0986 4.16755 12.0783 4.16755 12.0479C4.16755 12.0176 4.36817 11.9973 4.70252 11.9973C5.03683 11.9973 5.23744 12.0176 5.23744 12.0479C5.23744 12.0783 5.33105 12.0986 5.45475 12.0986C5.62526 12.0986 5.67206 12.1138 5.67206 12.1745C5.67206 12.2252 5.7055 12.2505 5.77237 12.2505C5.8292 12.2505 5.87267 12.2758 5.87267 12.3011C5.87267 12.3315 5.92614 12.3517 5.98968 12.3517C6.05322 12.3517 6.10668 12.377 6.10668 12.4024C6.10668 12.4327 6.15348 12.453 6.20698 12.453C6.26382 12.453 6.30729 12.4783 6.30729 12.5036C6.30729 12.534 6.35409 12.5542 6.4076 12.5542C6.46443 12.5542 6.5079 12.5796 6.5079 12.6048C6.5079 12.6352 6.5547 12.6555 6.60821 12.6555C6.72854 12.6555 6.94252 12.3669 6.94252 12.1999C6.94252 12.1441 6.95922 12.0986 6.97596 12.0986C6.99603 12.0986 7.00939 11.9062 7.00939 11.6176C7.00939 11.3291 6.99603 11.1367 6.97596 11.1367C6.95922 11.1367 6.94252 11.1063 6.94252 11.0709C6.94252 11.0355 6.91242 10.9747 6.87565 10.9342C6.83888 10.8937 6.80878 10.8329 6.80878 10.7975C6.80878 10.7013 6.62824 10.4279 6.56137 10.4279C6.5313 10.4279 6.5079 10.4077 6.5079 10.3773C6.5079 10.352 6.46443 10.3267 6.4076 10.3267C6.35409 10.3267 6.30729 10.3064 6.30729 10.276C6.30729 10.2507 6.26382 10.2254 6.20698 10.2254C6.15348 10.2254 6.10668 10.2052 6.10668 10.1748C6.10668 10.1495 6.05322 10.1241 5.98968 10.1241C5.92614 10.1241 5.87267 10.1039 5.87267 10.0735C5.87267 10.0395 5.24609 10.0241 4.04928 10.023C3.85766 10.458 3.28279 10.7739 2.6034 10.7739C1.7673 10.7739 1.0895 10.2955 1.0895 9.70538C1.0895 9.11527 1.7673 8.6369 2.6034 8.6369C3.32296 8.6369 3.92527 8.99121 4.07919 9.46613C5.25653 9.46751 5.87267 9.48288 5.87267 9.51664C5.87267 9.54702 5.92614 9.56729 5.98968 9.56729C6.05322 9.56729 6.10668 9.59258 6.10668 9.6179C6.10668 9.64828 6.16689 9.66851 6.24042 9.66851C6.314 9.66851 6.37416 9.69383 6.37416 9.71916C6.37416 9.74954 6.42767 9.76976 6.49116 9.76976C6.5547 9.76976 6.60821 9.79509 6.60821 9.82041C6.60821 9.85079 6.63827 9.87102 6.67504 9.87102C6.71185 9.87102 6.74191 9.89635 6.74191 9.92167C6.74191 9.9976 6.89905 10.2254 6.94923 10.2254C6.97596 10.2254 7.01605 10.271 7.04283 10.3267C7.06956 10.3824 7.1097 10.4279 7.1331 10.4279C7.1565 10.4279 7.17657 10.4836 7.17657 10.5545C7.17657 10.6254 7.19326 10.681 7.21 10.681C7.23003 10.681 7.24344 10.7266 7.24344 10.7823C7.24344 10.838 7.26014 10.8836 7.27683 10.8836C7.2969 10.8836 7.31027 10.9393 7.31027 11.0101ZM6.17355 16.0475C6.17355 16.0221 6.20365 15.9968 6.24042 15.9968C6.27719 15.9968 6.30729 15.9766 6.30729 15.9462C6.30729 15.9209 6.27719 15.8955 6.24042 15.8955C6.20365 15.8955 6.17355 15.8753 6.17355 15.8449C6.17355 15.8196 6.12004 15.7943 6.05655 15.7943C5.97631 15.7943 5.93954 15.769 5.93954 15.7184C5.93954 15.6677 5.90611 15.6424 5.83924 15.6424C5.78573 15.6424 5.73893 15.6222 5.73893 15.5918C5.73893 15.5665 5.67206 15.5412 5.58849 15.5412C5.50488 15.5412 5.43801 15.5209 5.43801 15.4906C5.43801 15.4602 5.1438 15.4399 4.61891 15.4399C4.09402 15.4399 3.79981 15.4602 3.79981 15.4906C3.79981 15.5209 3.75634 15.5412 3.6995 15.5412C3.646 15.5412 3.59919 15.5665 3.59919 15.5918C3.59919 15.6222 3.56913 15.6424 3.53232 15.6424C3.48219 15.6424 3.4655 15.6779 3.4655 15.769C3.4655 15.8399 3.45209 15.8955 3.43206 15.8955C3.38189 15.8955 3.39192 16.0424 3.44543 16.1284C3.47216 16.1689 3.53232 16.1993 3.57917 16.1993C3.63263 16.1993 3.66606 16.2297 3.66606 16.2753C3.66606 16.331 3.70621 16.3512 3.8165 16.3512C3.90011 16.3512 3.96698 16.3765 3.96698 16.4018C3.96698 16.4322 4.19095 16.4524 4.56878 16.4524C4.94656 16.4524 5.17057 16.4322 5.17057 16.4018C5.17057 16.3715 5.26417 16.3512 5.38788 16.3512C5.55839 16.3512 5.60519 16.336 5.60519 16.2753C5.60519 16.2246 5.63863 16.1993 5.7055 16.1993C5.76233 16.1993 5.8058 16.1791 5.8058 16.1487C5.8058 16.1234 5.88937 16.0981 5.98968 16.0981C6.08998 16.0981 6.17355 16.0778 6.17355 16.0475ZM6.10668 18.9331C6.10668 18.9078 6.15348 18.8825 6.20698 18.8825C6.26382 18.8825 6.30729 18.8623 6.30729 18.8319C6.30729 18.8066 6.27719 18.7813 6.24042 18.7813C6.20365 18.7813 6.17355 18.761 6.17355 18.7306C6.17355 18.7053 6.13678 18.68 6.08998 18.68C6.03648 18.68 6.00637 18.6496 6.00637 18.6041C6.00637 18.5534 5.97298 18.5281 5.90611 18.5281C5.8526 18.5281 5.8058 18.5079 5.8058 18.4775C5.8058 18.4522 5.74559 18.4269 5.67206 18.4269C5.59853 18.4269 5.53832 18.4066 5.53832 18.3762C5.53832 18.3459 5.44472 18.3256 5.32101 18.3256C5.1973 18.3256 5.1037 18.3054 5.1037 18.275C5.1037 18.2446 4.91312 18.2244 4.60221 18.2244C4.29126 18.2244 4.10068 18.2446 4.10068 18.275C4.10068 18.3054 4.01712 18.3256 3.91681 18.3256C3.8165 18.3256 3.73294 18.3509 3.73294 18.3762C3.73294 18.4066 3.70283 18.4269 3.66606 18.4269C3.6293 18.4269 3.59919 18.4522 3.59919 18.4775C3.59919 18.5079 3.56913 18.5281 3.53232 18.5281C3.49556 18.5281 3.4655 18.5636 3.4655 18.6041C3.4655 18.6446 3.45209 18.68 3.43206 18.68C3.41532 18.68 3.39862 18.7509 3.39862 18.8319C3.39862 18.9483 3.41199 18.9838 3.4655 18.9838C3.50226 18.9838 3.53232 19.0091 3.53232 19.0344C3.53232 19.0648 3.57917 19.085 3.63263 19.085C3.6995 19.085 3.73294 19.1103 3.73294 19.161C3.73294 19.2166 3.77308 19.2369 3.88337 19.2369C3.96698 19.2369 4.03385 19.2622 4.03385 19.2875C4.03385 19.3179 4.22439 19.3382 4.53534 19.3382C4.84625 19.3382 5.03683 19.3179 5.03683 19.2875C5.03683 19.2571 5.1271 19.2369 5.23744 19.2369C5.39459 19.2369 5.43801 19.2217 5.43801 19.161C5.43801 19.1053 5.47815 19.085 5.58849 19.085C5.67206 19.085 5.73893 19.0648 5.73893 19.0344C5.73893 19.0091 5.8225 18.9838 5.9228 18.9838C6.02311 18.9838 6.10668 18.9635 6.10668 18.9331ZM6.17355 21.7682C6.17355 21.7429 6.20365 21.7176 6.24042 21.7176C6.27719 21.7176 6.30729 21.6973 6.30729 21.667C6.30729 21.6416 6.27719 21.6163 6.24042 21.6163C6.20365 21.6163 6.17355 21.5961 6.17355 21.5657C6.17355 21.5404 6.12004 21.5151 6.05655 21.5151C5.97631 21.5151 5.93954 21.4898 5.93954 21.4392C5.93954 21.3885 5.90611 21.3632 5.83924 21.3632C5.78573 21.3632 5.73893 21.343 5.73893 21.3126C5.73893 21.2873 5.67206 21.262 5.58849 21.262C5.50488 21.262 5.43801 21.2417 5.43801 21.2113C5.43801 21.1809 5.1438 21.1607 4.61891 21.1607C4.09402 21.1607 3.79981 21.1809 3.79981 21.2113C3.79981 21.2417 3.75634 21.262 3.6995 21.262C3.646 21.262 3.59919 21.2873 3.59919 21.3126C3.59919 21.343 3.56913 21.3632 3.53232 21.3632C3.48219 21.3632 3.4655 21.3987 3.4655 21.4898C3.4655 21.5606 3.45209 21.6163 3.43206 21.6163C3.38189 21.6163 3.39192 21.7632 3.44543 21.8492C3.47216 21.8897 3.53232 21.9201 3.57917 21.9201C3.63263 21.9201 3.66606 21.9505 3.66606 21.996C3.66606 22.0517 3.70621 22.072 3.8165 22.072C3.90011 22.072 3.96698 22.0973 3.96698 22.1226C3.96698 22.153 4.19095 22.1732 4.56878 22.1732C4.94656 22.1732 5.17057 22.153 5.17057 22.1226C5.17057 22.0922 5.26417 22.072 5.38788 22.072C5.55839 22.072 5.60519 22.0568 5.60519 21.996C5.60519 21.9454 5.63863 21.9201 5.7055 21.9201C5.76233 21.9201 5.8058 21.8998 5.8058 21.8695C5.8058 21.8441 5.88937 21.8189 5.98968 21.8189C6.08998 21.8189 6.17355 21.7986 6.17355 21.7682ZM6.10668 24.6539C6.10668 24.6286 6.15348 24.6033 6.20698 24.6033C6.26382 24.6033 6.30729 24.583 6.30729 24.5527C6.30729 24.5274 6.27719 24.502 6.24042 24.502C6.20365 24.502 6.17355 24.4818 6.17355 24.4514C6.17355 24.4261 6.13678 24.4008 6.08998 24.4008C6.03648 24.4008 6.00637 24.3704 6.00637 24.3248C6.00637 24.2742 5.97298 24.2489 5.90611 24.2489C5.8526 24.2489 5.8058 24.2286 5.8058 24.1983C5.8058 24.173 5.74559 24.1476 5.67206 24.1476C5.59853 24.1476 5.53832 24.1274 5.53832 24.097C5.53832 24.0667 5.44472 24.0464 5.32101 24.0464C5.1973 24.0464 5.1037 24.0262 5.1037 23.9958C5.1037 23.9654 4.91312 23.9451 4.60221 23.9451C4.29126 23.9451 4.10068 23.9654 4.10068 23.9958C4.10068 24.0262 4.01712 24.0464 3.91681 24.0464C3.8165 24.0464 3.73294 24.0717 3.73294 24.097C3.73294 24.1274 3.70283 24.1476 3.66606 24.1476C3.6293 24.1476 3.59919 24.173 3.59919 24.1983C3.59919 24.2286 3.56913 24.2489 3.53232 24.2489C3.49556 24.2489 3.4655 24.2843 3.4655 24.3248C3.4655 24.3653 3.45209 24.4008 3.43206 24.4008C3.41532 24.4008 3.39862 24.4716 3.39862 24.5527C3.39862 24.6691 3.41199 24.7045 3.4655 24.7045C3.50226 24.7045 3.53232 24.7299 3.53232 24.7552C3.53232 24.7855 3.57917 24.8058 3.63263 24.8058C3.6995 24.8058 3.73294 24.8311 3.73294 24.8817C3.73294 24.9374 3.77308 24.9577 3.88337 24.9577C3.96698 24.9577 4.03385 24.983 4.03385 25.0083C4.03385 25.0387 4.22439 25.0589 4.53534 25.0589C4.84625 25.0589 5.03683 25.0387 5.03683 25.0083C5.03683 24.9779 5.1271 24.9577 5.23744 24.9577C5.39459 24.9577 5.43801 24.9425 5.43801 24.8817C5.43801 24.826 5.47815 24.8058 5.58849 24.8058C5.67206 24.8058 5.73893 24.7855 5.73893 24.7552C5.73893 24.7299 5.8225 24.7045 5.9228 24.7045C6.02311 24.7045 6.10668 24.6843 6.10668 24.6539ZM5.93954 13.263C5.93954 13.2377 6.00637 13.2124 6.08998 13.2124C6.21702 13.2124 6.24042 13.1972 6.24042 13.1111C6.24042 13.0453 6.21702 13.0099 6.17355 13.0099C6.13678 13.0099 6.10668 12.9896 6.10668 12.9592C6.10668 12.9339 6.05322 12.9086 5.98968 12.9086C5.90944 12.9086 5.87267 12.8833 5.87267 12.8327C5.87267 12.782 5.83924 12.7567 5.77237 12.7567C5.71886 12.7567 5.67206 12.7365 5.67206 12.7061C5.67206 12.6808 5.58849 12.6555 5.48819 12.6555C5.38788 12.6555 5.30431 12.6352 5.30431 12.6048C5.30431 12.5745 5.04687 12.5542 4.60221 12.5542C4.15756 12.5542 3.90011 12.5745 3.90011 12.6048C3.90011 12.6352 3.84661 12.6555 3.78311 12.6555C3.71957 12.6555 3.66606 12.6808 3.66606 12.7061C3.66606 12.7365 3.636 12.7567 3.59919 12.7567C3.56243 12.7567 3.53232 12.7871 3.53232 12.8226C3.53232 12.858 3.50226 12.9187 3.4655 12.9592C3.42869 12.9998 3.39862 13.0605 3.39862 13.101C3.39862 13.1921 3.48219 13.3136 3.54573 13.3136C3.57579 13.3136 3.59919 13.3491 3.59919 13.3896C3.59919 13.4402 3.63263 13.4655 3.6995 13.4655C3.75634 13.4655 3.79981 13.4908 3.79981 13.5161C3.79981 13.5465 4.07395 13.5668 4.55204 13.5668C5.03013 13.5668 5.30431 13.5465 5.30431 13.5161C5.30431 13.4908 5.38788 13.4655 5.48819 13.4655C5.62859 13.4655 5.67206 13.4503 5.67206 13.3896C5.67206 13.3339 5.70883 13.3136 5.8058 13.3136C5.87933 13.3136 5.93954 13.2934 5.93954 13.263ZM33.6302 15.0656L34.9412 20.408H32.3191L33.6302 15.0656ZM64.3539 17.5587L63.0428 12.2163L61.7318 17.5587H64.3539ZM119.273 13.9971L120.584 19.3395H117.962L119.273 13.9971Z" fill="#2A6E3F" fill-opacity="0.5"/>
</svg>
