<svg width="56" height="50" viewBox="0 0 56 50" fill="none" xmlns="http://www.w3.org/2000/svg">
<path fill-rule="evenodd" clip-rule="evenodd" d="M0 4C0 1.79086 1.79087 0 4 0L37.9076 0C39.2703 0 40.5392 0.693755 41.2748 1.8409L54.7402 22.8409C55.5839 24.1567 55.5839 25.8433 54.7402 27.1591L41.2748 48.1591C40.5392 49.3062 39.2703 50 37.9076 50H4C1.79086 50 0 48.2091 0 46L0 4Z" fill="url(#paint0_linear)"/>
<path d="M22.5762 30V28.782L25.4392 25.212C25.8826 24.6567 26.1929 24.1877 26.3702 23.805C26.5522 23.4223 26.6432 23.0607 26.6432 22.72C26.6432 22.2487 26.4939 21.901 26.1952 21.677C25.9012 21.4483 25.4182 21.334 24.7462 21.334C24.3356 21.334 23.9296 21.3713 23.5282 21.446C23.1269 21.5207 22.7676 21.6187 22.4502 21.74V19.892C22.7629 19.78 23.1549 19.689 23.6262 19.619C24.1022 19.5443 24.5572 19.507 24.9912 19.507C26.2699 19.507 27.2382 19.7473 27.8962 20.228C28.5542 20.704 28.8832 21.4623 28.8832 22.503C28.8832 23.0257 28.7759 23.553 28.5612 24.085C28.3466 24.6123 27.9616 25.212 27.4062 25.884L25.5652 28.124H29.3802V30H22.5762Z" fill="white"/>
<rect x="15" y="14" width="23" height="23" rx="11.5" stroke="white" stroke-width="2"/>
<defs>
<linearGradient id="paint0_linear" x1="5.07467" y1="25" x2="55.431" y2="25" gradientUnits="userSpaceOnUse">
<stop stop-color="#08416C"/>
<stop offset="1" stop-color="#2A6E3F"/>
</linearGradient>
</defs>
</svg>
