<svg width="56" height="50" viewBox="0 0 56 50" fill="none" xmlns="http://www.w3.org/2000/svg">
<path fill-rule="evenodd" clip-rule="evenodd" d="M0 4C0 1.79086 1.79087 0 4 0L37.9076 0C39.2703 0 40.5392 0.693755 41.2748 1.8409L54.7402 22.8409C55.5839 24.1567 55.5839 25.8433 54.7402 27.1591L41.2748 48.1591C40.5392 49.3062 39.2703 50 37.9076 50H4C1.79086 50 0 48.2091 0 46L0 4Z" fill="url(#paint0_linear)"/>
<path d="M25.1884 30.133C24.7077 30.133 24.2387 30.1027 23.7814 30.042C23.3287 29.9813 22.8994 29.8927 22.4934 29.776V28.075C22.89 28.187 23.3194 28.2757 23.7814 28.341C24.2434 28.4063 24.682 28.439 25.0974 28.439C25.844 28.439 26.3877 28.3153 26.7284 28.068C27.069 27.8207 27.2394 27.459 27.2394 26.983C27.2394 26.5257 27.076 26.1757 26.7494 25.933C26.4274 25.6857 25.8814 25.562 25.1114 25.562H23.5924V23.84H24.7684C25.5104 23.84 26.0447 23.721 26.3714 23.483C26.698 23.245 26.8614 22.9113 26.8614 22.482C26.8614 22.0667 26.712 21.7493 26.4134 21.53C26.1194 21.3107 25.6527 21.201 25.0134 21.201C24.626 21.201 24.227 21.2337 23.8164 21.299C23.4057 21.3643 23.0254 21.46 22.6754 21.586V19.885C23.0114 19.773 23.415 19.682 23.8864 19.612C24.3624 19.542 24.8197 19.507 25.2584 19.507C26.5137 19.507 27.4564 19.7497 28.0864 20.235C28.721 20.7157 29.0384 21.397 29.0384 22.279C29.0384 22.8623 28.882 23.3617 28.5694 23.777C28.2614 24.1877 27.832 24.4747 27.2814 24.638C27.9534 24.7827 28.469 25.065 28.8284 25.485C29.1924 25.9003 29.3744 26.4463 29.3744 27.123C29.3744 28.0657 29.0267 28.803 28.3314 29.335C27.6407 29.867 26.593 30.133 25.1884 30.133Z" fill="white"/>
<rect x="15" y="14" width="23" height="23" rx="11.5" stroke="white" stroke-width="2"/>
<defs>
<linearGradient id="paint0_linear" x1="5.07467" y1="25" x2="55.431" y2="25" gradientUnits="userSpaceOnUse">
<stop stop-color="#2A6E3F"/>
<stop offset="1" stop-color="#6CA8AF"/>
</linearGradient>
</defs>
</svg>
