<svg width="56" height="50" viewBox="0 0 56 50" fill="none" xmlns="http://www.w3.org/2000/svg">
<path fill-rule="evenodd" clip-rule="evenodd" d="M0 4C0 1.79086 1.79087 0 4 0L37.9076 0C39.2703 0 40.5392 0.693755 41.2748 1.8409L54.7402 22.8409C55.5839 24.1567 55.5839 25.8433 54.7402 27.1591L41.2748 48.1591C40.5392 49.3062 39.2703 50 37.9076 50H4C1.79086 50 0 48.2091 0 46L0 4Z" fill="url(#paint0_linear)"/>
<path d="M23.6357 30V22.293L21.2837 23.917V21.796L24.4477 19.605H25.9107V30H23.6357Z" fill="white"/>
<rect x="13" y="14" width="23" height="23" rx="11.5" stroke="white" stroke-width="2"/>
<defs>
<linearGradient id="paint0_linear" x1="5.07467" y1="25" x2="55.431" y2="25" gradientUnits="userSpaceOnUse">
<stop stop-color="#12264F"/>
<stop offset="1" stop-color="#06436F"/>
</linearGradient>
</defs>
</svg>
