<svg width="90" height="15" viewBox="0 0 90 15" fill="none" xmlns="http://www.w3.org/2000/svg">
<path fill-rule="evenodd" clip-rule="evenodd" d="M7.75135 0C5.64639 0 5.38222 0.00890625 4.55548 0.0453125C3.73035 0.081875 3.16713 0.208281 2.67432 0.39375C2.16455 0.585313 1.73212 0.841563 1.30131 1.25859C0.870178 1.67547 0.605362 2.09391 0.406751 2.58703C0.214598 3.06406 0.0838045 3.60922 0.0466657 4.40734C0.00968839 5.20734 0 5.46313 0 7.5C0 9.53688 0.00936544 9.79172 0.0468272 10.5917C0.0847734 11.3902 0.215405 11.9352 0.406912 12.412C0.60504 12.9053 0.869855 13.3238 1.30083 13.7406C1.73148 14.1578 2.1639 14.4147 2.67335 14.6063C3.16649 14.7917 3.72987 14.9181 4.55483 14.9547C5.38157 14.9911 5.64558 15 7.75038 15C9.85551 15 10.1189 14.9911 10.9456 14.9547C11.7707 14.9181 12.3346 14.7917 12.8277 14.6063C13.3374 14.4147 13.7691 14.1578 14.1998 13.7406C14.6309 13.3238 14.8957 12.9053 15.0943 12.4122C15.2849 11.9352 15.4157 11.39 15.4544 10.5919C15.4916 9.79188 15.5013 9.53688 15.5013 7.5C15.5013 5.46313 15.4916 5.2075 15.4544 4.4075C15.4157 3.60906 15.2849 3.06406 15.0943 2.58719C14.8957 2.09391 14.6309 1.67547 14.1998 1.25859C13.7686 0.841406 13.3375 0.585156 12.8273 0.39375C12.3332 0.208281 11.7696 0.081875 10.9445 0.0453125C10.1177 0.00890625 9.85454 0 7.74893 0H7.75135ZM7.05612 1.35143C7.26248 1.35112 7.49274 1.35143 7.75142 1.35143C9.82086 1.35143 10.0661 1.35862 10.8834 1.39455C11.639 1.42799 12.0492 1.55018 12.3224 1.65283C12.6841 1.78877 12.942 1.95127 13.2131 2.21377C13.4844 2.47627 13.6523 2.72627 13.7931 3.07627C13.8992 3.34033 14.0256 3.73721 14.06 4.46846C14.0972 5.25908 14.1052 5.49658 14.1052 7.49815C14.1052 9.49971 14.0972 9.73721 14.06 10.5278C14.0255 11.2591 13.8992 11.656 13.7931 11.92C13.6526 12.27 13.4844 12.5192 13.2131 12.7816C12.9418 13.0441 12.6843 13.2066 12.3224 13.3425C12.0495 13.4456 11.639 13.5675 10.8834 13.601C10.0663 13.6369 9.82086 13.6447 7.75142 13.6447C5.68182 13.6447 5.43655 13.6369 4.61949 13.601C3.8638 13.5672 3.45366 13.445 3.18028 13.3424C2.81858 13.2064 2.56023 13.0439 2.28895 12.7814C2.01768 12.5189 1.84975 12.2696 1.70894 11.9194C1.60285 11.6553 1.47642 11.2585 1.44203 10.5272C1.40489 9.73658 1.39746 9.49908 1.39746 7.49627C1.39746 5.49346 1.40489 5.25721 1.44203 4.46658C1.47658 3.73533 1.60285 3.33846 1.70894 3.07408C1.84942 2.72408 2.01768 2.47408 2.28895 2.21158C2.56023 1.94908 2.81858 1.78658 3.18028 1.65033C3.4535 1.54721 3.8638 1.42533 4.61949 1.39174C5.3345 1.36049 5.61158 1.35112 7.05612 1.34955V1.35143ZM11.8888 2.59681C11.3753 2.59681 10.9587 2.99947 10.9587 3.49649C10.9587 3.99336 11.3753 4.39648 11.8888 4.39648C12.4023 4.39648 12.8189 3.99336 12.8189 3.49649C12.8189 2.99962 12.4023 2.5965 11.8888 2.5965V2.59681ZM7.75155 3.64831C5.55342 3.64831 3.77124 5.37285 3.77124 7.49989C3.77124 9.62693 5.55342 11.3507 7.75155 11.3507C9.94968 11.3507 11.7312 9.62693 11.7312 7.49989C11.7312 5.37285 9.94952 3.64831 7.75139 3.64831H7.75155ZM7.7513 4.99963C9.17807 4.99963 10.3349 6.11888 10.3349 7.4997C10.3349 8.88037 9.17807 9.99978 7.7513 9.99978C6.32436 9.99978 5.16772 8.88037 5.16772 7.4997C5.16772 6.11888 6.32436 4.99963 7.7513 4.99963V4.99963Z" fill="#116B1D"/>
<path fill-rule="evenodd" clip-rule="evenodd" d="M80.3502 3.99023L80.3909 4.63903L79.7132 4.55958C77.2465 4.25505 75.0914 3.22228 73.2617 1.48775L72.3671 0.627107L72.1367 1.26266C71.6488 2.67941 71.9605 4.1756 72.9771 5.18189C73.5192 5.738 73.3972 5.81745 72.462 5.48643C72.1367 5.3805 71.8521 5.30106 71.825 5.34078C71.7301 5.43347 72.0554 6.63837 72.3129 7.11503C72.6653 7.77706 73.3837 8.42586 74.1698 8.80983L74.8339 9.11437L74.0478 9.12761C73.2888 9.12761 73.2617 9.14085 73.343 9.41891C73.6141 10.2795 74.6848 11.1932 75.8775 11.5904L76.7179 11.8684L75.986 12.2921C74.9017 12.9012 73.6276 13.2455 72.3536 13.2719C71.7437 13.2852 71.2422 13.3381 71.2422 13.3779C71.2422 13.5103 72.8957 14.2517 73.858 14.543C76.745 15.4037 80.174 15.0329 82.7492 13.5632C84.579 12.5172 86.4087 10.4384 87.2626 8.42586C87.7234 7.35336 88.1843 5.39374 88.1843 4.45366C88.1843 3.84459 88.2249 3.76514 88.9839 3.03691C89.4312 2.61321 89.8514 2.14978 89.9327 2.01738C90.0682 1.7658 90.0547 1.7658 89.3634 1.9909C88.2114 2.38812 88.0487 2.33515 88.618 1.73932C89.0381 1.31562 89.5396 0.547663 89.5396 0.322572C89.5396 0.28285 89.3363 0.349054 89.1059 0.46822C88.8619 0.600626 88.3198 0.799236 87.9132 0.918402L87.1813 1.14349L86.5172 0.706551C86.1512 0.46822 85.6362 0.203406 85.3651 0.123962C84.6739 -0.0614069 83.6167 -0.0349255 82.9932 0.176925C81.299 0.772755 80.2283 2.30867 80.3502 3.99023Z" fill="#116B1D"/>
<path fill-rule="evenodd" clip-rule="evenodd" d="M44.532 15V7.49912H46.6718L46.9554 4.91428H44.532L44.5356 3.62054C44.5356 2.94637 44.6018 2.58514 45.6025 2.58514H46.9402V0H44.8001C42.2295 0 41.3248 1.25393 41.3248 3.36264V4.91457H39.7224V7.49941H41.3248V15H44.532Z" fill="#116B1D"/>
</svg>
