<svg width="60" height="75" viewBox="0 0 40 75" fill="none" xmlns="http://www.w3.org/2000/svg">
<path fill-rule="evenodd" clip-rule="evenodd" d="M38.4988 61.2009C39.4476 60.4418 40 59.2926 40 58.0774V8.32245C40 4.96843 36.1203 3.10374 33.5012 5.19898L22.4988 14.0009C21.0379 15.1696 18.9621 15.1696 17.5012 14.0009L6.49878 5.19898C3.87973 3.10373 0 4.96842 0 8.32245V58.0775C0 59.2926 0.552361 60.4418 1.50122 61.2009L17.5012 74.0009C18.9621 75.1696 21.0379 75.1696 22.4988 74.0009L38.4988 61.2009Z" fill="url(#paint0_linear)"/>
<path fill-rule="evenodd" clip-rule="evenodd" d="M10 40C10 34.478 14.477 30 20 30C25.523 30 30 34.478 30 40C30 45.522 25.523 50 20 50C14.477 50 10 45.522 10 40ZM20.0001 47.9999C15.5891 47.9999 12.0001 44.4109 12.0001 39.9999C12.0001 35.5889 15.5891 31.9999 20.0001 31.9999C24.4111 31.9999 28.0001 35.5889 28.0001 39.9999C28.0001 44.4109 24.4111 47.9999 20.0001 47.9999ZM22.7047 36.3945L18.9207 41.3635L17.2877 39.2775C16.9477 38.8415 16.3177 38.7655 15.8837 39.1065C15.4487 39.4465 15.3717 40.0755 15.7127 40.5095L18.1437 43.6165C18.3337 43.8585 18.6237 43.9995 18.9317 43.9995H18.9387C19.2477 43.9985 19.5397 43.8525 19.7267 43.6055L24.2957 37.6055C24.6307 37.1655 24.5457 36.5395 24.1057 36.2045C23.6647 35.8695 23.0387 35.9555 22.7047 36.3945Z" fill="#F7F8F9"/>
<mask id="mask0" mask-type="alpha" maskUnits="userSpaceOnUse" x="10" y="30" width="20" height="20">
<path fill-rule="evenodd" clip-rule="evenodd" d="M10 40C10 34.478 14.477 30 20 30C25.523 30 30 34.478 30 40C30 45.522 25.523 50 20 50C14.477 50 10 45.522 10 40ZM20.0001 47.9999C15.5891 47.9999 12.0001 44.4109 12.0001 39.9999C12.0001 35.5889 15.5891 31.9999 20.0001 31.9999C24.4111 31.9999 28.0001 35.5889 28.0001 39.9999C28.0001 44.4109 24.4111 47.9999 20.0001 47.9999ZM22.7047 36.3945L18.9207 41.3635L17.2877 39.2775C16.9477 38.8415 16.3177 38.7655 15.8837 39.1065C15.4487 39.4465 15.3717 40.0755 15.7127 40.5095L18.1437 43.6165C18.3337 43.8585 18.6237 43.9995 18.9317 43.9995H18.9387C19.2477 43.9985 19.5397 43.8525 19.7267 43.6055L24.2957 37.6055C24.6307 37.1655 24.5457 36.5395 24.1057 36.2045C23.6647 35.8695 23.0387 35.9555 22.7047 36.3945Z" fill="white"/>
</mask>
<g mask="url(#mask0)">
</g>
<defs>
<linearGradient id="paint0_linear" x1="20" y1="4.70645" x2="20" y2="74.9578" gradientUnits="userSpaceOnUse">
<stop stop-color="#2A6E3F"/>
<stop offset="1" stop-color="#6CA8AF"/>
</linearGradient>
</defs>
</svg>
