<svg width="60" height="65" viewBox="0 0 40 65" fill="none" xmlns="http://www.w3.org/2000/svg">
<path fill-rule="evenodd" clip-rule="evenodd" d="M33.5012 5.19898C36.1203 3.10373 40 4.96843 40 8.32245L40 66C40 68.2091 38.2091 70 36 70H4C1.79086 70 0 68.2091 0 66L0 8.32245C0 4.96843 3.87973 3.10373 6.49878 5.19898L17.5012 14.0009C18.9621 15.1696 21.0379 15.1696 22.4988 14.0009L33.5012 5.19898Z" fill="#6CA8AF"/>
<path d="M30.5673 42.2231L28.25 43.7679L25.25 36.1077L27.5909 34.5471C27.7667 34.4299 27.9701 34.4094 28.1572 34.4901C28.3443 34.5708 28.5001 34.7463 28.5911 34.9787L30.8967 40.8658C30.9428 40.9835 30.9708 41.1123 30.9792 41.2446C30.9876 41.377 30.9761 41.5102 30.9454 41.6365C30.9148 41.7629 30.8655 41.8798 30.8006 41.9805C30.7357 42.0812 30.6564 42.1637 30.5673 42.2231V42.2231Z" stroke="white" stroke-width="2" stroke-linecap="round" stroke-linejoin="round"/>
<path d="M11.7501 43.634L9.43278 42.0892C9.34369 42.0298 9.26437 41.9473 9.19944 41.8466C9.13452 41.7459 9.08528 41.629 9.05462 41.5026C9.02395 41.3763 9.01247 41.243 9.02084 41.1107C9.02921 40.9784 9.05727 40.8496 9.10337 40.7319L11.409 34.8448C11.5 34.6124 11.6558 34.4369 11.8429 34.3562C12.0299 34.2755 12.2333 34.2959 12.4092 34.4132L14.7501 35.9738L11.7501 43.634Z" stroke="white" stroke-width="2" stroke-linecap="round" stroke-linejoin="round"/>
<path d="M28.25 43.768L26.75 46.1078L23.3003 50.7074C23.2087 50.8295 23.095 50.9179 22.9701 50.964C22.8453 51.0101 22.7137 51.0123 22.588 50.9704L17.1546 49.1593C17.0527 49.1253 16.9572 49.0632 16.8745 48.9769L11.75 43.634" stroke="white" stroke-width="2" stroke-linecap="round" stroke-linejoin="round"/>
<path d="M26.75 46.1077L22.625 42.1077L21.425 43.3077C20.9058 43.827 20.2742 44.1077 19.625 44.1077C18.9759 44.1077 18.3443 43.827 17.825 43.3077L17.3168 42.7995C17.2309 42.7135 17.1598 42.6039 17.1083 42.4781C17.0569 42.3523 17.0263 42.2133 17.0187 42.0704C17.0111 41.9274 17.0266 41.784 17.0642 41.6498C17.1018 41.5156 17.1605 41.3937 17.2365 41.2924L20.9054 36.4006C20.975 36.3077 21.0577 36.234 21.1487 36.1838C21.2397 36.1335 21.3372 36.1077 21.4357 36.1077H25.25" stroke="white" stroke-width="2" stroke-linecap="round" stroke-linejoin="round"/>
<path d="M14.8038 35.9738L19.6151 34.1036C19.787 34.0368 19.9711 34.0541 20.1342 34.1525L23.375 36.1077" stroke="white" stroke-width="2" stroke-linecap="round" stroke-linejoin="round"/>
<path d="M18.5 53.6077L15.6744 52.6658C15.5598 52.6276 15.4535 52.5538 15.3643 52.4504L13.25 50" stroke="white" stroke-width="2" stroke-linecap="round" stroke-linejoin="round"/>
</svg>
