<svg width="40" height="80" viewBox="0 0 40 85" fill="none" xmlns="http://www.w3.org/2000/svg">
<path fill-rule="evenodd" clip-rule="evenodd" d="M38.4988 66.201C39.4476 65.4419 40 64.2926 40 63.0775L40 8.32251C40 4.96849 36.1203 3.1038 33.5012 5.19904L22.4988 14.001C21.0379 15.1697 18.9621 15.1697 17.5012 14.001L6.49878 5.19904C3.87973 3.10379 0 4.96848 0 8.32251L0 63.0775C0 64.2926 0.552361 65.4419 1.50122 66.201L17.5012 79.001C18.9621 80.1697 21.0379 80.1697 22.4988 79.001L38.4988 66.201Z" fill="url(#paint0_linear)"/>
<path fill-rule="evenodd" clip-rule="evenodd" d="M9.99988 40C9.99988 34.478 14.4769 30 19.9999 30C25.5229 30 29.9999 34.478 29.9999 40C29.9999 45.522 25.5229 50 19.9999 50C14.4769 50 9.99988 45.522 9.99988 40ZM19.9996 47.9999C15.5886 47.9999 11.9996 44.4109 11.9996 39.9999C11.9996 35.5889 15.5886 31.9999 19.9996 31.9999C24.4106 31.9999 27.9996 35.5889 27.9996 39.9999C27.9996 44.4109 24.4106 47.9999 19.9996 47.9999ZM22.7044 36.3945L18.9204 41.3635L17.2874 39.2775C16.9474 38.8415 16.3174 38.7655 15.8834 39.1065C15.4484 39.4465 15.3714 40.0755 15.7124 40.5095L18.1434 43.6165C18.3334 43.8585 18.6234 43.9995 18.9314 43.9995H18.9384C19.2474 43.9985 19.5394 43.8525 19.7264 43.6055L24.2954 37.6055C24.6304 37.1655 24.5454 36.5395 24.1054 36.2045C23.6644 35.8695 23.0384 35.9555 22.7044 36.3945Z" fill="#F7F8F9"/>
<mask id="mask0" mask-type="alpha" maskUnits="userSpaceOnUse" x="9" y="30" width="21" height="20">
<path fill-rule="evenodd" clip-rule="evenodd" d="M9.99988 40C9.99988 34.478 14.4769 30 19.9999 30C25.5229 30 29.9999 34.478 29.9999 40C29.9999 45.522 25.5229 50 19.9999 50C14.4769 50 9.99988 45.522 9.99988 40ZM19.9996 47.9999C15.5886 47.9999 11.9996 44.4109 11.9996 39.9999C11.9996 35.5889 15.5886 31.9999 19.9996 31.9999C24.4106 31.9999 27.9996 35.5889 27.9996 39.9999C27.9996 44.4109 24.4106 47.9999 19.9996 47.9999ZM22.7044 36.3945L18.9204 41.3635L17.2874 39.2775C16.9474 38.8415 16.3174 38.7655 15.8834 39.1065C15.4484 39.4465 15.3714 40.0755 15.7124 40.5095L18.1434 43.6165C18.3334 43.8585 18.6234 43.9995 18.9314 43.9995H18.9384C19.2474 43.9985 19.5394 43.8525 19.7264 43.6055L24.2954 37.6055C24.6304 37.1655 24.5454 36.5395 24.1054 36.2045C23.6644 35.8695 23.0384 35.9555 22.7044 36.3945Z" fill="white"/>
</mask>
<g mask="url(#mask0)">
</g>
<defs>
<linearGradient id="paint0_linear" x1="20" y1="4.73425" x2="20" y2="79.9636" gradientUnits="userSpaceOnUse">
<stop stop-color="#2A6E3F"/>
<stop offset="1" stop-color="#6CA8AF"/>
</linearGradient>
</defs>
</svg>
