<svg width="40" height="65" viewBox="0 0 40 82" fill="none" xmlns="http://www.w3.org/2000/svg">
<path fill-rule="evenodd" clip-rule="evenodd" d="M33.5012 5.19904C36.1203 3.10379 40 4.96848 40 8.32251V61C40 63.2092 38.2091 65 36 65H4C1.79086 65 0 63.2092 0 61V8.32251C0 4.96849 3.87973 3.1038 6.49878 5.19904L17.5012 14.001C18.9621 15.1697 21.0379 15.1697 22.4988 14.001L33.5012 5.19904Z" fill="#6CA8AF"/>
<path d="M30.5673 40.2231L28.25 41.7679L25.25 34.1077L27.5909 32.5471C27.7667 32.4299 27.9701 32.4094 28.1572 32.4901C28.3443 32.5708 28.5001 32.7463 28.5911 32.9787L30.8967 38.8658C30.9428 38.9835 30.9708 39.1123 30.9792 39.2446C30.9876 39.377 30.9761 39.5102 30.9454 39.6365C30.9148 39.7629 30.8655 39.8798 30.8006 39.9805C30.7357 40.0812 30.6564 40.1637 30.5673 40.2231V40.2231Z" stroke="white" stroke-width="2" stroke-linecap="round" stroke-linejoin="round"/>
<path d="M11.75 41.634L9.43272 40.0891C9.34364 40.0297 9.26432 39.9473 9.19939 39.8466C9.13446 39.7459 9.08523 39.6289 9.05457 39.5026C9.0239 39.3762 9.01242 39.243 9.02079 39.1107C9.02916 38.9783 9.05721 38.8495 9.10332 38.7318L11.4089 32.8447C11.4999 32.6123 11.6557 32.4368 11.8428 32.3561C12.0299 32.2754 12.2333 32.2959 12.4091 32.4131L14.75 33.9737L11.75 41.634Z" stroke="white" stroke-width="2" stroke-linecap="round" stroke-linejoin="round"/>
<path d="M28.25 41.7679L26.75 44.1077L23.3003 48.7073C23.2087 48.8294 23.095 48.9178 22.9701 48.9639C22.8453 49.01 22.7137 49.0123 22.588 48.9704L17.1546 47.1592C17.0527 47.1252 16.9572 47.0631 16.8745 46.9768L11.75 41.634" stroke="white" stroke-width="2" stroke-linecap="round" stroke-linejoin="round"/>
<path d="M26.75 44.1077L22.625 40.1077L21.425 41.3077C20.9057 41.827 20.2741 42.1077 19.625 42.1077C18.9759 42.1077 18.3443 41.827 17.825 41.3077L17.3168 40.7995C17.2308 40.7135 17.1597 40.6039 17.1083 40.4781C17.0569 40.3523 17.0263 40.2133 17.0187 40.0704C17.0111 39.9274 17.0266 39.784 17.0642 39.6498C17.1017 39.5156 17.1605 39.3937 17.2365 39.2924L20.9053 34.4006C20.975 34.3077 21.0577 34.234 21.1486 34.1838C21.2396 34.1335 21.3372 34.1077 21.4357 34.1077H25.25" stroke="white" stroke-width="2" stroke-linecap="round" stroke-linejoin="round"/>
<path d="M14.8039 33.9737L19.6151 32.1035C19.787 32.0367 19.9711 32.0541 20.1342 32.1525L23.375 34.1077" stroke="white" stroke-width="2" stroke-linecap="round" stroke-linejoin="round"/>
<path d="M18.5 51.6077L15.6744 50.6658C15.5598 50.6276 15.4535 50.5538 15.3643 50.4504L13.25 48" stroke="white" stroke-width="2" stroke-linecap="round" stroke-linejoin="round"/>
</svg>
