<svg width="40" height="65" viewBox="0 0 40 65" fill="none" xmlns="http://www.w3.org/2000/svg">
<path fill-rule="evenodd" clip-rule="evenodd" d="M36 0C38.2091 0 40 1.79086 40 4V48.0775C40 49.2926 39.4476 50.4419 38.4988 51.201L22.4988 64.001C21.0379 65.1697 18.9621 65.1697 17.5012 64.001L1.50122 51.201C0.552361 50.4419 0 49.2926 0 48.0775V4C0 1.79086 1.79086 0 4 0L36 0Z" fill="url(#paint0_linear)"/>
<path d="M11.1942 29.1952C10.3555 27.7814 10.0618 26.1102 10.3682 24.4952C10.6746 22.8802 11.56 21.4327 12.8582 20.4243C14.1564 19.416 15.778 18.9162 17.4186 19.0189C19.0591 19.1215 20.6058 19.8195 21.7681 20.9819C22.9304 22.1442 23.6285 23.6909 23.7311 25.3314C23.8338 26.972 23.3341 28.5936 22.3257 29.8918C21.3174 31.19 19.8698 32.0754 18.2548 32.3818C16.6399 32.6882 14.9686 32.3945 13.5548 31.5558L13.5548 31.5558L11.2235 32.2219C11.1271 32.2494 11.025 32.2507 10.9279 32.2255C10.8308 32.2004 10.7422 32.1497 10.6712 32.0788C10.6003 32.0078 10.5496 31.9192 10.5245 31.8221C10.4993 31.725 10.5006 31.6229 10.5281 31.5265L11.1942 29.1952L11.1942 29.1952Z" stroke="white" stroke-width="2" stroke-linecap="round" stroke-linejoin="round"/>
<path d="M16.6306 32.4899C16.9624 33.4319 17.499 34.2886 18.2017 34.9983C18.9045 35.708 19.7558 36.253 20.6945 36.594C21.6332 36.9351 22.6359 37.0637 23.6303 36.9706C24.6247 36.8776 25.586 36.5652 26.4452 36.0559L26.4452 36.0558L28.7765 36.7219C28.8729 36.7494 28.975 36.7507 29.0721 36.7255C29.1692 36.7004 29.2578 36.6497 29.3288 36.5788C29.3997 36.5078 29.4504 36.4192 29.4755 36.3221C29.5007 36.225 29.4994 36.1229 29.4719 36.0265L28.8058 33.6952L28.8058 33.6952C29.3976 32.6971 29.7223 31.5633 29.7483 30.4032C29.7744 29.2431 29.501 28.0959 28.9546 27.0722C28.4082 26.0485 27.6072 25.1829 26.6288 24.559C25.6505 23.935 24.5278 23.5737 23.3692 23.5099" stroke="white" stroke-width="2" stroke-linecap="round" stroke-linejoin="round"/>
<defs>
<linearGradient id="paint0_linear" x1="20" y1="5.94572" x2="20" y2="64.9455" gradientUnits="userSpaceOnUse">
<stop stop-color="#12264F"/>
<stop offset="1" stop-color="#06436F"/>
</linearGradient>
</defs>
</svg>
