<svg width="40" height="50" viewBox="0 0 40 65" fill="none" xmlns="http://www.w3.org/2000/svg">
<path fill-rule="evenodd" clip-rule="evenodd" d="M36 0C38.2091 0 40 1.79086 40 4V48.0775C40 49.2926 39.4476 50.4419 38.4988 51.201L22.4988 64.001C21.0379 65.1697 18.9621 65.1697 17.5012 64.001L1.50122 51.201C0.552361 50.4419 0 49.2926 0 48.0775V4C0 1.79086 1.79086 0 4 0L36 0Z" fill="url(#paint0_linear)"/>
<path d="M11.1942 29.1951C10.3556 27.7814 10.0619 26.1101 10.3683 24.4951C10.6747 22.8802 11.5601 21.4326 12.8582 20.4243C14.1564 19.4159 15.778 18.9161 17.4186 19.0188C19.0591 19.1215 20.6058 19.8195 21.7681 20.9818C22.9305 22.1441 23.6285 23.6908 23.7312 25.3314C23.8338 26.9719 23.3341 28.5936 22.3257 29.8917C21.3174 31.1899 19.8698 32.0753 18.2549 32.3817C16.6399 32.6881 14.9686 32.3944 13.5549 31.5558L13.5549 31.5557L11.2236 32.2218C11.1271 32.2494 11.025 32.2506 10.9279 32.2255C10.8308 32.2003 10.7422 32.1496 10.6713 32.0787C10.6003 32.0078 10.5497 31.9192 10.5245 31.822C10.4993 31.7249 10.5006 31.6229 10.5282 31.5264L11.1943 29.1951L11.1942 29.1951Z" stroke="white" stroke-width="2" stroke-linecap="round" stroke-linejoin="round"/>
<path d="M16.6306 32.49C16.9624 33.432 17.499 34.2887 18.2018 34.9984C18.9045 35.708 19.7559 36.253 20.6946 36.5941C21.6333 36.9351 22.636 37.0638 23.6303 36.9707C24.6247 36.8776 25.5861 36.5652 26.4452 36.0559L26.4452 36.0558L28.7765 36.7219C28.873 36.7495 28.9751 36.7508 29.0722 36.7256C29.1693 36.7004 29.2579 36.6498 29.3288 36.5788C29.3997 36.5079 29.4504 36.4193 29.4756 36.3222C29.5007 36.2251 29.4995 36.123 29.4719 36.0265L28.8058 33.6952L28.8059 33.6953C29.3977 32.6972 29.7223 31.5634 29.7484 30.4033C29.7744 29.2432 29.5011 28.0959 28.9547 27.0723C28.4082 26.0486 27.6072 25.183 26.6289 24.559C25.6505 23.9351 24.5279 23.5738 23.3693 23.51" stroke="white" stroke-width="2" stroke-linecap="round" stroke-linejoin="round"/>
<defs>
<linearGradient id="paint0_linear" x1="20" y1="5.94572" x2="20" y2="64.9455" gradientUnits="userSpaceOnUse">
<stop stop-color="#12264F"/>
<stop offset="1" stop-color="#06436F"/>
</linearGradient>
</defs>
</svg>
