<svg width="23" height="23" viewBox="0 0 23 23" fill="none" xmlns="http://www.w3.org/2000/svg">
<path fill-rule="evenodd" clip-rule="evenodd" d="M11.1678 6.11836L11.2177 7.11317L10.3867 6.99136C7.36211 6.52441 4.71973 4.94082 2.4762 2.28122L1.37936 0.961565L1.09684 1.93608C0.498563 4.10843 0.880795 6.40259 2.1272 7.94557C2.79195 8.79827 2.64238 8.92008 1.49569 8.41252C1.09684 8.25011 0.747845 8.12829 0.714607 8.1892C0.598276 8.33132 0.997126 10.1788 1.31288 10.9097C1.74497 11.9248 2.62577 12.9196 3.58965 13.5084L4.40397 13.9754L3.44009 13.9957C2.50943 13.9957 2.4762 14.016 2.57591 14.4423C2.90828 15.762 4.22117 17.1628 5.68362 17.7719L6.71398 18.1983L5.81657 18.8479C4.48707 19.7818 2.9249 20.3097 1.36274 20.3503C0.614894 20.3706 0 20.4518 0 20.5127C0 20.7157 2.02749 21.8527 3.20742 22.2993C6.74722 23.619 10.9518 23.0505 14.1093 20.797C16.3529 19.1931 18.5964 16.0056 19.6434 12.9196C20.2084 11.2752 20.7735 8.27041 20.7735 6.82894C20.7735 5.89503 20.8233 5.77322 21.754 4.65659C22.3024 4.00692 22.8176 3.29633 22.9173 3.09331C23.0835 2.70757 23.0669 2.70757 22.2193 3.05271C20.8067 3.66178 20.6073 3.58057 21.3053 2.66696C21.8204 2.01729 22.4353 0.839751 22.4353 0.494611C22.4353 0.433704 22.1861 0.535215 21.9035 0.717937C21.6044 0.92096 20.9396 1.2255 20.4411 1.40822L19.5437 1.75336L18.7294 1.08338C18.2806 0.717937 17.6491 0.31189 17.3168 0.190076C16.4692 -0.0941572 15.1729 -0.0535525 14.4085 0.271285C12.3311 1.18489 11.0182 3.53996 11.1678 6.11836Z" fill="#116B1D"/>
</svg>
