<svg width="24" height="32" viewBox="0 0 24 32" fill="none" xmlns="http://www.w3.org/2000/svg">
<path d="M22.5673 15.2231L20.25 16.7679L17.25 9.10768L19.5909 7.5471C19.7667 7.42986 19.9701 7.40939 20.1572 7.4901C20.3443 7.57082 20.5001 7.74626 20.5911 7.97866L22.8967 13.8658C22.9428 13.9835 22.9708 14.1123 22.9792 14.2446C22.9876 14.377 22.9761 14.5102 22.9454 14.6365C22.9148 14.7629 22.8655 14.8798 22.8006 14.9805C22.7357 15.0812 22.6564 15.1637 22.5673 15.2231V15.2231Z" stroke="white" stroke-width="2" stroke-linecap="round" stroke-linejoin="round"/>
<path d="M3.75006 16.634L1.43278 15.0891C1.34369 15.0297 1.26437 14.9473 1.19944 14.8466C1.13452 14.7459 1.08528 14.6289 1.05462 14.5026C1.02395 14.3762 1.01247 14.243 1.02084 14.1107C1.02921 13.9783 1.05727 13.8495 1.10337 13.7318L3.40896 7.84469C3.49997 7.6123 3.65579 7.43685 3.84287 7.35613C4.02995 7.27541 4.23332 7.29588 4.40919 7.41313L6.75006 8.97371L3.75006 16.634Z" stroke="white" stroke-width="2" stroke-linecap="round" stroke-linejoin="round"/>
<path d="M20.25 16.768L18.75 19.1078L15.3003 23.7074C15.2087 23.8295 15.095 23.9179 14.9701 23.964C14.8453 24.0101 14.7137 24.0123 14.588 23.9704L9.15458 22.1593C9.05266 22.1253 8.95724 22.0632 8.87448 21.9769L3.75 16.634" stroke="white" stroke-width="2" stroke-linecap="round" stroke-linejoin="round"/>
<path d="M18.75 19.1077L14.625 15.1077L13.425 16.3077C12.9058 16.827 12.2742 17.1077 11.625 17.1077C10.9759 17.1077 10.3443 16.827 9.82504 16.3077L9.31685 15.7995C9.23088 15.7135 9.15978 15.6039 9.10834 15.4781C9.05691 15.3523 9.02635 15.2133 9.01873 15.0704C9.01112 14.9274 9.02662 14.784 9.06419 14.6498C9.10177 14.5156 9.16053 14.3937 9.23652 14.2924L12.9054 9.40056C12.975 9.3077 13.0577 9.23404 13.1487 9.18379C13.2397 9.13353 13.3372 9.10767 13.4357 9.10767H17.25" stroke="white" stroke-width="2" stroke-linecap="round" stroke-linejoin="round"/>
<path d="M6.80383 8.97369L11.6151 7.1035C11.787 7.0367 11.9711 7.05406 12.1342 7.15246L15.375 9.10767" stroke="white" stroke-width="2" stroke-linecap="round" stroke-linejoin="round"/>
<path d="M10.5 26.6077L7.67443 25.6658C7.55977 25.6276 7.4535 25.5538 7.3643 25.4504L5.25 23" stroke="white" stroke-width="2" stroke-linecap="round" stroke-linejoin="round"/>
</svg>
