<svg width="24" height="24" viewBox="0 0 24 24" fill="none" xmlns="http://www.w3.org/2000/svg">
<path d="M3.19421 13.1952C2.35557 11.7815 2.06187 10.1102 2.36826 8.49521C2.67466 6.88024 3.56007 5.43266 4.85823 4.42431C6.15639 3.41596 7.77801 2.91619 9.41858 3.01886C11.0591 3.12152 12.6058 3.81955 13.7681 4.98187C14.9305 6.1442 15.6285 7.69086 15.7312 9.33143C15.8338 10.972 15.3341 12.5936 14.3257 13.8918C13.3174 15.19 11.8698 16.0754 10.2549 16.3818C8.63989 16.6882 6.96862 16.3945 5.55486 15.5558L5.55488 15.5558L3.22356 16.2219C3.1271 16.2494 3.02504 16.2507 2.92793 16.2255C2.83082 16.2004 2.74221 16.1497 2.67128 16.0788C2.60035 16.0078 2.54967 15.9192 2.52451 15.8221C2.49935 15.725 2.50061 15.6229 2.52817 15.5265L3.19426 13.1952L3.19421 13.1952Z" stroke="white" stroke-width="2" stroke-linecap="round" stroke-linejoin="round"/>
<path d="M8.63062 16.4899C8.96244 17.4319 9.49904 18.2886 10.2018 18.9983C10.9045 19.708 11.7559 20.253 12.6946 20.594C13.6333 20.9351 14.636 21.0637 15.6303 20.9706C16.6247 20.8776 17.5861 20.5652 18.4452 20.0558L18.4452 20.0558L20.7765 20.7219C20.873 20.7494 20.9751 20.7507 21.0722 20.7255C21.1693 20.7004 21.2579 20.6497 21.3288 20.5788C21.3997 20.5078 21.4504 20.4192 21.4756 20.3221C21.5007 20.225 21.4995 20.1229 21.4719 20.0265L20.8058 17.6952L20.8059 17.6952C21.3977 16.6971 21.7223 15.5633 21.7484 14.4032C21.7744 13.2431 21.5011 12.0959 20.9547 11.0722C20.4082 10.0485 19.6072 9.18294 18.6289 8.55897C17.6505 7.935 16.5279 7.57371 15.3693 7.50995" stroke="white" stroke-width="2" stroke-linecap="round" stroke-linejoin="round"/>
</svg>
