<svg width="24" height="24" viewBox="0 0 24 24" fill="none" xmlns="http://www.w3.org/2000/svg">
<path fill-rule="evenodd" clip-rule="evenodd" d="M2 12C2 6.478 6.477 2 12 2C17.523 2 22 6.478 22 12C22 17.522 17.523 22 12 22C6.477 22 2 17.522 2 12ZM12.0001 19.9999C7.58912 19.9999 4.00012 16.4109 4.00012 11.9999C4.00012 7.58894 7.58912 3.99994 12.0001 3.99994C16.4111 3.99994 20.0001 7.58894 20.0001 11.9999C20.0001 16.4109 16.4111 19.9999 12.0001 19.9999ZM14.7047 8.39449L10.9207 13.3635L9.28772 11.2775C8.94772 10.8415 8.31772 10.7655 7.88372 11.1065C7.44872 11.4465 7.37172 12.0755 7.71272 12.5095L10.1437 15.6165C10.3337 15.8585 10.6237 15.9995 10.9317 15.9995H10.9387C11.2477 15.9985 11.5397 15.8525 11.7267 15.6055L16.2957 9.60549C16.6307 9.16549 16.5457 8.53949 16.1057 8.20449C15.6647 7.86949 15.0387 7.95549 14.7047 8.39449Z" fill="#F7F8F9"/>
<mask id="mask0" mask-type="alpha" maskUnits="userSpaceOnUse" x="2" y="2" width="20" height="20">
<path fill-rule="evenodd" clip-rule="evenodd" d="M2 12C2 6.478 6.477 2 12 2C17.523 2 22 6.478 22 12C22 17.522 17.523 22 12 22C6.477 22 2 17.522 2 12ZM12.0001 19.9999C7.58912 19.9999 4.00012 16.4109 4.00012 11.9999C4.00012 7.58894 7.58912 3.99994 12.0001 3.99994C16.4111 3.99994 20.0001 7.58894 20.0001 11.9999C20.0001 16.4109 16.4111 19.9999 12.0001 19.9999ZM14.7047 8.39449L10.9207 13.3635L9.28772 11.2775C8.94772 10.8415 8.31772 10.7655 7.88372 11.1065C7.44872 11.4465 7.37172 12.0755 7.71272 12.5095L10.1437 15.6165C10.3337 15.8585 10.6237 15.9995 10.9317 15.9995H10.9387C11.2477 15.9985 11.5397 15.8525 11.7267 15.6055L16.2957 9.60549C16.6307 9.16549 16.5457 8.53949 16.1057 8.20449C15.6647 7.86949 15.0387 7.95549 14.7047 8.39449Z" fill="white"/>
</mask>
<g mask="url(#mask0)">
</g>
</svg>
